<svg width="46" height="32" viewBox="0 0 46 32" fill="none" xmlns="http://www.w3.org/2000/svg">
<path d="M29.8541 15.2383C28.3771 8.07781 22.684 0 22.684 0C22.684 0 17.013 8.04341 15.525 15.1867C15.299 16.2703 15.1667 17.3309 15.1667 18.3399C15.1667 23.1556 18.3577 27.0655 20.5788 29.2097L21.2511 29.8288L21.3614 27.7993L22.684 5.73301L23.8745 28.1089L23.9737 29.783L26.2829 27.6331C28.2173 25.3858 30.2069 22.1466 30.2069 18.3456C30.2013 17.3481 30.0746 16.2989 29.8541 15.2383Z" fill="white"/>
<path d="M14.759 15.0165C14.7701 14.965 14.7811 14.9134 14.7921 14.8675C8.86203 11.1926 0 9.77658 0 9.77658C0 9.77658 1.93444 22.8478 7.15355 28.277C10.7744 32.0436 16.4014 32.1582 19.2672 31.9289L3.84132 13.9731L16.7596 25.8462C15.4038 23.7307 14.3843 21.1967 14.3843 18.3417C14.3843 17.3327 14.511 16.2147 14.759 15.0165Z" fill="white"/>
<path d="M30.5542 14.7912C30.5762 14.8829 30.5983 14.9746 30.6148 15.0663C30.8573 16.2416 30.9785 17.3481 30.9785 18.3456C30.9785 20.5586 30.3337 22.8174 29.0937 25.0131L41.1908 13.7649L25.787 31.9042C28.5867 32.1507 34.379 32.122 38.077 28.2695C43.2961 22.8403 45.2305 9.76904 45.2305 9.76904C45.2305 9.76904 36.4842 11.1736 30.5542 14.7912Z" fill="white"/>
</svg>
