<svg width="98" height="85" viewBox="0 0 98 85" fill="none" xmlns="http://www.w3.org/2000/svg">
<g clip-path="url(#clip0)">
<path d="M29.8817 17.4817C29.9713 17.6354 30.127 17.7219 30.2921 17.7219C30.3723 17.7219 30.4525 17.7027 30.528 17.6595C30.7544 17.5249 30.8299 17.2318 30.7025 17.0012L26.4708 9.50016C26.3387 9.26951 26.0509 9.19262 25.8245 9.32236C25.598 9.45691 25.5225 9.75003 25.6499 9.98068L29.8817 17.4817Z" fill="#13294A"/>
<path d="M38.5244 11.5615L40.2511 17.9717C40.3077 18.1832 40.4964 18.3273 40.704 18.3273C40.7464 18.3273 40.7889 18.3225 40.8314 18.3081C41.0814 18.236 41.2324 17.9717 41.1616 17.7171L39.4349 11.3069C39.3642 11.0522 39.1094 10.9032 38.8547 10.9705C38.6046 11.0378 38.4584 11.302 38.5244 11.5615Z" fill="#13294A"/>
<path d="M37.5998 8.11632C37.6564 8.32775 37.8451 8.47191 38.0527 8.47191C38.0951 8.47191 38.1376 8.4671 38.18 8.45269C38.4301 8.38061 38.581 8.11632 38.5103 7.86164L36.4864 0.351043C36.4156 0.0963645 36.1609 -0.0525982 35.9061 0.0146753C35.6561 0.086754 35.5051 0.351043 35.5759 0.605721L37.5998 8.11632Z" fill="#13294A"/>
<path d="M48.9174 26.6788H48.9222C49.1816 26.6788 49.3892 26.4673 49.3939 26.2031L49.5307 16.2226C49.5355 15.9583 49.3279 15.7372 49.0637 15.7372C48.7948 15.718 48.5872 15.9439 48.5872 16.2129L48.4504 26.1934C48.4457 26.4577 48.6533 26.674 48.9174 26.6788Z" fill="#13294A"/>
<path d="M49.092 13.4788H49.0967C49.3562 13.4788 49.5638 13.2674 49.5685 13.0031L49.7006 3.33494C49.7053 3.07065 49.4977 2.84961 49.2335 2.84961H49.2288C48.9693 2.84961 48.7618 3.06104 48.757 3.32533L48.6249 12.9935C48.6249 13.2578 48.8325 13.474 49.092 13.4788Z" fill="#13294A"/>
<path d="M58.8811 12.9984C58.9236 13.008 58.9613 13.0128 59.0038 13.0128C59.2114 13.0128 59.4001 12.8734 59.4567 12.6572L61.4806 4.96881C61.5466 4.71414 61.4004 4.44985 61.1456 4.38257C60.8956 4.3153 60.6361 4.46426 60.5701 4.72375L58.5462 12.4121C58.4801 12.6668 58.6311 12.9311 58.8811 12.9984Z" fill="#13294A"/>
<path d="M56.7912 20.9512C56.8337 20.9608 56.8714 20.9656 56.9139 20.9656C57.1214 20.9656 57.3102 20.8263 57.3668 20.61L58.6924 15.5789C58.7585 15.3242 58.6122 15.06 58.3575 14.9927C58.1074 14.9254 57.848 15.0744 57.7819 15.3339L56.4563 20.3649C56.3902 20.6196 56.5365 20.8839 56.7912 20.9512Z" fill="#13294A"/>
<path d="M53.7436 32.5315C53.7861 32.5411 53.8238 32.5459 53.8663 32.5459C54.0738 32.5459 54.2625 32.4066 54.3192 32.1904L56.2959 24.6798C56.3619 24.4251 56.2157 24.1608 55.9609 24.0935C55.7109 24.0262 55.4514 24.1752 55.3853 24.4347L53.4086 31.9453C53.3426 32.2 53.4888 32.4594 53.7436 32.5315Z" fill="#13294A"/>
<path d="M58.0037 34.8285C58.0791 34.8718 58.1546 34.891 58.2348 34.891C58.3999 34.891 58.5603 34.8045 58.6453 34.6459L62.5845 27.5582C62.7119 27.3275 62.6317 27.0344 62.4052 26.9047C62.1788 26.7749 61.891 26.8566 61.7636 27.0873L57.8244 34.175C57.697 34.4057 57.7772 34.6988 58.0037 34.8285Z" fill="#13294A"/>
<path d="M64.4763 23.176C64.5518 23.2193 64.6272 23.2385 64.7074 23.2385C64.8726 23.2385 65.033 23.152 65.1179 22.9934L69.3355 15.3963C69.4629 15.1657 69.3827 14.8725 69.1562 14.7428C68.9298 14.6131 68.642 14.6947 68.5146 14.9254L64.297 22.5225C64.1696 22.7531 64.2498 23.0463 64.4763 23.176Z" fill="#13294A"/>
<path d="M70.7649 11.8498C70.8404 11.893 70.9159 11.9123 70.9961 11.9123C71.1612 11.9123 71.3216 11.8258 71.4065 11.6672L74.5627 5.98738C74.69 5.75673 74.6098 5.46361 74.3834 5.33387C74.1569 5.20413 73.8692 5.28581 73.7418 5.51647L70.5857 11.1963C70.4583 11.4269 70.5385 11.72 70.7649 11.8498Z" fill="#13294A"/>
<path d="M75.9874 23.5507C76.11 23.5507 76.2327 23.5026 76.3223 23.4065L81.9647 17.5826C82.1487 17.3952 82.1439 17.0876 81.9599 16.905C81.776 16.7176 81.474 16.7224 81.2948 16.9098L75.6524 22.7338C75.4684 22.9212 75.4732 23.2287 75.6571 23.4113C75.7468 23.5026 75.8694 23.5507 75.9874 23.5507Z" fill="#13294A"/>
<path d="M73.3172 25.146L66.6936 31.9839C66.5096 32.1713 66.5143 32.4788 66.6983 32.6614C66.7879 32.7527 66.9106 32.8007 67.0285 32.8007C67.1512 32.8007 67.2739 32.7527 67.3635 32.6566L73.9871 25.8187C74.1711 25.6313 74.1664 25.3238 73.9824 25.1412C73.7984 24.9538 73.4965 24.9538 73.3172 25.146Z" fill="#13294A"/>
<path d="M29.4618 30.8306C29.5514 30.9219 29.6741 30.9652 29.792 30.9652C29.9147 30.9652 30.0374 30.9171 30.1317 30.821C30.311 30.6288 30.311 30.3261 30.1223 30.1435L24.1167 24.209C23.9327 24.0264 23.6308 24.0264 23.4515 24.2186C23.2722 24.4108 23.2722 24.7136 23.4609 24.8962L29.4618 30.8306Z" fill="#13294A"/>
<path d="M20.0784 21.5517C20.168 21.643 20.2907 21.6862 20.4086 21.6862C20.5313 21.6862 20.6539 21.6382 20.7483 21.5421C20.9275 21.3499 20.9275 21.0471 20.7388 20.8645L13.5586 13.772C13.3699 13.5894 13.0726 13.5894 12.8934 13.7816C12.7141 13.9738 12.7141 14.2766 12.9028 14.4592L20.0784 21.5517Z" fill="#13294A"/>
<path d="M21.2767 34.8285L27.8531 38.567C27.9238 38.6102 28.004 38.6295 28.0842 38.6295C28.2494 38.6295 28.4098 38.543 28.4947 38.3844C28.6221 38.1537 28.5419 37.8606 28.3107 37.7309L21.7343 33.9924C21.5078 33.8627 21.22 33.9443 21.0927 34.1798C20.97 34.4056 21.0502 34.6988 21.2767 34.8285Z" fill="#13294A"/>
<path d="M8.81731 27.7409L17.1581 32.4836C17.2289 32.5269 17.3091 32.5461 17.3893 32.5461C17.5544 32.5461 17.7148 32.4596 17.7997 32.301C17.9271 32.0704 17.8469 31.7773 17.6157 31.6475L9.27492 26.9048C9.04847 26.775 8.76069 26.8567 8.63332 27.0922C8.51066 27.318 8.59086 27.6111 8.81731 27.7409Z" fill="#13294A"/>
<path d="M35.5334 46.3659L25.4565 43.454C25.2065 43.3819 24.947 43.5308 24.8762 43.7855C24.8055 44.0402 24.9517 44.3045 25.2017 44.3766L35.2787 47.2885C35.3211 47.303 35.3636 47.3078 35.4061 47.3078C35.6136 47.3078 35.8023 47.1684 35.859 46.957C35.9297 46.7023 35.7835 46.438 35.5334 46.3659Z" fill="#13294A"/>
<path d="M20.569 42.0461L15.0965 40.4652C14.8465 40.3931 14.587 40.5421 14.5162 40.7967C14.4455 41.0514 14.5917 41.3157 14.8418 41.3878L20.3143 42.9687C20.3567 42.9831 20.3992 42.9879 20.4416 42.9879C20.6492 42.9879 20.8379 42.8486 20.8945 42.6372C20.9653 42.3825 20.819 42.1182 20.569 42.0461Z" fill="#13294A"/>
<path d="M4.63275 38.442L10.8506 40.2392C10.8931 40.2536 10.9355 40.2584 10.978 40.2584C11.1856 40.2584 11.3743 40.119 11.4309 39.9076C11.5017 39.6529 11.3554 39.3886 11.1054 39.3165L4.8875 37.5194C4.63747 37.4473 4.37799 37.5963 4.30723 37.8509C4.23646 38.1056 4.38271 38.3699 4.63275 38.442Z" fill="#13294A"/>
<path d="M12.9547 50.1238C12.9547 49.8595 12.7424 49.6433 12.4829 49.6433H0.471766C0.212295 49.6433 0 49.8595 0 50.1238C0 50.3881 0.212295 50.6044 0.471766 50.6044H12.4829C12.7471 50.6044 12.9547 50.3881 12.9547 50.1238Z" fill="#13294A"/>
<path d="M28.6504 50.1238C28.6504 49.8595 28.4381 49.6433 28.1786 49.6433H15.7429C15.4834 49.6433 15.2711 49.8595 15.2711 50.1238C15.2711 50.3881 15.4834 50.6044 15.7429 50.6044H28.1786C28.4381 50.6044 28.6504 50.3881 28.6504 50.1238Z" fill="#13294A"/>
<path d="M37.0431 49.6433H32.2877C32.0282 49.6433 31.8159 49.8595 31.8159 50.1238C31.8159 50.3881 32.0282 50.6044 32.2877 50.6044H37.0431C37.3026 50.6044 37.5149 50.3881 37.5149 50.1238C37.5149 49.8595 37.3026 49.6433 37.0431 49.6433Z" fill="#13294A"/>
<path d="M88.0693 39.6818C88.1259 39.898 88.3146 40.0373 88.5269 40.0373C88.5647 40.0373 88.6071 40.0325 88.6496 40.0229L94.5137 38.442C94.7637 38.3747 94.9147 38.1104 94.8486 37.8558C94.7826 37.6011 94.5231 37.4473 94.2731 37.5146L88.4043 39.0955C88.1495 39.1628 88.0033 39.4271 88.0693 39.6818Z" fill="#13294A"/>
<path d="M75.9874 43.4156C76.0251 43.4156 76.0676 43.4108 76.1101 43.4012L84.1584 41.234C84.4084 41.1667 84.5594 40.9024 84.4933 40.6478C84.4273 40.3931 84.1678 40.2393 83.9178 40.3066L75.8695 42.4737C75.6194 42.541 75.4685 42.8053 75.5345 43.06C75.5864 43.2762 75.7798 43.4156 75.9874 43.4156Z" fill="#13294A"/>
<path d="M90.0508 50.1238C90.0508 50.3881 90.263 50.6044 90.5225 50.6044H97.5282C97.7877 50.6044 98 50.3881 98 50.1238C98 49.8595 97.7877 49.6433 97.5282 49.6433H90.5225C90.263 49.6433 90.0508 49.8595 90.0508 50.1238Z" fill="#13294A"/>
<path d="M88.3807 50.1238C88.3807 49.8595 88.1684 49.6433 87.9089 49.6433H80.1672C79.9078 49.6433 79.6955 49.8595 79.6955 50.1238C79.6955 50.3881 79.9078 50.6044 80.1672 50.6044H87.9089C88.1684 50.6044 88.3807 50.3881 88.3807 50.1238Z" fill="#13294A"/>
<path d="M75.5156 50.1238C75.5156 49.8595 75.3033 49.6433 75.0439 49.6433H67.8258C67.5664 49.6433 67.3541 49.8595 67.3541 50.1238C67.3541 50.3881 67.5664 50.6044 67.8258 50.6044H75.0439C75.3033 50.6044 75.5156 50.3881 75.5156 50.1238Z" fill="#13294A"/>
<path d="M14.3134 60.6422C14.2379 60.3875 13.9784 60.2433 13.7284 60.3154L5.25548 62.867C5.00544 62.9439 4.86391 63.2082 4.93468 63.4629C4.99601 63.6743 5.18471 63.8088 5.38757 63.8088C5.43003 63.8088 5.47721 63.804 5.51967 63.7896L13.9926 61.238C14.2426 61.1659 14.3889 60.8969 14.3134 60.6422Z" fill="#13294A"/>
<path d="M17.8186 60.0707C17.8611 60.0707 17.9082 60.0659 17.9507 60.0515L28.3579 56.9184C28.6079 56.8416 28.7494 56.5773 28.6787 56.3226C28.6032 56.0679 28.3437 55.9238 28.0937 55.9958L17.6865 59.1289C17.4365 59.2057 17.2949 59.47 17.3657 59.7247C17.427 59.9313 17.6157 60.0707 17.8186 60.0707Z" fill="#13294A"/>
<path d="M38.7698 53.7805C39.0198 53.7036 39.1613 53.4393 39.0906 53.1847C39.0151 52.93 38.7556 52.7858 38.5056 52.8579L32.9718 54.5253C32.7217 54.6022 32.5802 54.8665 32.651 55.1212C32.7123 55.3326 32.901 55.4671 33.1039 55.4671C33.1463 55.4671 33.1935 55.4623 33.2359 55.4479L38.7698 53.7805Z" fill="#13294A"/>
<path d="M97.6556 63.189L88.0316 60.45C87.7815 60.378 87.5221 60.5269 87.4513 60.7816C87.3805 61.0363 87.5268 61.3006 87.7768 61.3727L97.4009 64.1116C97.4433 64.1261 97.4858 64.1309 97.5282 64.1309C97.7358 64.1309 97.9245 63.9915 97.9811 63.7801C98.0519 63.5254 97.9056 63.2611 97.6556 63.189Z" fill="#13294A"/>
<path d="M74.9165 57.7159L83.9131 60.2771C83.9555 60.2915 83.998 60.2963 84.0404 60.2963C84.248 60.2963 84.4367 60.157 84.4933 59.9456C84.5641 59.6909 84.4179 59.4266 84.1678 59.3545L75.1712 56.7933C74.9212 56.7212 74.6617 56.8702 74.591 57.1249C74.5202 57.3795 74.6665 57.6438 74.9165 57.7159Z" fill="#13294A"/>
<path d="M21.9183 66.7833C21.7909 66.5527 21.5031 66.471 21.2767 66.6007L13.0019 71.3291C12.7754 71.4588 12.6952 71.7519 12.8226 71.9826C12.9075 72.1411 13.0679 72.2276 13.233 72.2276C13.3132 72.2276 13.3887 72.2084 13.4642 72.1652L21.739 67.4368C21.9654 67.3071 22.0456 67.014 21.9183 66.7833Z" fill="#13294A"/>
<path d="M25.3291 65.3179C25.4093 65.3179 25.4848 65.2987 25.5603 65.2554L32.9198 61.0508C33.1463 60.9211 33.2265 60.628 33.0991 60.3973C32.9717 60.1667 32.684 60.085 32.4575 60.2147L25.098 64.4193C24.8715 64.5491 24.7913 64.8422 24.9187 65.0728C25.0036 65.2266 25.1593 65.3179 25.3291 65.3179Z" fill="#13294A"/>
<path d="M25.0036 74.8658L18.2432 81.4154C18.0545 81.598 18.0451 81.9007 18.2243 82.0929C18.3187 82.1938 18.4414 82.2419 18.564 82.2419C18.682 82.2419 18.7999 82.1986 18.8895 82.1073L25.6499 75.5578C25.8386 75.3752 25.8481 75.0724 25.6688 74.8802C25.4895 74.6928 25.1923 74.6832 25.0036 74.8658Z" fill="#13294A"/>
<path d="M35.0098 65.8369C34.8305 65.6447 34.5333 65.6351 34.3446 65.8177L28.6834 71.3005C28.4947 71.4831 28.4853 71.7858 28.6645 71.978C28.7589 72.0789 28.8815 72.127 29.0042 72.127C29.1221 72.127 29.2401 72.0837 29.3297 71.9924L34.9909 66.5096C35.1796 66.3366 35.189 66.0291 35.0098 65.8369Z" fill="#13294A"/>
<path d="M35.2928 76.0625C35.0664 75.9232 34.7786 76.0001 34.6465 76.2307L29.9619 84.2651C29.8298 84.4909 29.9005 84.7888 30.127 84.9234C30.2025 84.9714 30.2874 84.9907 30.3676 84.9907C30.528 84.9907 30.6837 84.909 30.7733 84.7552L35.458 76.7208C35.59 76.495 35.5146 76.1971 35.2928 76.0625Z" fill="#13294A"/>
<path d="M90.5744 73.2225L70.7225 61.6707C70.496 61.5362 70.2083 61.6179 70.0809 61.8485C69.9535 62.0792 70.029 62.3723 70.2554 62.502L74.8599 65.1833C74.0626 64.9383 73.204 64.9094 72.3737 65.1161C72.0293 65.2026 71.6943 65.3035 71.3594 65.3996C69.5336 64.6596 64.9952 62.4299 64.415 60.4262C64.2734 59.9408 64.2074 59.4555 64.1838 58.9654L67.5994 60.9547C67.6749 60.998 67.7551 61.0172 67.8353 61.0172C68.0004 61.0172 68.1561 60.9307 68.2457 60.7769C68.3731 60.5463 68.2976 60.2532 68.0712 60.1234L64.2027 57.8698C64.2451 57.2403 64.3301 56.5772 64.4291 55.8516C64.4763 55.5104 64.5235 55.1452 64.5707 54.7656L70.8829 56.5627C70.9253 56.5771 70.9678 56.582 71.0103 56.582C71.2178 56.582 71.4065 56.4426 71.4632 56.2312C71.5339 55.9765 71.3877 55.7122 71.1376 55.6401L64.6744 53.7997C64.8065 52.4398 64.8679 50.8541 64.698 48.9608C64.6933 48.932 64.6886 48.9032 64.6792 48.8743C64.6131 48.6437 64.3584 47.7355 64.047 46.6543L71.4065 44.6697C71.6566 44.6025 71.8076 44.3382 71.7415 44.0835C71.6755 43.8288 71.416 43.6751 71.1659 43.7423L63.7781 45.7317C63.4337 44.564 63.0704 43.3723 62.8346 42.714L92.5464 25.4295C92.7728 25.2998 92.853 25.0067 92.7209 24.776C92.5936 24.5454 92.3011 24.4637 92.0793 24.5982L62.3911 41.8683C61.9948 41.3205 61.306 40.5324 60.5465 39.7107L64.5471 35.5782C64.7311 35.3908 64.7263 35.0833 64.5423 34.9007C64.3584 34.7133 64.0564 34.7181 63.8772 34.9055L59.8954 39.014C58.683 37.731 57.4847 36.5441 57.2394 36.3038C57.1451 36.2125 57.0177 36.1645 56.8856 36.1693C56.7535 36.1789 56.6308 36.2413 56.5459 36.3423C56.4987 36.3999 55.8194 37.2504 55.6212 38.3268C52.8756 34.7565 49.6959 30.6288 48.8844 29.6293C47.0634 27.3949 45.3745 27.2459 44.6904 27.294C44.4026 26.9288 44.1479 26.6212 43.9497 26.4098C43.7516 26.1984 43.5676 26.035 43.3883 25.9053L41.973 20.6579C41.9023 20.4032 41.6428 20.2543 41.3928 20.3216C41.1427 20.3936 40.9918 20.6579 41.0625 20.9126L42.1476 24.9346C41.723 24.7039 41.3031 24.603 40.8927 24.6367C40.303 24.6799 39.7652 25.0019 39.3831 25.5449C38.9302 26.184 38.949 26.9912 39.1189 27.7168C38.7226 27.6063 38.2744 27.6207 37.7885 27.8562C37.5526 27.9667 37.3214 28.1349 37.128 28.3655L32.7217 20.5522C32.5943 20.3216 32.3018 20.2447 32.0754 20.3744C31.8489 20.509 31.7735 20.8021 31.9008 21.0327L36.6515 29.4611C36.5477 30.0906 36.6091 30.9267 36.9676 32.056C37.3073 33.1372 38.0338 35.0785 38.4206 36.1116C37.93 36.1597 37.5479 36.3567 37.2837 36.7075C37.2082 36.8084 37.1469 36.9189 37.095 37.039L33.4435 33.4303C33.2548 33.2477 32.9576 33.2477 32.7783 33.4399C32.5991 33.6321 32.5991 33.9348 32.7878 34.1174L36.9204 38.2019C36.9676 39.2638 37.4158 40.7439 38.2838 42.7621L38.3829 42.9975C38.4773 43.2234 38.5669 43.4204 38.6424 43.6078L32.9293 40.3594C32.7028 40.2297 32.4151 40.3114 32.2877 40.5468C32.1603 40.7775 32.2405 41.0706 32.4717 41.2004L39.2132 45.0349C39.5151 45.8951 39.6661 46.6639 40.0577 48.6629C40.2322 49.5615 40.4587 50.7003 40.7653 52.1996C40.9823 53.2567 41.2135 54.2082 41.4588 55.0779L36.8261 57.7256C36.5996 57.8553 36.5194 58.1485 36.6468 58.3791C36.7317 58.5377 36.8921 58.6242 37.0572 58.6242C37.1374 58.6242 37.2129 58.605 37.2884 58.5617L41.7372 56.0197C41.9589 56.7405 42.1853 57.4037 42.4165 58.0187L37.2695 62.9825C37.0808 63.1651 37.0714 63.4679 37.2507 63.6601C37.345 63.761 37.4677 63.809 37.5903 63.809C37.7083 63.809 37.8262 63.7658 37.9159 63.6745L42.775 58.9702C43.0487 59.6477 43.3223 60.2772 43.5865 60.8778L37.6422 71.0698C37.5101 71.2956 37.5809 71.5935 37.8074 71.7281C37.8828 71.7761 37.9678 71.7954 38.048 71.7954C38.2084 71.7954 38.364 71.7137 38.4537 71.5599L44.0583 61.9446C44.6385 63.2709 45.1433 64.501 45.5019 65.9954C45.6906 66.7787 45.7 67.6388 45.5915 68.523C44.6291 69.042 40.954 71.2716 39.5246 75.6348C37.9442 80.464 38.1565 83.9815 38.1659 84.1304C38.1848 84.3803 38.3876 84.5773 38.6377 84.5773H55.5033C55.6401 84.5773 55.7628 84.5149 55.8477 84.4139C57.6781 84.7984 59.3246 84.9906 60.8107 84.9906C66.8304 84.9906 70.3781 81.9392 74.3881 76.5526C79.0775 70.2625 84.8849 71.4061 85.1302 71.459C85.267 71.4878 85.3991 71.4494 85.5029 71.3725L90.0932 74.0442C90.1687 74.0875 90.2489 74.1067 90.3291 74.1067C90.4942 74.1067 90.6499 74.0202 90.7395 73.8664C90.8763 73.6454 90.8009 73.3523 90.5744 73.2225ZM55.4467 82.266H48.323C46.9926 82.266 45.7283 81.7374 44.8461 80.81C44.4545 80.3968 44.1196 79.9403 43.846 79.4453C45.1622 80.0027 47.5069 80.6851 50.7856 80.4304C50.9272 80.4256 53.8333 80.3391 56.9328 78.4314C56.2157 79.9643 55.7392 81.3098 55.4467 82.266ZM50.1535 37.3946C52.0358 40.9889 54.5692 44.1892 54.5975 44.2229C54.6919 44.3382 54.8287 44.4007 54.9655 44.4007C55.0693 44.4007 55.1731 44.367 55.2627 44.2949C55.4656 44.1268 55.4986 43.824 55.3335 43.6174C55.3099 43.5886 52.8284 40.4555 50.9885 36.9429C49.5874 34.2664 47.1813 30.648 45.4641 28.3271C46.1246 28.4857 47.0917 28.9518 48.1485 30.2444C49.6298 32.0656 59.1029 44.4343 59.1972 44.5592C59.3576 44.7659 59.6548 44.8091 59.8577 44.6409C60.0653 44.4775 60.0983 44.1748 59.9426 43.9682C59.9426 43.9682 58.1216 41.58 56.8526 39.9174C56.1968 39.0572 56.6355 37.9808 56.9752 37.3946C58.8481 39.2686 61.4334 41.9788 61.8203 42.7332C62.0609 43.209 63.1318 46.8705 63.7592 49.1002C64.0092 51.8968 63.7356 53.9295 63.4903 55.7266C63.3771 56.5531 63.278 57.3268 63.2403 58.086C63.2403 58.0908 63.2403 58.0908 63.2403 58.0956C63.2025 58.975 63.2544 59.8255 63.5092 60.7049C64.1555 62.9393 68.0098 64.9575 69.996 65.8609C65.2311 67.6292 61.9146 70.7238 59.6407 73.8568L56.2534 70.2192L56.2487 70.2144L53.0218 66.7499C50.3327 64.1791 48.0966 60.8971 46.1859 56.7117C45.2565 54.6695 44.4545 52.1659 43.7516 49.9507C43.2704 48.4371 42.8128 47.0051 42.3552 45.8278C42.0014 44.9244 41.657 44.1171 41.3267 43.3339C40.5955 41.6136 39.9633 40.1288 39.5906 38.4325C39.3406 37.2889 39.5246 36.7747 39.6567 36.5729C39.7605 36.4095 39.8878 36.3567 39.9303 36.3423C41.3126 36.3423 42.525 39.2927 43.4119 41.4502C43.6384 42.0076 43.8554 42.5314 44.063 42.9783C45.1339 45.3137 46.8558 48.7494 46.87 48.783C46.9879 49.0185 47.271 49.1146 47.5069 48.9945C47.738 48.8743 47.8324 48.586 47.7144 48.3506C47.6956 48.3169 45.9878 44.8956 44.9216 42.5747C44.7234 42.1422 44.5111 41.628 44.2894 41.085C43.695 39.6387 43.0157 37.9856 42.1618 36.8372V36.8324C42.1523 36.818 41.4211 35.2755 40.3596 32.8008C39.7322 31.3448 39.7888 30.6048 39.9397 30.2396C40.0341 30.0137 40.2039 29.86 40.4492 29.7687C40.954 29.5861 41.756 30.2973 42.4967 31.5851C42.7232 31.9791 42.9968 32.4308 43.2987 32.9353C44.2328 34.497 45.5113 36.6306 46.7709 39.1245C48.4315 42.4065 50.3799 45.6212 50.3988 45.6548C50.4884 45.8038 50.6441 45.8855 50.7998 45.8855C50.8847 45.8855 50.9696 45.8614 51.0451 45.8134C51.2668 45.674 51.3376 45.3761 51.2008 45.1503C51.1819 45.1166 49.2571 41.9308 47.6107 38.6824C46.3322 36.1597 45.0442 34.0069 44.1054 32.4356C43.8035 31.9358 43.5346 31.4841 43.3129 31.0949C43.0581 30.6576 42.8128 30.2973 42.5722 30.0041C41.723 28.1829 41.6287 27.4477 41.756 26.8615C41.7843 26.727 41.9164 26.5155 42.1193 26.4579C42.4024 26.3762 42.8175 26.6068 43.2657 27.0873C44.5725 28.5001 48.2758 33.8051 50.1535 37.3946ZM40.1284 26.1023C40.2794 25.886 40.5436 25.6217 40.9399 25.5929C41.105 25.5833 41.2843 25.6169 41.473 25.689C41.1144 25.9245 40.888 26.3041 40.8172 26.6357C40.6804 27.2555 40.7465 27.9235 41.0578 28.8317C40.8597 28.7692 40.6757 28.75 40.5153 28.7596C40.1567 28.082 39.652 26.7798 40.1284 26.1023ZM37.8451 31.7484C37.4866 30.6096 37.2507 29.1584 38.1706 28.7163C38.7886 28.4184 39.2887 28.8076 39.5812 29.144C39.3547 29.3266 39.1708 29.5524 39.0481 29.8359C38.7131 30.6288 38.85 31.7196 39.468 33.1612C39.8548 34.0598 40.1945 34.8382 40.4775 35.4629C40.2605 35.3956 40.0388 35.3572 39.8029 35.3668C39.7652 35.3716 39.5057 35.4148 39.2321 35.6215C38.8358 34.5739 38.1612 32.7527 37.8451 31.7484ZM44.6197 60.8682C43.6384 58.6578 42.5297 56.1495 41.6806 51.9977C41.3739 50.4985 41.1522 49.3597 40.9729 48.4659C40.3171 45.1407 40.303 45.0878 39.2321 42.6035L39.133 42.368C38.1376 40.0471 37.8357 38.7353 37.8357 38.0001C37.8357 37.9808 37.8357 37.9616 37.8357 37.9424C37.8451 37.6108 37.9159 37.4042 38.0149 37.2745C38.114 37.1447 38.2933 37.0727 38.5292 37.0534C38.4867 37.5003 38.5292 38.0241 38.6565 38.6247C39.0481 40.4123 39.6944 41.9356 40.4445 43.6991C40.7748 44.4727 41.1144 45.2752 41.4635 46.1642C41.9117 47.3126 42.3599 48.7254 42.8411 50.2246C43.5535 52.4639 44.3649 55.001 45.3179 57.0913C47.2804 61.392 49.5874 64.7701 52.3472 67.4034L55.4325 70.719V76.3027C54.6541 76.74 51.8754 78.1095 48.3513 77.8211C46.1623 77.5761 44.4357 76.8072 43.6667 76.4084C44.2139 75.5338 45.3792 73.458 46.1057 70.7238C46.2708 70.1376 46.4029 69.5417 46.4926 68.9411C46.4926 68.9314 46.4973 68.9218 46.4973 68.9074C46.4973 68.9074 46.4973 68.9074 46.4973 68.9026C46.653 67.8166 46.6624 66.7402 46.4265 65.7552C45.9783 63.9388 45.3179 62.4444 44.6197 60.8682Z" fill="#13294A"/>
</g>
<defs>
<clipPath id="clip0">
<rect width="98" height="85" fill="white"/>
</clipPath>
</defs>
</svg>
