<svg width="149" height="71" viewBox="0 0 149 71" fill="none" xmlns="http://www.w3.org/2000/svg">
<path d="M148.707 16.2609C148.404 15.7311 147.897 15.3464 147.289 15.1902C143.93 14.3147 136.739 16.2888 130.048 18.6253C138.736 12.8592 142.264 6.61356 142.951 4.00375C143.266 2.79923 143.238 1.12628 142.112 0.367877C140.925 -0.435139 139.023 0.0890521 136.463 1.9293C131.297 5.63209 114.883 14.8891 113.667 15.575C110.978 16.2051 106.459 18.1402 98.4743 21.9712C87.9797 27.0012 88.9757 32.4662 90.3544 40.0224C90.7708 42.3032 91.2435 44.8851 91.4179 47.6956C92.1382 59.1275 76.8043 68.7636 76.6524 68.864C76.3879 69.0257 76.3091 69.3715 76.4723 69.6336C76.5792 69.8009 76.7649 69.8957 76.9506 69.8957C77.0519 69.8957 77.1532 69.8678 77.2489 69.812C77.412 69.7117 81.2947 67.2859 85.1493 63.3544C90.3037 58.0958 92.8584 52.6587 92.5433 47.6343C92.3633 44.7568 91.8849 42.1414 91.4629 39.8272C90.1237 32.4885 89.2346 27.6425 98.9638 22.9806C106.043 19.5845 111.096 17.326 113.938 16.6624C113.949 16.6624 113.954 16.6568 113.96 16.6568C114.934 16.4338 115.643 16.3892 116.087 16.562C116.307 16.6457 116.447 16.7851 116.537 17.0082C117.1 18.4023 111.777 23.9342 104.084 27.7429C104.079 27.7485 104.068 27.7485 104.056 27.7541C104.045 27.7596 104.039 27.7652 104.034 27.7708C103.511 28.0273 102.976 28.2783 102.436 28.518C101.783 28.3229 99.8867 27.9102 97.6809 28.8972C97.4051 29.0199 97.2813 29.3322 97.3883 29.611C97.4952 29.8899 97.8047 30.0293 98.0916 29.9345C98.8626 29.678 101.091 29.1593 102.16 29.7895C102.475 29.9735 102.65 30.2356 102.723 30.6204C103.117 32.7618 98.4461 33.9886 98.4011 33.9997C98.1141 34.0722 97.9341 34.3511 97.9847 34.641C98.0354 34.931 98.2942 35.1262 98.6037 35.0927C98.6487 35.0872 102.965 34.6522 103.353 36.5649C103.398 36.7768 103.347 36.9664 103.201 37.1784C102.312 38.4331 98.7106 39.2305 97.3939 39.4313C97.0956 39.4759 96.8874 39.7435 96.9212 40.0447C96.955 40.3402 97.2194 40.5633 97.5177 40.541C98.7162 40.4629 100.613 40.6135 101.068 41.1823C101.136 41.2659 101.192 41.3775 101.119 41.6172C100.731 42.9277 97.4783 44.2828 95.5201 44.8237C95.2443 44.9018 95.0755 45.1639 95.1149 45.4427C95.1543 45.7215 95.3794 45.9223 95.6889 45.9167C96.2459 45.9056 97.8103 46.0171 98.3674 46.7197C98.5812 46.993 98.6262 47.3499 98.4968 47.8072C97.8553 50.1381 94.3159 50.6735 94.2821 50.6791C94.0007 50.7181 93.7925 50.9635 93.7982 51.2423C93.8038 51.5267 94.0232 51.7553 94.3046 51.7832C94.721 51.8222 95.9139 52.0676 96.3923 52.7145C96.5836 52.9766 96.6455 53.2833 96.5667 53.6569C96.2572 55.1737 93.3986 55.999 92.3239 56.1886C92.0706 56.2333 91.8793 56.4452 91.8624 56.7017C91.8456 56.9582 92.0031 57.1924 92.2507 57.2705C92.2788 57.2761 94.8504 58.1348 94.5015 59.4397C94.4565 59.6126 94.3046 59.7409 94.0851 59.8412C94.0739 59.8468 94.0683 59.8468 94.057 59.8524C94.0401 59.858 94.0232 59.8636 94.0064 59.8691C93.9951 59.8747 93.9838 59.8747 93.9782 59.8803C93.016 60.2372 90.9565 60.0978 89.4203 59.7743C89.122 59.713 88.8182 59.9026 88.7507 60.2037C88.6831 60.5049 88.8801 60.8004 89.1839 60.8673C89.8536 61.0123 92.4083 61.4919 94.0964 61.0123C94.6816 61.5811 96.1672 63.1983 95.385 64.3471C94.6535 65.4233 90.9058 63.7838 88.6043 62.3339C88.3399 62.1666 87.9966 62.2447 87.8278 62.5068C87.659 62.7689 87.7378 63.1091 88.0022 63.2764C88.6156 63.6612 90.602 64.8601 92.5264 65.4568C92.0931 66.1204 91.5473 66.5163 90.8664 66.6613C88.6606 67.1297 85.8189 64.8378 85.7908 64.8155C85.5488 64.6203 85.1943 64.6538 84.9974 64.888C84.8004 65.1278 84.8342 65.4735 85.0705 65.6743C85.1887 65.7691 87.7434 67.838 90.2475 67.838C90.5344 67.838 90.8158 67.8101 91.0971 67.7487C91.159 67.7376 91.2209 67.7153 91.2828 67.6985C92.0931 68.3733 94.8279 70.4199 99.0145 70.9552C99.3802 70.9998 99.7179 71.0277 100.022 71.0277C101.091 71.0277 101.777 70.7377 102.109 70.141C102.498 69.444 102.228 68.5741 101.867 67.8826C102.07 67.9104 102.267 67.9327 102.475 67.9551C102.88 67.9997 103.257 68.0164 103.601 68.0164C105.03 68.0164 105.896 67.6483 106.228 66.8955C106.51 66.2654 106.302 65.4624 105.694 64.6147C106.318 64.6816 106.937 64.7151 107.556 64.7151C108.913 64.7151 110.229 64.5422 111.433 64.124C112.88 63.6221 113.628 62.9083 113.656 61.9994C113.69 61.0067 112.778 60.0141 111.63 59.1553C113.521 59.5624 115.569 59.8468 117.651 59.8468C119.266 59.8468 120.898 59.6795 122.485 59.2724C123.723 58.9546 124.365 58.4137 124.398 57.6608C124.438 56.8021 123.779 55.5195 118.794 53.0491C121.343 53.6067 124.038 54.0138 126.497 54.0138C128.529 54.0138 130.397 53.735 131.888 53.0379C133.329 52.3632 134.004 51.5378 133.897 50.5787C133.677 48.56 129.361 46.5246 124.635 44.8907C127.116 45.1639 129.919 45.3758 132.597 45.3758C137.149 45.3758 141.336 44.7568 142.94 42.7437C143.761 41.7176 143.649 40.8365 143.407 40.2789C142.439 38.0093 137.2 36.5203 132.591 35.6281C135.298 35.3939 138.173 34.8976 141.161 33.9942C143.654 33.2469 146.215 31.6074 145.95 29.7783C145.663 27.8098 142.332 26.6611 136.058 26.3432C136.362 26.2373 136.671 26.1257 136.986 26.0142C145.86 22.791 148.37 19.8689 148.91 17.9896C149.079 17.3874 149.006 16.7795 148.707 16.2609ZM113.369 23.0085C115.209 22.0103 132.501 12.5525 139.243 5.04098C139.451 4.81235 139.428 4.46103 139.198 4.2547C138.967 4.04837 138.612 4.07067 138.404 4.29931C133.379 9.89812 121.984 16.813 116.205 20.1366C117.381 18.6644 117.905 17.3985 117.578 16.5843C117.37 16.0713 117.004 15.7088 116.492 15.5136C116.402 15.4802 116.307 15.4523 116.205 15.4244C120.994 12.7031 132.85 5.89976 137.127 2.83269C140.036 0.747079 141.139 1.05936 141.482 1.288C142.079 1.69508 142.101 2.83269 141.865 3.72493C141.083 6.70836 136.362 14.666 123.824 20.9452C119.475 22.6516 116.183 24.1126 115.665 24.3412C113.662 24.6926 111.518 25.2669 109.61 25.8469C111.011 24.9101 112.278 23.9509 113.369 23.0085ZM103.82 30.4029C103.741 29.9847 103.578 29.6222 103.33 29.3211C103.736 29.137 104.141 28.9419 104.535 28.7467C110.179 26.5886 119.694 23.8505 121.45 25.635C121.754 25.9417 121.844 26.2484 121.737 26.622C121.332 28.0496 118.225 30.1743 112.773 32.2822C112.761 32.2878 112.75 32.2878 112.745 32.2933C110.241 33.2581 107.236 34.2228 103.775 35.1095C103.156 34.5016 102.233 34.1838 101.316 34.0332C102.74 33.286 104.13 32.0926 103.82 30.4029ZM100.798 39.7435C102.126 39.3086 103.488 38.6784 104.107 37.7973C104.428 37.3401 104.546 36.8326 104.439 36.3251C104.433 36.2917 104.416 36.2582 104.405 36.2248C109.475 35.84 117.139 35.8958 118.304 37.6468C118.422 37.8197 118.541 38.1208 118.231 38.6896C116.554 41.779 108.671 42.1526 103.792 41.9686C103.156 41.9184 102.605 41.8793 102.183 41.857C102.363 41.199 102.143 40.7306 101.918 40.4573C101.67 40.1339 101.265 39.9053 100.798 39.7435ZM97.9566 45.1416C99.2114 44.6397 100.697 43.8925 101.552 42.9556C102.008 42.9946 102.937 43.0616 104.141 43.095C110.769 43.6192 113.825 44.9297 114.196 45.7327C114.241 45.8275 114.354 46.0784 113.949 46.5803C112.739 48.0581 109.728 48.8555 105.249 48.8834C102.807 48.9002 100.551 48.6827 99.3971 48.5433C99.459 48.3927 99.5209 48.2421 99.5659 48.0804C99.8473 47.0655 99.5378 46.3907 99.2339 46.006C98.9076 45.5989 98.4461 45.3256 97.9566 45.1416ZM96.3304 51.2367C97.1519 50.9077 98.0691 50.3947 98.7444 49.6084C102.053 50.2162 107.179 51.6271 107.815 53.0714C107.872 53.2052 107.911 53.3781 107.742 53.6346C106.465 55.5808 100.506 54.8782 97.5289 54.2982C97.5852 54.1588 97.6358 54.0138 97.664 53.8632C97.8047 53.1829 97.6752 52.5528 97.2926 52.0397C97.0337 51.6884 96.6905 51.4319 96.3304 51.2367ZM94.0683 56.8634C94.9742 56.5623 96.0771 56.0715 96.8312 55.3187C98.2267 55.776 101.035 56.9136 101.592 58.1739C101.71 58.4415 101.704 58.6813 101.58 58.9379C100.742 60.6331 97.4727 60.4212 95.4356 60.042C95.4919 59.936 95.5482 59.8245 95.5819 59.6963C95.9139 58.4527 95.0699 57.4935 94.0683 56.8634ZM101.13 69.5722C101.001 69.8009 100.416 69.9849 99.1608 69.8232C95.8408 69.3938 93.4774 67.916 92.4195 67.1353C92.9091 66.7896 93.3199 66.31 93.6575 65.6966C93.9332 65.7412 94.1977 65.7691 94.4509 65.7691C94.5128 65.7691 94.5691 65.7635 94.6253 65.7635C95.1149 66.0033 97.3038 67.0238 100.382 67.6205C100.866 68.2506 101.344 69.193 101.13 69.5722ZM105.199 66.4215C105.064 66.7282 104.31 66.9959 102.593 66.8175C99.746 66.5219 97.3882 65.7077 96.0996 65.1835C96.1728 65.1055 96.2459 65.0274 96.3078 64.9326C97 63.9177 96.7411 62.8191 96.2347 61.9101C98.1254 62.7299 100.973 63.8006 103.972 64.3415C104.962 65.2505 105.351 66.0869 105.199 66.4215ZM112.536 61.938C112.52 62.4678 111.608 62.8637 111.068 63.0533C107.095 64.4307 101.569 62.8135 98.0129 61.425C98.0354 61.425 98.0579 61.425 98.0747 61.425C99.8585 61.425 101.727 61.0179 102.531 59.5234C103.73 60.2037 106.127 61.3134 107.984 61.754C108.029 61.7651 108.074 61.7707 108.114 61.7707C108.367 61.7707 108.597 61.5978 108.659 61.3413C108.732 61.0402 108.547 60.7391 108.243 60.6666C106.189 60.1758 103.522 58.8486 102.773 58.3691C102.751 58.1516 102.706 57.9397 102.616 57.7222C102.306 57.0251 101.603 56.4117 100.793 55.8931C101.406 55.9544 102.047 55.9935 102.689 56.0102C103.156 56.2444 104.76 57.0251 107.022 57.817C109.391 58.8542 112.576 60.7669 112.536 61.938ZM123.279 57.5828C123.273 57.6999 123.042 57.9508 122.204 58.1683C115.93 59.7799 108.659 57.343 105.171 55.9042C106.712 55.7035 108.04 55.2183 108.682 54.2369C108.749 54.1365 108.794 54.0361 108.834 53.9357C110.364 54.577 114.258 56.1719 116.982 56.8801C117.032 56.8913 117.077 56.8969 117.128 56.8969C117.376 56.8969 117.606 56.7296 117.674 56.4842C117.753 56.1886 117.573 55.8819 117.274 55.8039C114.382 55.0455 109.954 53.1941 108.884 52.7424C108.868 52.7033 108.868 52.6643 108.851 52.6197C108.384 51.5546 106.65 50.6735 104.737 49.9987C104.805 49.9987 104.867 49.9987 104.934 49.9987C106.043 49.9987 107.202 49.9485 108.333 49.8314C108.631 49.9485 109.402 50.2497 110.505 50.6344C118.507 53.6959 123.324 56.5511 123.279 57.5828ZM132.783 50.6735C132.839 51.2144 132.068 51.694 131.41 52.0063C126.126 54.4822 115.057 51.0527 110.578 49.469C112.373 49.0619 113.921 48.3815 114.827 47.283C114.905 47.1882 114.973 47.0878 115.035 46.9986C120.606 48.9448 123.914 49.982 127.319 50.5564C127.353 50.562 127.381 50.562 127.414 50.562C127.685 50.562 127.921 50.3723 127.966 50.0991C128.017 49.798 127.814 49.508 127.504 49.4578C124.173 48.8946 120.898 47.8629 115.372 45.9335C115.372 45.6769 115.311 45.4539 115.226 45.2754C114.77 44.2828 113.24 43.5021 110.573 42.9054C111.253 42.8329 111.929 42.7437 112.593 42.6322C113.932 42.9389 115.412 43.3069 116.942 43.7196C116.971 43.7307 116.999 43.7475 117.027 43.753C117.055 43.7586 117.111 43.7698 117.179 43.7809C124.359 45.7271 132.552 48.5934 132.783 50.6735ZM142.377 40.6915C142.489 40.9536 142.579 41.3775 142.062 42.0299C139.057 45.7996 123.577 43.8367 117.505 42.7047C116.582 42.4593 115.738 42.2418 115.001 42.0578C116.92 41.4667 118.501 40.5744 119.233 39.2194C119.238 39.2026 119.244 39.1915 119.25 39.1803C121.045 39.6376 127.651 41.1823 134.876 41.1823C134.91 41.1823 134.938 41.1823 134.972 41.1823C135.281 41.1823 135.534 40.9313 135.534 40.6246C135.534 40.3179 135.281 40.067 134.972 40.067C134.932 40.0726 134.91 40.067 134.876 40.067C127.803 40.067 121.326 38.5557 119.559 38.1041C119.57 37.6524 119.424 37.2899 119.255 37.0334C118.36 35.6839 115.491 34.9979 110.494 34.9254C109.83 34.9143 109.171 34.9199 108.541 34.931C110.224 34.4124 111.737 33.8938 113.093 33.3752C113.448 33.4254 114.095 33.5927 114.889 33.799C117.061 34.3566 120.69 35.2935 125.259 35.6392C125.265 35.6392 125.271 35.6448 125.282 35.6448C129.62 36.0909 141.167 37.8531 142.377 40.6915ZM144.842 29.9177C144.982 30.8602 143.187 32.2041 140.841 32.9067C129.316 36.3753 119.401 33.8157 115.17 32.7227C115.074 32.7004 114.984 32.6725 114.894 32.6502C115.536 32.377 116.132 32.1093 116.689 31.8416C117.494 31.9253 120.758 32.2264 125.203 32.2264C129.39 32.2264 134.623 31.9587 139.828 30.9773C140.132 30.9215 140.334 30.626 140.278 30.3248C140.222 30.0237 139.929 29.8229 139.62 29.8787C130.993 31.5015 122.277 31.1446 118.535 30.8713C119.047 30.5814 119.508 30.2914 119.925 30.0125C120.786 29.9791 125.417 29.6891 132.963 27.3414C143.919 27.4362 144.78 29.4995 144.842 29.9177ZM147.83 17.6606C147.447 18.999 145.477 21.7203 136.598 24.9435C129.356 27.5756 124.094 28.4623 121.523 28.7578C122.249 28.0775 122.671 27.4585 122.817 26.9232C122.885 26.689 122.907 26.4659 122.896 26.2428C125.445 25.5513 137.087 22.3337 143.277 19.7016C143.564 19.5789 143.694 19.2499 143.575 18.9711C143.452 18.6867 143.12 18.5584 142.838 18.6811C136.649 21.3076 124.899 24.5476 122.525 25.1889C122.446 25.0773 122.356 24.9658 122.254 24.8599C121.731 24.3301 120.836 24.068 119.722 24.0011C121.281 23.3654 122.755 22.7073 124.128 22.027C131.826 19.0045 142.85 15.1902 147.002 16.2721C147.317 16.3557 147.571 16.5453 147.728 16.813C147.88 17.0695 147.914 17.3706 147.83 17.6606Z" fill="#13294A"/>
<path d="M72.3534 68.8589C72.1958 68.7641 56.8676 59.1224 57.5878 47.6905C57.7623 44.88 58.235 42.2925 58.6514 40.0173C60.03 32.4611 61.026 26.9962 50.5315 21.9661C42.5466 18.1351 38.028 16.2056 35.3383 15.5755C34.1285 14.8951 17.7086 5.63816 12.5373 1.92979C9.97132 0.0895404 8.07499 -0.434651 6.88767 0.368365C5.76225 1.13235 5.73411 2.8053 6.04923 4.00424C6.08862 4.16596 7.12963 7.96356 11.9239 12.8932C13.9272 14.9565 16.2343 16.8525 18.8284 18.5812C12.1771 16.2614 5.04761 14.3208 1.71074 15.1907C1.10301 15.3468 0.602197 15.7316 0.292706 16.2614C-0.0055302 16.78 -0.0786825 17.3878 0.0901305 17.9622C0.630332 19.8415 3.14002 22.7636 12.014 25.9868C12.3291 26.0983 12.6386 26.2099 12.9424 26.3158C6.66258 26.6281 3.33697 27.7824 3.04999 29.7509C2.77988 31.58 5.34584 33.2195 7.83302 33.9668C10.821 34.8646 13.6965 35.3665 16.3975 35.6007C11.7889 36.4929 6.55567 37.9819 5.58781 40.2515C5.35147 40.8091 5.23893 41.6902 6.05486 42.7163C7.65858 44.7294 11.8451 45.3484 16.3975 45.3484C19.1154 45.3484 21.9627 45.1254 24.4724 44.8521C16.3637 47.618 15.2214 49.4193 15.0976 50.5569C14.9907 51.516 15.6716 52.3413 17.1065 53.0161C18.592 53.7132 20.4602 53.992 22.4972 53.992C24.9563 53.992 27.6517 53.5849 30.2007 53.0273C25.2151 55.4976 24.5568 56.7858 24.5962 57.639C24.6299 58.3918 25.277 58.9328 26.5094 59.2506C28.0962 59.6577 29.7281 59.825 31.343 59.825C33.4251 59.825 35.4733 59.5462 37.364 59.1335C36.2161 59.9923 35.2989 60.9849 35.3383 61.9775C35.3721 62.8865 36.1205 63.6003 37.561 64.1022C38.7652 64.5204 40.0819 64.6933 41.4381 64.6933C42.0514 64.6933 42.676 64.6543 43.3006 64.5929C42.6929 65.4405 42.4903 66.2436 42.7661 66.8737C43.0981 67.6265 43.9646 67.9946 45.3939 67.9946C45.7372 67.9946 46.1086 67.9723 46.5193 67.9332C46.7275 67.9109 46.9245 67.883 47.1271 67.8607C46.7669 68.5522 46.4968 69.4222 46.8851 70.1192C47.2171 70.7103 47.9036 71.0059 48.9728 71.0059C49.2766 71.0059 49.6142 70.9836 49.98 70.9334C54.1666 70.3925 56.907 68.3515 57.7116 67.6767C57.7735 67.6935 57.8354 67.7158 57.903 67.7269C58.1843 67.7882 58.4657 67.8161 58.7527 67.8161C61.2567 67.8161 63.8058 65.7473 63.9296 65.6525C64.1659 65.4573 64.1997 65.1059 64.0027 64.8662C63.8058 64.632 63.4513 64.5929 63.2093 64.7937C63.1812 64.816 60.3451 67.1135 58.1337 66.6395C57.4528 66.4945 56.907 66.093 56.4737 65.435C58.3981 64.8383 60.3845 63.6393 60.9979 63.2546C61.2623 63.0873 61.3355 62.7471 61.1723 62.485C61.0035 62.2229 60.6602 62.1504 60.3958 62.3121C58.0999 63.762 54.3523 65.4015 53.6151 64.3252C52.8386 63.1821 54.3241 61.5593 54.9037 60.9961C56.5918 61.4812 59.1409 60.9961 59.8162 60.8511C60.12 60.7842 60.3114 60.4886 60.2495 60.1875C60.1819 59.8863 59.8837 59.6912 59.5798 59.7581C58.0436 60.0871 55.9785 60.2265 55.0219 59.864C55.0163 59.8585 55.0106 59.8585 55.005 59.8585C54.9881 59.8529 54.9656 59.8417 54.9487 59.8362C54.9375 59.8306 54.9319 59.8306 54.9262 59.825C54.7068 59.7246 54.5548 59.5908 54.5098 59.4235C54.1609 58.1242 56.7325 57.2654 56.7607 57.2542C57.0083 57.1762 57.1658 56.942 57.1489 56.6854C57.132 56.4289 56.9407 56.217 56.6875 56.1724C55.6127 55.9828 52.7542 55.1575 52.4447 53.6407C52.3659 53.267 52.4278 52.9603 52.6191 52.7038C53.0974 52.0625 54.2904 51.8172 54.7124 51.7725C54.9938 51.7447 55.2132 51.5104 55.2188 51.2316C55.2245 50.9528 55.0163 50.7074 54.7349 50.6684C54.7011 50.6628 51.1617 50.1386 50.5202 47.7965C50.3908 47.3336 50.4358 46.9768 50.6496 46.7091C51.2067 46.0064 52.771 45.8949 53.3281 45.9061C53.5982 45.9116 53.8571 45.7109 53.9021 45.4321C53.9471 45.1532 53.7727 44.8856 53.4969 44.8131C51.5387 44.2721 48.2862 42.9226 47.898 41.6066C47.8248 41.3668 47.8811 41.2497 47.9486 41.1716C48.41 40.6028 50.3007 40.4522 51.4993 40.5303C51.8032 40.5526 52.062 40.3296 52.0958 40.034C52.1296 39.7385 51.9214 39.4652 51.6231 39.4206C50.312 39.2198 46.705 38.428 45.8159 37.1677C45.6696 36.9614 45.619 36.7662 45.664 36.5543C46.0467 34.6415 50.3683 35.0765 50.4133 35.0821C50.7172 35.1155 50.976 34.9148 51.0323 34.6304C51.0829 34.3404 50.9028 34.0616 50.6159 33.9891C50.5708 33.9779 45.9004 32.7511 46.2943 30.6097C46.3618 30.2305 46.5418 29.9629 46.857 29.7788C47.9261 29.1487 50.1601 29.6729 50.931 29.9238C51.218 30.0186 51.5218 29.8736 51.6344 29.5948C51.7413 29.316 51.6119 29.0037 51.3418 28.8866C49.1303 27.8995 47.2396 28.3122 46.5869 28.5074C46.041 28.2676 45.5121 28.0166 44.9888 27.7601C44.9775 27.7546 44.9719 27.749 44.9663 27.7434C44.9606 27.7434 44.9494 27.7378 44.9381 27.7322C37.229 23.9235 31.9058 18.3916 32.4685 16.9975C32.5585 16.7744 32.6992 16.635 32.9186 16.5514C33.3575 16.3841 34.0722 16.4231 35.0401 16.6462C35.0513 16.6462 35.0626 16.6517 35.0738 16.6517C37.9155 17.3153 42.963 19.5738 50.0475 22.9699C59.7712 27.6319 58.8877 32.4779 57.5485 39.8165C57.1264 42.1252 56.6481 44.7462 56.4681 47.6236C56.1529 52.6536 58.7076 58.0907 63.8621 63.3438C67.7166 67.2808 71.5993 69.701 71.7625 69.8014C71.8582 69.8571 71.9595 69.885 72.0607 69.885C72.2464 69.885 72.4321 69.7902 72.5391 69.6229C72.6966 69.3664 72.6178 69.0262 72.3534 68.8589ZM1.17053 17.6611C1.08613 17.3711 1.12552 17.07 1.27182 16.8135C1.42375 16.5458 1.6826 16.3506 1.99772 16.2725C6.12238 15.2019 16.9939 18.9493 24.6806 21.955C26.138 22.6799 27.6742 23.3603 29.2666 24.0071C28.1581 24.0741 27.269 24.3306 26.7457 24.8604C26.6388 24.9663 26.5544 25.0778 26.4756 25.1894C24.101 24.5481 12.3516 21.3081 6.16177 18.6816C5.88042 18.5589 5.54842 18.6927 5.42462 18.9716C5.30083 19.256 5.43588 19.585 5.72286 19.7021C11.9127 22.3342 23.5608 25.5518 26.1042 26.2433C26.093 26.4664 26.1155 26.695 26.183 26.9237C26.3349 27.4534 26.757 28.078 27.4772 28.7583C24.9056 28.4628 19.6443 27.5761 12.4022 24.944C3.52266 21.7208 1.55318 18.9939 1.17053 17.6611ZM4.15852 29.9182C4.22042 29.5056 5.08137 27.4367 16.043 27.353C23.5889 29.7008 28.22 29.9907 29.081 30.0242C29.4974 30.303 29.9588 30.593 30.4708 30.883C26.7288 31.1562 18.0124 31.5075 9.3861 29.8904C9.07661 29.8346 8.784 30.0298 8.72773 30.3365C8.67146 30.6376 8.86841 30.9332 9.1779 30.9889C14.383 31.9648 19.6105 32.2381 23.8027 32.2381C28.2481 32.2381 31.5175 31.9369 32.3165 31.8533C32.8736 32.121 33.4701 32.3942 34.1116 32.6619C34.0215 32.6842 33.9315 32.7065 33.8359 32.7344C29.6043 33.8274 19.6893 36.387 8.16502 32.9184C5.81852 32.2046 4.02347 30.8607 4.15852 29.9182ZM6.93831 42.0304C6.42062 41.3835 6.51065 40.9541 6.62319 40.692C7.83302 37.8536 19.3742 36.0858 23.724 35.6453C23.7296 35.6453 23.7352 35.6397 23.7408 35.6397C28.31 35.294 31.9451 34.3571 34.1116 33.7995C34.905 33.5932 35.5521 33.4259 35.9066 33.3757C37.2628 33.8943 38.7764 34.4129 40.459 34.9315C39.8287 34.9204 39.1703 34.9204 38.512 34.9259C33.5151 34.9984 30.6453 35.6843 29.7506 37.0339C29.5818 37.2904 29.4355 37.6473 29.4467 38.1045C27.6798 38.5562 21.203 40.0675 14.1297 40.0675C14.096 40.0675 14.0678 40.0619 14.0341 40.0675C13.7246 40.0675 13.4714 40.3184 13.4714 40.6251C13.4714 40.9318 13.7246 41.1828 14.0341 41.1828C14.0678 41.1828 14.096 41.1828 14.1297 41.1828C21.3549 41.1828 27.9612 39.6381 29.7506 39.1808C29.7562 39.1975 29.7618 39.2087 29.7675 39.2198C30.5046 40.5749 32.0914 41.4727 34.0215 42.0639C33.3688 42.2312 32.6035 42.4263 31.7595 42.655C25.8848 43.7814 9.9882 45.8503 6.93831 42.0304ZM17.5904 52.0068C16.932 51.7 16.1611 51.2149 16.2174 50.674C16.4425 48.5939 24.6355 45.722 31.827 43.7814C31.8945 43.7703 31.9508 43.7591 31.9789 43.7535C32.0127 43.748 32.0352 43.7312 32.0633 43.7201C33.5939 43.3074 35.0738 42.9394 36.4131 42.6327C37.0771 42.7498 37.7523 42.839 38.4332 42.9059C35.7659 43.5026 34.2297 44.2833 33.7796 45.2759C33.6952 45.4544 33.6389 45.6774 33.6333 45.9339C28.1018 47.8634 24.8325 48.8951 21.5012 49.4583C21.1974 49.5085 20.9892 49.7985 21.0398 50.0996C21.0848 50.3728 21.3268 50.5624 21.5913 50.5624C21.625 50.5624 21.6532 50.5624 21.6869 50.5569C25.0913 49.9825 28.4001 48.9453 33.9709 46.9991C34.0328 47.0939 34.1003 47.1887 34.1791 47.2835C35.0851 48.3876 36.6325 49.0679 38.4276 49.4694C33.9428 51.0476 22.8799 54.4883 17.5904 52.0068ZM26.7964 58.1688C25.9579 57.9513 25.7272 57.7004 25.7216 57.5833C25.6709 56.5516 30.4877 53.6964 38.5007 50.6349C39.6036 50.2502 40.3745 49.949 40.6784 49.8319C41.8095 49.9546 42.963 49.9992 44.0772 49.9992C44.1447 49.9992 44.2066 49.9992 44.2741 49.9992C42.3609 50.674 40.6278 51.5551 40.1607 52.6202C40.1438 52.6592 40.1382 52.6982 40.1269 52.7429C39.0578 53.1945 34.6293 55.0459 31.7369 55.8044C31.4387 55.8824 31.2586 56.1891 31.3374 56.4847C31.4049 56.7356 31.63 56.8973 31.8832 56.8973C31.9283 56.8973 31.9789 56.8918 32.0296 56.8806C34.7474 56.1668 38.647 54.5775 40.1776 53.9362C40.2226 54.0366 40.2676 54.137 40.3295 54.2374C40.9766 55.2188 42.299 55.704 43.8408 55.9047C40.3464 57.3435 33.0762 59.7804 26.7964 58.1688ZM37.938 63.0482C37.3978 62.8586 36.4862 62.4683 36.4693 61.9329C36.4299 60.7619 39.6149 58.8491 41.9783 57.8175C44.2404 57.0256 45.8441 56.2449 46.3055 56.0107C46.947 55.994 47.5885 55.9493 48.2018 55.8936C47.3915 56.4066 46.6938 57.0256 46.3787 57.7227C46.283 57.9346 46.238 58.1521 46.2211 58.3695C45.4727 58.8491 42.8055 60.1763 40.7516 60.6671C40.4477 60.7396 40.262 61.0407 40.3352 61.3418C40.3971 61.5983 40.6278 61.7712 40.881 61.7712C40.926 61.7712 40.971 61.7656 41.0104 61.7545C42.873 61.3139 45.2701 60.2042 46.4631 59.5239C47.2677 61.0184 49.1359 61.4255 50.9197 61.4255C50.9422 61.4255 50.9647 61.4255 50.9873 61.4255C47.4366 62.8084 41.9107 64.4256 37.938 63.0482ZM46.4012 66.8235C44.6905 67.002 43.9365 66.7343 43.7958 66.4276C43.6439 66.0874 44.0322 65.2565 45.0225 64.3475C48.0218 63.8066 50.8691 62.7359 52.7598 61.9162C52.259 62.8252 51.9945 63.9237 52.6866 64.9387C52.7485 65.0335 52.8217 65.1115 52.9005 65.1896C51.6119 65.7138 49.2541 66.528 46.4012 66.8235ZM56.5806 67.1358C55.534 67.9165 53.1706 69.3943 49.8393 69.8181C48.5845 69.9798 47.9993 69.7958 47.8698 69.5672C47.656 69.1935 48.1343 68.2455 48.6126 67.6154C51.6906 67.0187 53.8852 65.9982 54.3691 65.7584C54.4254 65.7584 54.4817 65.764 54.5436 65.764C54.7968 65.764 55.0613 65.7361 55.337 65.6915C55.6803 66.3105 56.091 66.7901 56.5806 67.1358ZM54.9375 56.8639C53.9359 57.4885 53.0862 58.4476 53.4238 59.6968C53.4576 59.825 53.5082 59.9365 53.5701 60.0425C51.5387 60.4217 48.2637 60.6392 47.4253 58.9383C47.3015 58.6818 47.2959 58.4365 47.414 58.1744C47.9711 56.9141 50.7847 55.7765 52.1746 55.3192C52.9286 56.0776 54.0259 56.5683 54.9375 56.8639ZM52.6698 51.2372C52.3096 51.4324 51.9664 51.6889 51.7132 52.0346C51.3305 52.5477 51.2011 53.1778 51.3418 53.8582C51.3755 54.0087 51.4205 54.1537 51.4768 54.2931C48.5001 54.8675 42.541 55.5701 41.2636 53.6295C41.0948 53.373 41.1342 53.2001 41.1905 53.0663C41.8207 51.622 46.9526 50.2111 50.2614 49.6033C50.931 50.3896 51.8482 50.9082 52.6698 51.2372ZM51.0435 45.1421C50.554 45.3261 50.0925 45.5994 49.7662 46.0064C49.4623 46.3912 49.1528 47.066 49.4342 48.0809C49.4792 48.2426 49.5411 48.3932 49.603 48.5438C48.4494 48.6776 46.193 48.8951 43.7508 48.8783C39.266 48.8449 36.2611 48.053 35.0513 46.5752C34.6405 46.0789 34.7587 45.8224 34.8037 45.7276C35.1695 44.9246 38.2306 43.6141 44.8593 43.0899C46.0635 43.0509 46.992 42.984 47.4478 42.9505C48.3031 43.8929 49.7887 44.6402 51.0435 45.1421ZM48.2018 39.744C47.7404 39.9057 47.3296 40.1344 47.0652 40.4634C46.8457 40.7366 46.6263 41.2051 46.8007 41.8631C46.3843 41.8854 45.8328 41.9244 45.1913 41.9746C40.3126 42.1587 32.4347 41.7795 30.7578 38.6956C30.4483 38.1268 30.5665 37.8313 30.6847 37.6528C31.8495 35.9018 39.5192 35.8461 44.5836 36.2308C44.5724 36.2643 44.5611 36.2922 44.5499 36.3312C44.4486 36.8387 44.5611 37.3461 44.8819 37.8034C45.5121 38.6789 46.8738 39.3091 48.2018 39.744ZM47.6785 34.0393C46.7669 34.1898 45.8385 34.5021 45.2195 35.1155C34.2072 32.2827 27.8542 28.7137 27.2634 26.6281C27.1565 26.2545 27.2465 25.9533 27.5504 25.6411C29.306 23.8622 38.8215 26.5946 44.4654 28.7527C44.865 28.9479 45.2645 29.1375 45.6696 29.3271C45.4221 29.6283 45.2532 29.9907 45.1801 30.409C44.8706 32.0931 46.2605 33.2864 47.6785 34.0393ZM32.5135 15.5141C32.0014 15.7093 31.6357 16.0718 31.4275 16.5848C31.1011 17.3934 31.6244 18.6593 32.8005 20.1371C27.0158 16.8135 15.6209 9.89303 10.6016 4.29422C10.3934 4.06558 10.0388 4.04328 9.80813 4.24961C9.57742 4.45594 9.55491 4.80726 9.76312 5.0359C16.5044 12.5474 33.7965 22.0108 35.6365 23.0034C36.7282 23.9458 37.9943 24.9105 39.4011 25.8418C37.4935 25.2619 35.3495 24.6875 33.3463 24.3362C32.8342 24.1075 29.5367 22.6465 25.187 20.9401C12.6386 14.6609 7.92305 6.70327 7.13526 3.71984C6.89892 2.83318 6.92143 1.69 7.5179 1.28291C7.85553 1.05427 8.96407 0.741991 11.8733 2.8276C16.1555 5.90025 28.0062 12.698 32.7948 15.4193C32.6992 15.4472 32.6035 15.4751 32.5135 15.5141Z" fill="#13294A"/>
</svg>
