<?xml version="1.0" standalone="no"?>
<!DOCTYPE svg PUBLIC "-//W3C//DTD SVG 1.1//EN" "http://www.w3.org/Graphics/SVG/1.1/DTD/svg11.dtd" >
<svg xmlns="http://www.w3.org/2000/svg" xmlns:xlink="http://www.w3.org/1999/xlink" version="1.1">
<metadata>
Created by FontForge 20170731 at Mon Sep 19 20:03:29 1994
 By Aleksey,,,
Copyright (c) 1994 Miles Inc. All rights reserved.
</metadata>
<defs>
<font id="AmericanClassic" horiz-adv-x="2048" >
  <font-face 
    font-family="American Classic"
    font-weight="400"
    font-stretch="normal"
    units-per-em="2048"
    panose-1="2 2 5 4 7 5 6 2 9 4"
    ascent="1638"
    descent="-410"
    x-height="1063"
    cap-height="1329"
    bbox="-330 -643.49 2324 1944.66"
    underline-thickness="102"
    underline-position="-409"
    unicode-range="U+0020-F002"
  />
<missing-glyph horiz-adv-x="1024" 
d="M128 0v1536h768v-1536h-768zM256 128h512v1280h-512v-1280z" />
    <glyph glyph-name=".notdef" horiz-adv-x="1024" 
d="M128 0v1536h768v-1536h-768zM256 128h512v1280h-512v-1280z" />
    <glyph glyph-name=".null" horiz-adv-x="0" 
 />
    <glyph glyph-name="nonmarkingreturn" horiz-adv-x="680" 
 />
    <glyph glyph-name="space" unicode=" " horiz-adv-x="680" 
 />
    <glyph glyph-name="exclam" unicode="!" horiz-adv-x="680" 
d="M358 274h-36q0 220 -37 514.5t-37 331.5q0 248 92 248q94 0 94 -248q0 -91 -24 -249q-29 -182 -35 -291q-17 -274 -17 -306zM338 -39q-37 0 -63.5 26t-26.5 64t26 66t64 28q40 0 68 -27.5t28 -66.5q0 -38 -28.5 -64t-67.5 -26z" />
    <glyph glyph-name="quotedbl" unicode="&#x22;" horiz-adv-x="680" 
d="M182 903q-7 158 -41 289q-20 79 -20 100q0 76 80 76t80 -74q0 -28 -19 -102q-36 -148 -43 -289h-37zM457 903q-10 160 -43 289q-21 79 -21 100q0 76 82 76q80 0 80 -74q0 -23 -20 -102q-34 -131 -41 -289h-37z" />
    <glyph glyph-name="numbersign" unicode="#" horiz-adv-x="1360" 
d="M377 379h-299l16 61h299l103 377h-299l16 60h299l109 405h65l-108 -405h344l110 405h64l-111 -405h295l-16 -60h-295l-101 -377h293l-16 -61h-295l-113 -418h-63l114 418h-346l-112 -418h-68zM905 817h-344l-102 -377h346z" />
    <glyph glyph-name="dollar" unicode="$" horiz-adv-x="1360" 
d="M588 31q-93 0 -241 43q-134 40 -171 67q22 59 64 191l26 -10q18 -97 113 -165q114 -81 295 -81q155 0 254 80q92 75 92 178q0 117 -106 172q-73 37 -238 57q-426 52 -426 307q0 168 159 264q120 72 269 78v189h51v-189q219 -12 381 -84q-25 -69 -45 -149h-23
q-27 67 -109 119q-105 67 -249 67q-140 0 -220 -71q-71 -62 -71 -152q0 -190 285 -229q244 -34 333 -74q165 -72 165 -236q0 -175 -178 -282q-126 -76 -269 -90v-197h-51v197h-90z" />
    <glyph glyph-name="percent" unicode="%" horiz-adv-x="1776" 
d="M436 555q-148 0 -242 99q-98 103 -98 278q0 155 101 254q98 96 241 96q140 0 236 -95q104 -103 104 -269q0 -165 -100 -266q-96 -97 -242 -97zM545 -39h-88l780 1321h90zM1341 -39q-117 0 -202 61q-138 100 -138 336q0 138 98 234t247 96q137 0 231 -92
q104 -102 104 -277q0 -159 -97.5 -258.5t-242.5 -99.5zM639 915q0 134 -26 201q-47 121 -183 121q-101 0 -152 -85q-45 -73 -45 -194q0 -196 42 -275q44 -83 157 -83q207 0 207 315zM1542 317q0 144 -25 210q-43 116 -174 116q-204 0 -204 -285q0 -185 42 -263
q48 -87 169 -87q192 0 192 309z" />
    <glyph glyph-name="ampersand" unicode="&#x26;" horiz-adv-x="1511" 
d="M166 305q0 138 126 267q89 92 185 137q-112 154 -112 311q0 136 81 235q94 113 252 113q125 0 202 -70t77 -174q0 -251 -332 -383q226 -249 481 -483q56 104 56 197q0 110 -49 159q-25 25 -101 52v32q49 -2 146 -2l141 6q0 -239 -154 -477q108 -100 144 -124
q70 -47 186 -76v-29q-94 4 -139 4q-47 0 -146 -4l-137 117q-201 -158 -442 -158q-215 0 -346 111q-119 101 -119 239zM709 18q181 0 327 129q-364 351 -532 529q-172 -118 -172 -289q0 -127 83 -233q105 -136 294 -136zM668 1319q-79 0 -138 -58q-63 -63 -63 -159
q0 -147 145 -324q106 52 155 104q79 86 79 220q0 109 -61 168q-50 49 -117 49z" />
    <glyph glyph-name="quotesingle" unicode="'" horiz-adv-x="418" 
d="M188 903q-9 160 -43 289q-20 79 -20 100q0 76 82 76q80 0 80 -74q0 -23 -21 -102q-34 -131 -41 -289h-37z" />
    <glyph glyph-name="parenleft" unicode="(" horiz-adv-x="680" 
d="M545 1368h53q-116 -191 -165 -345q-71 -220 -71 -517q0 -315 74 -538q50 -152 162 -322h-53q-316 448 -316 829q0 439 316 893z" />
    <glyph glyph-name="parenright" unicode=")" horiz-adv-x="680" 
d="M317 483q0 325 -65 538q-49 158 -172 347h55q140 -218 206 -367q110 -247 110 -469q0 -465 -316 -884h-55q124 189 172 333q65 200 65 502z" />
    <glyph glyph-name="asterisk" unicode="*" horiz-adv-x="1360" 
d="M629 997q-108 34 -267 54l37 108q132 -65 159.5 -77t92.5 -31q0 132 -26 272h108q-24 -167 -24 -272q99 30 256 108l32 -106q-85 -13 -274 -56q113 -141 195 -213l-91 -63q-64 118 -73 134q-17 27 -80 106q-73 -110 -144 -240l-88 63q88 79 187 213z" />
    <glyph glyph-name="plus" unicode="+" horiz-adv-x="2040" 
d="M512 410v110h451v455h110v-455h453v-110h-453v-455h-110v455h-451z" />
    <glyph glyph-name="comma" unicode="," horiz-adv-x="680" 
d="M303 -252l-33 25q52 76 65 109q11 27 11 69q0 10 -22 15q-30 8 -48 26q-28 28 -28 76q0 84 88 84q100 0 100 -127q0 -135 -133 -277z" />
    <glyph glyph-name="hyphen" unicode="-" horiz-adv-x="680" 
d="M580 485h-514l32 93h516z" />
    <glyph glyph-name="period" unicode="." horiz-adv-x="680" 
d="M342 -39q-40 0 -68 28t-28 68q0 38 28.5 65.5t67.5 27.5q38 0 65 -27t27 -66q0 -40 -27 -68t-65 -28z" />
    <glyph glyph-name="slash" unicode="/" horiz-adv-x="682" 
d="M553 1419h86l-512 -1509h-88z" />
    <glyph glyph-name="zero" unicode="0" horiz-adv-x="1397" 
d="M694 -39q-185 0 -341 101q-273 176 -273 600q0 229 158 411q180 209 471 209q250 0 426 -184q182 -190 182 -475q0 -293 -177.5 -477.5t-445.5 -184.5zM1126 602q0 637 -434 637q-215 0 -323 -164q-97 -145 -97 -401q0 -292 54 -428q95 -240 376 -240q424 0 424 596z" />
    <glyph glyph-name="one" unicode="1" horiz-adv-x="604" 
d="M106 -4v29q92 12 112 72q22 67 22 356v573q0 84 -27 113q-23 26 -90 32v29q148 38 256 82v-793q0 -290 31 -373q27 -72 127 -91v-29q-144 4 -213 4q-74 0 -218 -4z" />
    <glyph glyph-name="two" unicode="2" horiz-adv-x="1284" 
d="M567 0q-168 0 -504 -4q67 234 287 378q182 102 365 205q180 125 180 336q0 150 -89 235q-92 87 -257 87q-162 0 -271 -74q-86 -58 -104 -127l-27 -10l-43 150q117 57 190 77q103 29 243 29q278 0 422 -124q122 -106 122 -273q0 -149 -112 -252q-81 -73 -244 -139
q-118 -47 -236 -95q-224 -115 -276 -266h512q150 0 234 39q62 30 131 109l24 -7q-32 -88 -90 -278q-303 4 -457 4z" />
    <glyph glyph-name="three" unicode="3" horiz-adv-x="1321" 
d="M598 -39q-335 0 -547 133l60 195l22 -8q23 -102 122 -177q125 -96 323 -96q162 0 279 88q122 92 122 234q0 148 -110.5 233.5t-301.5 85.5q-20 0 -55 -4q-41 -5 -55 -6v68q82 -11 98 -11q183 0 280 76.5t97 214.5q0 106 -80 173q-90 77 -256 77q-164 0 -270 -81
q-78 -59 -107 -142h-29l-45 160q118 60 195 81q103 27 260 27q223 0 358 -65q156 -76 156 -226q0 -228 -414 -321q488 -77 488 -340q0 -173 -181 -275q-166 -94 -409 -94z" />
    <glyph glyph-name="four" unicode="4" horiz-adv-x="1360" 
d="M735 322h-698l20 71q232 244 404 434q96 107 428 482l6 -903q180 0 258 38q49 25 107 117l22 -12l-70 -232q-94 5 -139 5h-170q7 -194 22 -235q19 -47 101 -62v-29q-33 0 -101.5 2t-103.5 2q-36 0 -107 -2t-106 -2v29q80 18 101 70q18 46 26 227zM743 406l9 679
q-270 -296 -586 -679h577z" />
    <glyph glyph-name="five" unicode="5" horiz-adv-x="1321" 
d="M635 -39q-185 0 -326 34q-94 23 -239 83q21 65 63 213l27 -6q22 -100 114 -173q131 -106 363 -106q190 0 294 97q97 90 97 239q0 184 -149 271q-108 63 -261 63q-186 0 -434 -96q1 9 29 363q16 207 16 304h727q115 0 164 43h23l-60 -184h-614q-184 0 -199 -94
q-28 -185 -28 -357q259 70 395 70q263 0 432 -111q162 -106 162 -260q0 -170 -158 -279q-164 -114 -438 -114z" />
    <glyph glyph-name="six" unicode="6" horiz-adv-x="1360" 
d="M770 1239q-289 0 -402 -218q-88 -170 -79 -507q122 305 481 305q239 0 384 -129q134 -121 134 -299q0 -172 -149 -297q-159 -133 -402 -133q-283 0 -460 172.5t-177 458.5q0 224 122 411q181 279 566 279q257 0 439 -123q-16 -41 -58 -170l-26 8q-73 242 -373 242z
M1098 389q0 167 -102 274t-273 107t-291 -115q-113 -108 -113 -245q0 -206 117 -311q107 -95 295 -95q169 0 268 104t99 281z" />
    <glyph glyph-name="seven" unicode="7" horiz-adv-x="1208" 
d="M68 999l-27 7l76 249q45 0 207 -4q128 -4 206 -4q121 0 316 4q245 4 315 4q-10 -63 -37 -112q-29 -53 -196 -250q-160 -188 -237 -344q-116 -234 -116 -502q0 -8 1.5 -25t1.5 -26q-82 4 -123 4q-39 0 -121 -4q31 286 256 581l340 396q43 56 100 137h-663
q-237 0 -299 -111z" />
    <glyph glyph-name="eight" unicode="8" horiz-adv-x="1360" 
d="M94 295q0 237 395 338q-126 31 -212 110q-101 92 -101 215q0 139 128 228q139 96 384 96q218 0 347 -68q136 -72 136 -202q0 -129 -124 -209q-76 -48 -242 -96q202 -42 308 -102q165 -94 165 -257q0 -191 -194 -296q-167 -91 -414 -91q-240 0 -396 78q-180 89 -180 256z
M676 6q213 0 333 95q99 79 99 186q0 129 -129 201q-103 57 -395 124q-326 -84 -326 -303q0 -138 111.5 -220.5t306.5 -82.5zM688 1237q-173 0 -270 -70q-88 -64 -88 -161q0 -112 109 -180q85 -52 268 -93q317 60 317 275q0 107 -90 168t-246 61z" />
    <glyph glyph-name="nine" unicode="9" horiz-adv-x="1360" 
d="M588 -39q-154 0 -260 30q-70 20 -195 83l64 200l24 -8q29 -96 109 -167q108 -95 272 -95q178 0 297 98q176 147 176 487q0 38 -2 79q-32 -109 -125 -190q-127 -111 -321 -111q-206 0 -365 110q-184 128 -184 340q0 191 155 325q163 140 416 140q262 0 434 -171.5
t172 -426.5q0 -338 -166 -527q-174 -196 -501 -196zM1051 827q0 187 -110 299.5t-294 112.5q-182 0 -282 -110q-93 -100 -93 -263q0 -452 375 -452q179 0 291.5 115.5t112.5 297.5z" />
    <glyph glyph-name="colon" unicode=":" horiz-adv-x="680" 
d="M340 -39q-38 0 -65 27t-27 65q0 39 27 66.5t65 27.5q40 0 67 -27.5t27 -66.5q0 -38 -27.5 -65t-66.5 -27zM340 735q-37 0 -63.5 27.5t-26.5 64.5q0 39 26 68t64 29q40 0 68 -28.5t28 -68.5q0 -38 -28.5 -65t-67.5 -27z" />
    <glyph glyph-name="semicolon" unicode=";" horiz-adv-x="680" 
d="M301 -252l-31 25q78 107 78 170q0 18 -22 24q-33 8 -52 27q-28 29 -28 69q0 37 23 63q25 30 65 30q102 0 102 -127q0 -85 -50 -174q-39 -69 -85 -107zM342 735q-38 0 -66 28t-28 66q0 39 27 67t67 28q38 0 66 -28t28 -67q0 -38 -28 -66t-66 -28z" />
    <glyph glyph-name="less" unicode="&#x3c;" horiz-adv-x="2040" 
d="M1501 967v-160l-850 -342l850 -336v-166l-1042 428v146z" />
    <glyph glyph-name="equal" unicode="=" horiz-adv-x="2040" 
d="M510 244v108h1014v-108h-1014zM510 586v108h1014v-108h-1014z" />
    <glyph glyph-name="greater" unicode="&#x3e;" horiz-adv-x="2040" 
d="M500 807v160l1042 -430v-146l-1042 -428v166l850 336z" />
    <glyph glyph-name="question" unicode="?" horiz-adv-x="1020" 
d="M94 1090l-51 190q171 88 383 88q226 0 365 -107q131 -101 131 -251q0 -207 -273 -402q-156 -111 -188 -334h-41q0 114 84 258q79 123 157 245q84 147 84 267q0 132 -88 207q-83 72 -217 72q-129 0 -221 -81q-70 -61 -100 -146zM438 -39q-37 0 -63.5 26t-26.5 64t26.5 66
t63.5 28q40 0 68.5 -27.5t28.5 -66.5q0 -38 -29 -64t-68 -26z" />
    <glyph glyph-name="at" unicode="@" horiz-adv-x="2046" 
d="M328 88q-78 94 -110.5 180.5t-37.5 223.5q-5 141 66 323q82 210 223 342q247 232 541 252q35 2 70 2q281 0 479 -141q195 -141 253 -350q21 -74 21 -155q0 -254 -156 -443q-188 -229 -396 -229q-43 0 -83 11q-61 19 -72 62l-8 86q-29 -44 -106 -89q-89 -52 -162 -52
q-146 0 -229 100q-48 58 -48 179q0 94 31 179q51 136 129 256q52 80 131 145q117 98 233 98q14 0 27 -1q138 -15 217 -158l52 121h172l-226 -543q-76 -183 -76 -222q0 -67 71 -67q51 0 102 33q205 136 268 324q36 108 36 199q0 107 -50 223q-70 158 -243 251
q-150 79 -314 83q-243 5 -476 -164q-211 -154 -297 -402q-45 -129 -45 -256q0 -157 72 -278q143 -242 510 -291q67 -9 133 -9q165 0 342 58q119 39 252 156l66 -47q-224 -200 -506 -250q-92 -16 -183 -16q-161 0 -325 51q-66 20 -159 74q-123 72 -189 151zM1176 508
q100 247 100 337q0 98 -74 132q-25 11 -52 11q-83 0 -178 -108q-77 -88 -138 -218q-101 -213 -101 -325q0 -103 78 -140q27 -14 56 -14q87 0 182 112q77 92 127 213z" />
    <glyph glyph-name="A" unicode="A" horiz-adv-x="1700" 
d="M35 -4v29q78 20 143 112q76 106 322 551q184 334 350 672h14q69 -153 264 -536q208 -408 318 -599q71 -123 122 -165q26 -21 85 -35v-29q-140 4 -207 4q-76 0 -223 -4v29q65 17 65 84q0 34 -33 110q-35 83 -198 424h-527l-129 -252q-102 -200 -102 -274q0 -68 100 -92
v-29q-123 4 -182 4t-182 -4zM1034 692l-235 477l-248 -477h483z" />
    <glyph glyph-name="B" unicode="B" horiz-adv-x="1585" 
d="M125 -2v27q57 36 74 76q28 66 28 243v764q0 104 -29 146q-20 27 -73 44v31q37 0 170 -3t207 -3q493 0 646 -37q238 -57 238 -256q0 -143 -144 -226q-92 -53 -284 -95q197 -5 348 -74q214 -98 214 -295q0 -99 -89 -189q-153 -153 -507 -153l-633 2q-111 0 -166 -2z
M1198 1024q0 256 -385 256h-418v-557q461 0 551 27q252 74 252 274zM1315 344q0 219 -200 290q-116 42 -396 42q-54 0 -161.5 -1t-162.5 -1q0 -342 9 -440q12 -130 56 -163q31 -24 146 -24h326q162 0 266 70q117 80 117 227z" />
    <glyph glyph-name="C" unicode="C" horiz-adv-x="1511" 
d="M1407 1034l-25 10q-15 102 -133 181q-146 98 -381 98q-245 0 -390 -132q-179 -164 -179 -513q0 -289 130 -465q155 -209 464 -209q223 0 376 100q122 79 138 164l25 6l43 -149q-243 -170 -594 -170q-377 0 -602 245q-191 207 -191 466q0 278 221 486q229 216 557 216
q326 0 602 -176q-32 -69 -61 -158z" />
    <glyph glyph-name="D" unicode="D" horiz-adv-x="1624" 
d="M426 0q-100 0 -305 -4l2 29q60 26 78 86q26 85 26 335v691q0 84 -23 115q-16 22 -75 46v31q218 -6 696 -6q318 0 515.5 -178.5t197.5 -464.5q0 -231 -124 -402q-106 -146 -284 -227q-121 -55 -385 -55q-53 0 -159.5 2t-159.5 2zM1329 690q0 352 -182 489
q-133 99 -404 101l-348 2v-618q0 -345 13 -437q17 -129 87 -161q50 -23 236 -23q320 0 450 125q148 144 148 522z" />
    <glyph glyph-name="E" unicode="E" horiz-adv-x="1473" 
d="M119 -4v29q64 25 87 93q25 76 25 275v723q0 90 -12 120q-19 46 -84 62v31q166 -6 162 -6h672q-2 0 305 6l63 -213l-20 -10q-79 101 -173 136q-102 38 -315 38h-430v-557h389q170 0 242 26.5t98 96.5h27q-4 -98 -4 -144q0 -53 4 -159h-27q-43 88 -127 113q-59 18 -223 18
h-379q0 -296 15 -473q6 -81 32 -115q31 -39 101 -39h348q140 0 242 27q65 17 114 41q101 52 170 143l25 -10l-76 -252q-389 4 -1059 4q-65 0 -192 -4z" />
    <glyph glyph-name="F" unicode="F" horiz-adv-x="1360" 
d="M127 -4v29q53 11 76 79q26 80 26 269v776q0 134 -102 149v31q147 -6 145 -6q547 0 996 6l67 -211l-28 -8q-89 89 -191 126q-110 40 -280 40h-439v-551h346q212 0 290 29q62 22 95 92h27q-4 -47 -4 -141q0 -107 4 -162h-27q-55 88 -121 110.5t-276 22.5h-334
q0 -423 21 -534q18 -95 92 -117v-29q-131 4 -199 4q-61 0 -184 -4z" />
    <glyph glyph-name="G" unicode="G" horiz-adv-x="1585" 
d="M866 1368q328 0 596 -176q-20 -50 -59 -158l-27 10q-17 97 -120 174q-141 105 -386 105q-315 0 -460 -204q-115 -161 -115 -435q0 -682 573 -682q266 0 371 102q59 58 59 140v200q0 117 -64 158q-39 25 -149 33v29q137 -9 275 -9q99 0 178 9v-29q-52 -24 -65 -39
q-17 -21 -17 -76v-379q-256 -186 -586 -186q-369 0 -591 239q-193 208 -193 478q0 295 240 499q230 197 540 197z" />
    <glyph glyph-name="H" unicode="H" horiz-adv-x="1700" 
d="M117 -4v29q72 36 90 100q22 82 22 324v585q0 169 -20 204.5t-92 59.5v31q92 -6 180 -6q105 0 213 6v-31q-73 -12 -93 -45.5t-20 -136.5v-391h903v383q0 112 -36 156q-17 19 -74 34v31q190 -6 194 -6q-4 0 193 6v-31q-70 -18 -88 -45q-21 -30 -21 -163v-617
q0 -178 17 -311q6 -52 23.5 -79t68.5 -58v-29q-131 4 -193 4q-67 0 -194 -4v29q76 31 90 122q20 130 20 289v238h-903v-240q0 -140 21 -291q11 -83 92 -118v-29q-143 4 -213 4q-57 0 -180 -4z" />
    <glyph glyph-name="I" unicode="I" horiz-adv-x="604" 
d="M104 -4v29q54 24 78 69q35 67 35 344v701q0 76 -29 114q-21 29 -84 45v31q99 -6 195 -6q100 0 199 6v-31q-59 -7 -84 -43q-29 -40 -29 -116v-701q0 -212 27 -323q14 -59 86 -90v-29q-131 4 -199 4q-63 0 -195 -4z" />
    <glyph glyph-name="J" unicode="J" horiz-adv-x="907" 
d="M4 4q35 93 59 176l27 -6q47 -151 195 -151q97 0 161 83q40 52 53 145q11 80 11 267v551q0 126 -16 170q-16 41 -86 59v31l184 -6l184 6v-31q-59 -9 -85 -62q-13 -25 -13 -108v-616q0 -160 -20 -224q-15 -50 -78 -130q-160 -203 -383 -203q-87 0 -193 49z" />
    <glyph glyph-name="K" unicode="K" horiz-adv-x="1511" 
d="M164 -4v29q46 15 64 35q11 14 24 53q24 77 24 254v751q0 90 -24 137q-13 26 -74 43v31q92 -6 184 -6l185 6v-31q-51 -18 -77 -49.5t-26 -130.5v-409q442 336 576 465q61 58 61 96q0 23 -34 30v29q95 -6 186 -6q100 0 205 6v-29q-137 -15 -265 -98q-140 -90 -624 -479
q224 -2 343 -62q96 -48 187 -176q102 -143 203 -286q86 -110 110 -129q19 -16 101 -45v-29q-90 4 -139 4t-152 -4l-299 453q-78 119 -132 165q-73 64 -165 64q-97 0 -134 -59q-28 -46 -28 -150q0 -288 39 -385q13 -31 74 -59v-29q-135 4 -205 4q-61 0 -188 -4z" />
    <glyph glyph-name="L" unicode="L" horiz-adv-x="1360" 
d="M117 -4v29q71 33 90 94q20 67 20 268v688q0 107 -12 144q-10 30 -26 44q-13 11 -62 35v31q95 -6 190 -6q2 0 175 6v-31q-77 -34 -89 -81q-8 -35 -8 -127v-601q0 -238 27 -346q15 -63 53 -79q46 -19 209 -19q272 0 413 50q132 47 224 167l27 -8l-76 -258q-385 4 -578 4
q-192 0 -577 -4z" />
    <glyph glyph-name="M" unicode="M" horiz-adv-x="1851" 
d="M111 -4v29q59 29 75 71q33 83 33 217v707q0 196 -24 235q-21 33 -64 43v31q68 -6 137 -6l117 6l539 -1114q321 623 528 1114l135 -6q-2 0 133 6v-31q-58 -13 -79 -44t-21 -107v-703q0 -272 31 -350q16 -41 69 -69v-29q-127 4 -188 4q-66 0 -197 -4v29q61 28 82 79
q35 83 35 369v721l-596 -1245l-588 1245v-721q0 -315 41 -397q17 -33 68 -51v-29q-94 4 -141 4q-43 0 -125 -4z" />
    <glyph glyph-name="N" unicode="N" horiz-adv-x="1624" 
d="M246 0q-39 0 -121 -4v29q50 20 68 51q32 57 32 373v579q0 166 -12.5 204.5t-77.5 65.5v31l141 -6q3 0 125 6q324 -402 959 -1046v491q0 407 -35 473q-14 28 -72 51v31l136 -6q-3 0 120 6v-31q-48 -11 -71 -55q-14 -26 -26 -179q-11 -141 -11 -257v-860q-296 355 -617 706
q-149 166 -510 539v-756q0 -293 29 -352q17 -35 82 -59v-29q-94 4 -139 4z" />
    <glyph glyph-name="O" unicode="O" horiz-adv-x="1700" 
d="M856 -45q-325 0 -542 208q-224 216 -224 556q0 228 213 430q231 219 545 219q323 0 550 -220q214 -208 214 -472q0 -286 -214 -500q-223 -221 -542 -221zM1401 682q0 397 -224 551q-131 90 -333 90q-332 0 -468 -265q-77 -148 -77 -329q0 -341 110 -515
q133 -212 441 -212q551 0 551 680z" />
    <glyph glyph-name="P" unicode="P" horiz-adv-x="1436" 
d="M137 -4v29q41 22 48 28q21 18 30 51q27 104 27 383v643q0 99 -25 127q-28 33 -80 41v31q166 -6 332 -6q44 0 132.5 3t133.5 3q221 0 379 -46q275 -81 275 -282q0 -202 -245 -299q-190 -75 -482 -75q-84 0 -252 4v-154q0 -218 24 -356q10 -54 90 -96v-29q-139 4 -209 4
q-59 0 -178 -4zM823 1278h-413v-598q82 -8 252 -8q538 0 538 313q0 293 -377 293z" />
    <glyph glyph-name="Q" unicode="Q" horiz-adv-x="1700" 
d="M928 -47l-62 -27l471 -188q103 -41 162 -41q25 0 70 16l18 -24q-59 -37 -110 -64q-68 -35 -129 -63l-482 241q-77 39 -141 39q-100 0 -203 -82l-55 35q137 79 340 154q-268 14 -476 193q-243 207 -243 532q0 287 237 494q230 200 533 200q346 0 566 -247
q188 -211 188 -453q0 -329 -257 -537q-203 -164 -427 -178zM1401 668q0 653 -557 653q-341 0 -477 -292q-68 -147 -68 -300q0 -342 112 -520q134 -213 439 -213q551 0 551 672z" />
    <glyph glyph-name="R" unicode="R" horiz-adv-x="1548" 
d="M119 -4v29q66 23 82 77q28 98 28 390v600q0 78 -6 112q-7 43 -25.5 62t-68.5 32v31q94 -6 281 -6h497q167 0 234.5 -16.5t161.5 -81.5q96 -68 96 -195q0 -170 -178 -261q-129 -66 -310 -77q274 -62 365 -213l156 -352q43 -80 100 -102v-29q-86 4 -129 4q-39 0 -121 -4
q-46 74 -97 238q-54 174 -87 235q-62 115 -129 158q-72 47 -199 47h-373v-248q0 -208 31 -315q17 -61 84 -86v-29q-131 4 -199 4q-63 0 -194 -4zM842 1276h-445v-551h353q180 0 276 37q180 70 180 270q0 130 -133 213q-49 31 -231 31z" />
    <glyph glyph-name="S" unicode="S" horiz-adv-x="1397" 
d="M41 94q53 135 78 230l26 -7q26 -136 146 -219q140 -96 383 -96q197 0 327 67q158 82 158 242q0 156 -171 225q-78 31 -396 87q-434 75 -434 335q0 183 143 292q155 118 444 118q237 0 533 -115q-31 -77 -68 -213l-28 9q-12 119 -126 192q-126 80 -349 80
q-212 0 -321 -108q-79 -78 -79 -171q0 -110 91 -174q72 -52 227 -85q146 -27 293 -54q213 -40 309 -118q100 -80 100 -222q0 -192 -184 -313t-467 -121q-324 0 -635 139z" />
    <glyph glyph-name="T" unicode="T" horiz-adv-x="1511" 
d="M70 1100l-27 12l59 217l660 -6q426 0 639 6l59 -217l-26 -12q-59 93 -156 133q-103 43 -289 43q-151 0 -151 -176v-563q0 -196 8 -312q7 -107 29 -147q20 -36 75 -53v-29q-131 4 -198 4q-66 0 -197 -4v29q54 11 73 42q21 35 31.5 144.5t10.5 325.5v563q0 103 -27 135
q-36 41 -160 41q-170 0 -266 -47q-74 -37 -147 -129z" />
    <glyph glyph-name="U" unicode="U" horiz-adv-x="1624" 
d="M145 1298v31l166 -6q-2 0 176 6v-31q-69 -24 -86 -98q-14 -64 -14 -223v-402q0 -259 68 -382q104 -187 387 -187q301 0 422 148q102 126 102 405v426q0 202 -37 258q-27 41 -82 55v31q142 -6 139 -6l166 6v-31q-67 -12 -96 -79q-37 -85 -37 -172v-422q0 -314 -73 -445
q-127 -225 -517 -225q-402 0 -535 209q-77 120 -77 395q0 51 6 153.5t6 153.5q0 330 -12 365q-17 49 -72 67z" />
    <glyph glyph-name="V" unicode="V" horiz-adv-x="1661" 
d="M57 1298v31q185 -6 187 -6l221 6v-31q-82 -24 -82 -79q0 -78 524 -1018q231 447 306 605q151 315 151 394q0 73 -88 98v31q178 -6 180 -6q-2 0 164 6v-31q-93 -15 -152 -118q-200 -353 -628 -1223h-15q-284 633 -596 1184q-46 82 -90 117q-26 21 -82 40z" />
    <glyph glyph-name="W" unicode="W" horiz-adv-x="2228" 
d="M41 1298v31q221 -6 225 -6l209 6v-31q-53 -13 -66 -22q-30 -19 -30 -68q0 -53 69 -217q65 -153 324 -719q167 429 393 1096h19q95 -319 415 -1096q324 837 324 926q0 82 -100 100v31q178 -6 176 -6l184 6v-31q-101 -28 -153 -110q-71 -110 -256 -586q-164 -422 -236 -647
h-14q-193 584 -410 1110q-249 -655 -389 -1110h-16q-97 262 -260 657q-190 460 -269 605q-24 44 -53 60q-22 11 -86 21z" />
    <glyph glyph-name="X" unicode="X" horiz-adv-x="1473" 
d="M37 -4v29q100 24 289 226q72 76 336 390q-370 499 -406 542q-86 104 -162 115v31q203 -6 207 -6q2 0 193 6v-31q-60 -11 -60 -53q0 -57 84 -170l232 -311q217 263 268 334q65 92 65 143q0 42 -49 57v31q172 -6 176 -6q2 0 162 6v-31q-91 -22 -158 -79l-84 -86
q-8 -4 -354 -406q352 -456 459 -566q96 -100 211 -136v-29q-44 0 -130.5 2t-129.5 2q-36 0 -107.5 -2t-107.5 -2v29q66 16 63 55q-2 37 -45 104q-60 93 -299 418q-348 -430 -348 -508q0 -34 12 -45.5t60 -23.5v-29q-33 0 -97.5 2t-97.5 2q-31 0 -91 -2t-91 -2z" />
    <glyph glyph-name="Y" unicode="Y" horiz-adv-x="1585" 
d="M59 1298v31q191 -6 193 -6l209 6v-31q-53 -17 -53 -67q0 -49 99 -182q76 -102 324 -400q433 497 433 586q0 53 -80 63v31q184 -6 188 -6q-2 0 195 6v-31q-74 -8 -108 -30q-43 -27 -166.5 -155t-434.5 -519v-340q0 -147 25 -182q20 -29 94 -47v-29q-135 4 -205 4
q-65 0 -192 -4v29q63 16 84 53q26 47 26 168v311q-347 490 -432 591q-106 127 -199 150z" />
    <glyph glyph-name="Z" unicode="Z" horiz-adv-x="1284" 
d="M614 0q-200 0 -594 -4q185 221 572 747q323 442 323 492q0 23 -47 31q-61 10 -256 10q-405 0 -522 -203l-29 10q57 131 86 246q262 -6 527 -6q263 0 524 6q-204 -253 -496 -676q-348 -504 -348 -553q0 -39 71 -50q46 -7 191 -7q461 0 605 248l26 -12q-40 -98 -94 -283
q-360 4 -539 4z" />
    <glyph glyph-name="bracketleft" unicode="[" horiz-adv-x="680" 
d="M276 1028q0 315 277 340v-49q-90 -21 -118.5 -71.5t-28.5 -180.5v-1079q0 -155 29 -213q28 -54 118 -88v-45q-141 4 -214 101q-63 85 -63 220v1065z" />
    <glyph glyph-name="backslash" unicode="\" horiz-adv-x="682" 
d="M125 1419l514 -1509h-88l-512 1509h86z" />
    <glyph glyph-name="bracketright" unicode="]" horiz-adv-x="680" 
d="M131 1323v45q142 -16 206 -90q69 -79 69 -246v-1014q0 -188 -66 -274t-209 -94v43q84 18 113 61q32 50 32 180v1002q0 216 -19 279q-26 84 -126 108z" />
    <glyph glyph-name="asciicircum" unicode="^" horiz-adv-x="512" 
d="M117 874h-121l219 449h121l203 -449h-121l-146 343z" />
    <glyph glyph-name="underscore" unicode="_" horiz-adv-x="1167" 
d="M0 -256v102h1167v-102h-1167z" />
    <glyph glyph-name="grave" unicode="`" horiz-adv-x="614" 
d="M561 1227l-24 -43q-111 56 -199 96q-78 36 -275 113l93 149l193 -159q7 -5 11 -9q87 -67 201 -147z" />
    <glyph glyph-name="a" unicode="a" horiz-adv-x="1284" 
d="M383 590q242 57 569 57q2 197 -66 290q-81 112 -284 112q-196 0 -307 -76q-82 -56 -94 -129l-27 -8q-25 81 -55 149q246 111 495 111q315 0 414 -160q63 -101 66 -383q3 -378 14 -430t26 -70.5t54 -27.5v-29q-62 4 -90 4q-27 0 -88 -4q-19 48 -54 201q-31 -74 -110 -138
q-121 -98 -289 -98q-182 0 -313 68q-168 87 -168 260q0 106 88 189q84 80 219 112zM565 10q227 0 325 170q62 107 62 252v166q-24 0 -73.5 1t-75.5 1q-209 0 -345 -50q-208 -77 -208 -259q0 -127 80 -202q84 -79 235 -79z" />
    <glyph glyph-name="b" unicode="b" horiz-adv-x="1436" 
d="M334 1501v-651q136 246 436 246q251 0 419 -167q165 -165 165 -403q0 -236 -163 -398q-167 -167 -421 -167q-233 0 -434 189q-28 -88 -60 -150h-188l-2 25q54 10 70 37q23 37 30 158q7 106 7 403v405q0 251 -16 313q-16 66 -83 72v29q78 16 240 59zM1176 530
q0 519 -414 519q-194 0 -316 -129t-122 -334q0 -226 55 -351q102 -229 389 -229q183 0 289 122q119 136 119 402z" />
    <glyph glyph-name="c" unicode="c" horiz-adv-x="1208" 
d="M1106 811l-23 4q-23 84 -96 146q-107 90 -289 90q-442 0 -442 -523q0 -528 428 -528q296 0 459 268l26 -39q-171 -274 -505 -274q-286 0 -450 194q-140 165 -140 383q0 232 163 391q177 173 472 173q165 0 307 -52q93 -34 139 -71q-34 -99 -49 -162z" />
    <glyph glyph-name="d" unicode="d" horiz-adv-x="1436" 
d="M1100 1194q0 152 -10.5 180.5t-75.5 38.5v29q95 20 225 59v-971q0 -345 15 -421q14 -72 81 -84v-25h-178q-34 73 -70 193q-157 -232 -428 -232q-247 0 -412 163.5t-165 416.5q0 216 152 378q165 177 423 177q259 0 441 -191q2 94 2 289zM1102 551q0 496 -436 496
q-208 0 -317 -162q-87 -129 -87 -303q0 -227 51 -350q94 -226 359 -226q252 0 359 206q71 135 71 339z" />
    <glyph glyph-name="e" unicode="e" horiz-adv-x="1247" 
d="M1171 678h-915q-10 -85 -10 -158q0 -512 420 -512q205 0 345 152q94 102 144 254l39 -31q-33 -138 -145 -256q-158 -166 -392 -166q-256 0 -422.5 164t-166.5 407q0 213 143 374q169 190 459 190q223 0 370 -159q115 -123 131 -259zM977 727q0 99 -43 177
q-79 143 -272 143q-309 0 -394 -320h709z" />
    <glyph glyph-name="f" unicode="f" horiz-adv-x="717" 
d="M250 989l-168 -2l18 51h152q5 214 113 333q118 130 344 130l-47 -141l-21 2q-32 59 -90 59q-172 0 -172 -309q0 -12 1 -36.5t1 -37.5h203l-19 -49h-182v-704q0 -239 133 -260v-29q-31 0 -92.5 2t-91.5 2q-34 0 -102.5 -2t-102.5 -2v29q76 2 103 78q20 56 20 182v704z" />
    <glyph glyph-name="g" unicode="g" horiz-adv-x="1360" 
d="M63 -162q0 107 122 176q92 52 221 68q-154 44 -154 115q0 111 227 157q-115 29 -201 91q-141 101 -141 255q0 137 111 249q146 147 422 147q58 0 182 -23q51 78 155 132.5t207 54.5q11 0 32.5 -1.5t31.5 -1.5q-32 -63 -59 -174h-23q-8 37 -42 59q-29 19 -58 19
q-106 0 -199 -106q281 -113 281 -344q0 -105 -72 -197q-141 -182 -502 -182q-198 -34 -198 -68q0 -57 146 -73q154 -11 308 -23q215 -26 310 -75q120 -62 120 -183q0 -158 -211 -246q-177 -74 -426 -74q-225 0 -386 53q-204 66 -204 195zM1153 -141q0 110 -169 167
q-123 42 -271 42q-500 0 -500 -215q0 -142 144 -188q86 -27 298 -27q193 0 324 43q174 57 174 178zM1014 719q0 150 -95 241t-251 91q-367 0 -367 -357q0 -162 115 -247q89 -66 207 -66q391 0 391 338z" />
    <glyph glyph-name="h" unicode="h" horiz-adv-x="1397" 
d="M90 1413v29q77 12 248 55v-741q55 144 117 212q117 128 321 128q268 0 369 -179q69 -123 69 -368v-330q0 -135 50 -168q28 -19 63 -26v-29q-119 4 -178 4q-62 0 -193 -4v29q74 17 91 90q18 79 18 166v243q0 206 -42 316q-76 202 -292 202q-148 0 -248 -111
q-135 -150 -135 -470v-180q0 -134 31 -205q8 -20 72 -51v-29q-127 4 -191 4q-55 0 -170 -4v29q64 10 80 77q27 111 27 355v504q0 306 -18 379q-17 68 -89 73z" />
    <glyph glyph-name="i" unicode="i" horiz-adv-x="528" 
d="M254 1241q-37 0 -63.5 28t-26.5 66q0 37 26.5 63.5t63.5 26.5q38 0 65 -26.5t27 -63.5q0 -38 -27 -66t-65 -28zM80 -4v29q46 3 67 30q29 35 39 125q9 72 9 283q0 286 -3 342q-4 105 -23 136q-16 24 -71 34v26q70 15 238 62v-684q0 -180 18 -246q27 -95 99 -108v-29
q-123 4 -187 4q-59 0 -186 -4z" />
    <glyph glyph-name="j" unicode="j" horiz-adv-x="528" 
d="M250 1237q-39 0 -64.5 29.5t-25.5 70.5q0 36 26.5 61t63.5 25q38 0 66 -25t28 -61q0 -40 -27.5 -70t-66.5 -30zM-84 -410q-14 0 -42 1t-42 1l57 154l21 -6q3 -80 94 -80q140 0 168 184q18 122 18 424v494q0 136 -12 168q-16 37 -84 43v28q76 17 238 62l2 -911
q0 -215 -55 -326q-118 -236 -363 -236z" />
    <glyph glyph-name="k" unicode="k" horiz-adv-x="1284" 
d="M109 -4v29q54 13 74 43q14 23 24 94q12 92 12 340v563q0 149 -12 272q-7 72 -92 78v27q105 19 245 59v-895q328 246 414 332q47 47 47 66q0 31 -47 38v25q34 0 100.5 -2t100.5 -2q31 0 92 2t92 2v-25q-143 -17 -264 -92q-94 -59 -416 -319q8 0 24.5 1t24.5 1
q185 0 320 -159q112 -158 223 -316q97 -124 195 -133v-29q-86 4 -127 4q-49 0 -152 -4q-60 62 -158 231q-105 180 -159 243q-97 114 -201 114q-98 0 -98 -101v-108q0 -157 24 -275q14 -63 84 -75v-29q-127 4 -190 4q-62 0 -180 -4z" />
    <glyph glyph-name="l" unicode="l" horiz-adv-x="528" 
d="M270 0q-63 0 -186 -4v29q48 7 67 39q12 21 29 94q17 69 17 209v862q0 114 -17.5 144t-83.5 42v27q145 26 242 59v-1134q0 -132 18 -209q30 -123 95 -133v-29q-123 4 -181 4z" />
    <glyph glyph-name="m" unicode="m" horiz-adv-x="2228" 
d="M84 -4v29q55 6 76 38q12 18 22 72q19 98 19 168v383q0 115 -8 154q-21 97 -22 98q-13 27 -75 33v30q77 17 242 62v-295q36 119 119 207q114 121 274 121q231 0 340 -114q69 -73 103 -226q33 134 120 225q109 115 271 115q312 0 403 -199q55 -119 55 -475q0 -323 29 -356
q26 -31 76 -41v-29q-119 4 -180 4q-66 0 -189 -4v29q70 11 90 55q33 69 33 272q0 352 -34 465q-68 227 -310 227q-108 0 -199 -84t-118 -206q-37 -165 -37 -217v-299q0 -56 20 -142q13 -53 82 -71v-29q-115 4 -174 4q-63 0 -194 -4v29q81 15 94 57q30 103 30 260v242
q0 191 -73 314q-87 144 -252 144q-142 0 -243 -120q-79 -94 -103 -211q-29 -137 -29 -203v-242q0 -85 27 -172q15 -50 86 -69v-29q-119 4 -181 4q-63 0 -190 -4z" />
    <glyph glyph-name="n" unicode="n" horiz-adv-x="1397" 
d="M86 -4v27q84 32 96 112q19 120 19 252v322q0 153 -21 206q-18 48 -80 58v28q129 28 242 62v-324q17 120 108 223q119 134 302 134q288 0 387 -188q61 -114 61 -361q0 -200 10 -418q4 -87 99 -106v-27q-123 4 -183 4q-65 0 -192 -4v27q78 19 100 100q21 75 21 371
q0 235 -42 348q-74 200 -290 200q-235 0 -328 -273q-47 -137 -47 -284v-239q0 -135 29 -179q16 -24 74 -44v-27q-132 4 -199 4q-55 0 -166 -4z" />
    <glyph glyph-name="o" unicode="o" horiz-adv-x="1360" 
d="M676 -39q-266 0 -434 162t-168 428q0 213 164 373q176 172 446 172q297 0 463 -203q135 -164 135 -369q0 -236 -163 -396q-171 -167 -443 -167zM1104 520q0 527 -428 527q-225 0 -333 -158q-91 -131 -91 -350q0 -533 420 -533q225 0 335 150q97 131 97 364z" />
    <glyph glyph-name="p" unicode="p" horiz-adv-x="1436" 
d="M80 -410v29q63 10 80 57q32 95 33 258l2 662q0 214 -8.5 271t-23.5 77q-19 27 -69 31v26q150 34 238 62v-217q75 113 146 165q115 85 286 85q257 0 427 -170q163 -162 163 -387q0 -244 -155 -405q-166 -173 -445 -173q-142 0 -270 73q-95 54 -148 122q0 -390 26 -471
q16 -48 84 -66v-29q-135 4 -202 4q-54 0 -164 -4zM1174 535q0 227 -92 359q-105 153 -320 153q-209 0 -327 -133.5t-118 -376.5q0 -529 433 -529q424 0 424 527z" />
    <glyph glyph-name="q" unicode="q" horiz-adv-x="1436" 
d="M1180 -406q-64 0 -187 -4v29q74 14 86 90q7 42 15 141l2 357q-133 -246 -432 -246q-248 0 -416 164t-168 399q0 234 166 401q169 171 416 171q217 0 432 -187q21 60 63 158q57 -4 86 -4q35 0 105 4v-29q-50 -17 -63 -33q-25 -31 -36 -124q-11 -100 -12 -328l-2 -492
q-1 -248 31 -356q12 -42 22 -54q16 -18 64 -32v-29q-115 4 -172 4zM1110 532q0 186 -63 308q-107 207 -375 207q-204 0 -315 -155q-95 -133 -95 -331q0 -553 418 -553q273 0 376 236q54 123 54 288z" />
    <glyph glyph-name="r" unicode="r" horiz-adv-x="756" 
d="M203 739q0 155 -27 198q-18 30 -80 30v34q74 18 244 62v-326q66 171 136 246q104 110 280 113q-36 -78 -64 -187h-22q-29 57 -68 58q-121 1 -196 -181q-62 -149 -62 -311v-160q0 -190 21 -225q17 -31 27 -39q19 -17 63 -26v-29q-30 0 -90.5 2t-90.5 2q-31 0 -95.5 -2
t-96.5 -2v29q76 13 96 117q25 126 25 597z" />
    <glyph glyph-name="s" unicode="s" horiz-adv-x="1171" 
d="M537 -39q-251 0 -492 105q32 72 66 174l28 -7q10 -81 99 -143q116 -80 323 -80q198 0 302 79q87 65 87 163q0 163 -270 199l-141 18q-398 52 -398 291q0 149 144 244q140 92 350 92q212 0 395 -88q-11 -32 -45 -150l-24 6q-70 183 -338 183q-187 0 -280 -86
q-69 -64 -69 -146q0 -162 267 -197l207 -26q344 -44 344 -277q0 -149 -159 -251.5t-396 -102.5z" />
    <glyph glyph-name="t" unicode="t" horiz-adv-x="604" 
d="M207 987h-154l13 39q109 40 168 116q47 61 79 175h25v-281h213l-19 -49h-194v-420q0 -331 55 -452q35 -77 99 -90v-29q-20 0 -60 2t-59 2q-18 0 -53.5 -2t-53.5 -2q-69 74 -69 233v56q1 43 2 59z" />
    <glyph glyph-name="u" unicode="u" horiz-adv-x="1397" 
d="M74 973v28q127 24 239 62v-586q0 -461 326 -461q239 0 329 230q62 158 62 479q0 161 -33 214q-22 36 -77 34v28q141 25 251 62v-299q0 -293 15 -567q4 -88 20 -121q22 -46 82 -51v-29q-17 0 -53 2t-53 2q-15 0 -43.5 -2t-42.5 -2q-52 95 -78 246q-63 -132 -144 -197
q-104 -84 -266 -84q-279 0 -375 177q-61 111 -61 364v219q0 164 -22 212q-17 36 -76 40z" />
    <glyph glyph-name="v" unicode="v" horiz-adv-x="1360" 
d="M676 -39q-341 711 -463 917q-86 146 -147 160v29q114 -4 172 -4q67 0 194 4v-29q-78 -6 -78 -77q0 -33 103 -230l278 -534l162 311q193 370 193 446q0 62 -107 84v29q115 -4 170 -4t158 4v-29q-85 0 -187 -198q-73 -132 -436 -879h-12z" />
    <glyph glyph-name="w" unicode="w" horiz-adv-x="2040" 
d="M84 1038v29q127 -4 195 -4q51 0 157 4v-29q-67 -14 -67 -65q0 -123 331 -752q135 303 371 875h21q169 -450 374 -875q87 195 173 390q112 264 112 331q0 45 -17 64q-15 16 -65 32v29q115 -4 172 -4q49 0 156 4v-29q-86 -15 -158 -137q-76 -128 -238 -489
q-154 -342 -190 -451h-14q-161 427 -373 901q-231 -522 -360 -901h-15q-230 511 -434 928q-41 85 -61 109q-27 33 -70 40z" />
    <glyph glyph-name="x" unicode="x" horiz-adv-x="1284" 
d="M53 -4v29q93 14 167 86q32 31 368 413q-146 191 -361 459q-32 36 -104 55v29q106 -4 160 -4q57 0 176 4v-29q-56 -4 -56 -32q0 -37 261 -371q184 217 221 266q49 66 49 103q0 25 -43 34v29q90 -4 137 -4q43 0 129 4v-29q-58 -13 -160 -114q-111 -111 -303 -328l230 -283
q146 -180 204 -231q51 -45 117 -57v-29q-131 4 -196 4q-66 0 -197 -4v29q53 14 53 49q0 23 -80 131l-211 284q-200 -248 -255 -328q-40 -58 -40 -87q0 -23 58 -49v-29q-111 4 -166 4q-51 0 -158 -4z" />
    <glyph glyph-name="y" unicode="y" horiz-adv-x="1360" 
d="M68 1038v29q122 -4 184 -4q59 0 174 4v-29q-72 -14 -72 -45q0 -60 65 -196q75 -160 320 -607q353 651 353 766q0 70 -84 82v29q106 -4 163 -4q52 0 150 4v-29q-81 -8 -139 -106q-87 -147 -258 -490q-191 -384 -265 -518q-90 -164 -219 -254q-114 -80 -221 -80h-57
q44 95 71 203l27 -6q0 -68 90 -68q105 0 193 107q78 93 78 166q0 159 -441 948q-44 80 -112 98z" />
    <glyph glyph-name="z" unicode="z" horiz-adv-x="1171" 
d="M551 0q-170 0 -506 -4q140 160 376 455q247 306 353 454q49 69 49 88q0 23 -92 23h-174q-328 0 -401 -139l-31 6l63 184q138 -4 412 -4q309 0 465 4q-153 -190 -449 -571q-280 -375 -280 -406q0 -32 41 -39q30 -6 162 -6q228 0 354 45q110 40 182 133l29 -6l-74 -221
q-319 4 -479 4z" />
    <glyph glyph-name="braceleft" unicode="{" horiz-adv-x="1364" 
d="M457 362q95 -15 191 -96q80 -66 108 -125q36 -75 36 -150q0 -32 -8 -84q-10 -69 -12 -91l-10 -114q-2 -58 18 -110q53 -137 199 -186v-49q-60 -5 -176 41q-142 57 -190 142t-48 170q0 35 6 110q2 23 21 120q17 86 17 135q0 29 -5 52q-10 53 -83 121q-68 64 -126 84v63
q58 15 132 79q79 67 89 120q6 29 6 64q0 52 -14 129l-22 118q-11 72 -11 114q0 76 50 165q48 86 190 143q114 46 174 41v-47q-145 -48 -198 -188q-20 -52 -19 -110q0 -9 10 -114q3 -22 14 -94q8 -54 8 -87q0 -74 -36 -148q-20 -43 -150 -130q-125 -84 -161 -88z" />
    <glyph glyph-name="bar" unicode="|" horiz-adv-x="664" 
d="M276 -512v2048h111v-2048h-111z" />
    <glyph glyph-name="braceright" unicode="}" horiz-adv-x="1364" 
d="M883 365q-96 15 -192 95q-80 66 -107 124q-37 75 -37 151q0 31 8 84q8 64 10 90l10 114q2 59 -18 110q-53 137 -199 186v49q60 5 176 -41q143 -57 192 -144t49 -168q0 -39 -9 -110q-1 -9 -21 -118q-15 -81 -15 -132q0 -32 5 -57q10 -52 83 -120q68 -63 126 -83v-63
q-58 -15 -132 -80q-80 -68 -89 -121q-5 -28 -5 -62q0 -29 36 -247q11 -69 11 -112q0 -75 -50 -167q-47 -86 -189 -143q-116 -46 -176 -41v47q145 48 199 188q20 53 19 110q-1 9 -11 114q-2 21 -13 93q-8 53 -8 86q0 73 35 148q20 43 151 131q125 85 161 89z" />
    <glyph glyph-name="asciitilde" unicode="~" horiz-adv-x="2040" 
d="M705 350h-105q25 271 201 273q88 0 242.5 -106.5t207.5 -106.5q63 -1 86 63q9 51 19 102h98q-13 -127 -49 -188q-48 -83 -150 -84q-101 -1 -247.5 104.5t-210.5 104.5q-46 0 -68 -54q-11 -26 -24 -108z" />
    <glyph glyph-name="nonbreakingspace" unicode="&#xa0;" horiz-adv-x="1397" 
 />
    <glyph glyph-name="exclamdown" unicode="&#xa1;" horiz-adv-x="680" 
d="M248 -74q0 38 38 345t38 532h34q0 -183 39 -500.5t39 -374.5q0 -215 -94 -215t-94 213zM348 907q-40 0 -69 29.5t-29 69.5q0 37 29.5 63.5t68.5 26.5q36 0 61 -27t25 -63q0 -40 -24.5 -69.5t-61.5 -29.5z" />
    <glyph glyph-name="cent" unicode="&#xa2;" horiz-adv-x="1057" 
d="M133 813q0 179 141 291q120 96 285 108v162h53v-162q155 -7 318 -75l-41 -133h-23q-16 69 -82 113q-74 48 -186 48q-150 0 -234 -88q-88 -92 -88 -266q0 -141 67 -239q83 -121 241 -121q204 0 334 184l32 -23q-39 -78 -124 -136q-97 -66 -214 -75v-174h-53v174
q-143 -9 -272 90q-154 119 -154 322z" />
    <glyph glyph-name="sterling" unicode="&#xa3;" horiz-adv-x="1360" 
d="M420 322q69 0 137 -7q2 13 2 41q0 110 -45 281h-188l16 45h158q-35 124 -35 211q0 174 116 284q111 105 281 105q137 0 305 -104l-53 -156l-31 8q-15 76 -82 135q-78 68 -184 68q-98 0 -168 -62q-78 -69 -78 -184q0 -89 91 -305h333l-14 -45h-301q33 -127 33 -184
q0 -90 -35 -166q90 -34 240 -121q102 -60 176 -60q146 0 190 197l27 -12q-4 -109 -65 -207q-76 -123 -197 -123q-78 0 -151 41q-43 24 -127 94q-87 72 -140 105q-212 -240 -438 -240q-162 0 -162 117q0 97 114 170.5t275 73.5zM166 125q0 -94 119 -94q84 0 169 78
q75 70 95 139q-97 28 -170 28q-55 0 -115 -25q-98 -40 -98 -126z" />
    <glyph glyph-name="currency" unicode="&#xa4;" horiz-adv-x="1364" 
d="M322 981l-140 143l62 64l139 -144q128 96 276 101q174 6 312 -92l147 137l64 -64l-142 -145q107 -131 107 -297q0 -164 -107 -293l142 -141l-60 -57l-143 145q-132 -108 -293 -111q-171 -3 -307 105l-139 -142l-66 62l143 143q-107 132 -104 299q3 162 109 287zM1049 682
q1 152 -106 261.5t-265 109.5q-149 -1 -255.5 -107.5t-107.5 -255.5q0 -157 108 -262.5t261 -105.5q149 0 256 105.5t109 254.5z" />
    <glyph glyph-name="yen" unicode="&#xa5;" horiz-adv-x="1366" 
d="M20 1337q118 -8 201 -8q81 0 201 8v-24q-66 -30 -66 -70q0 -34 103 -196q108 -172 262 -371q119 170 221 344t102 211q0 51 -79 72v28q114 -8 192 -8t193 8v-33q-116 -13 -195 -94q-120 -124 -262 -360l-6 -10h241v-56h-276l-6 -10l-74 -121l-4 -12h360v-55h-393v-13
q0 -29 -2 -96.5t-2 -105.5q0 -213 20 -268t103 -79v-24q-132 6 -199 6q-65 0 -200 -6v24q75 30 93 76q25 63 25 295q0 33 -2 92.5t-2 85.5v13h-391v55h371l-6 10l-76 123l-8 10h-281v56h246l-143 221q-72 110 -127 170q-46 49 -134 88v24z" />
    <glyph glyph-name="brokenbar" unicode="&#xa6;" horiz-adv-x="664" 
d="M276 666v716h111v-716h-111zM276 -358v716h111v-716h-111z" />
    <glyph glyph-name="section" unicode="&#xa7;" horiz-adv-x="1360" 
d="M602 -319q-265 0 -512 116l68 172l24 -4q16 -86 107 -150q118 -83 319 -83q229 0 326 99q61 63 61 155q0 136 -162 187q-162 34 -323 69q-307 85 -307 284q0 100 71 175q59 61 148 90q-100 43 -145 89q-60 62 -60 160q0 132 124 225q138 103 370 103q223 0 391 -84
l-43 -149l-27 6q-84 180 -336 180q-186 0 -277 -82q-71 -63 -71 -156q0 -125 182 -171l392 -70q101 -23 167 -85q74 -70 74 -167q0 -189 -229 -287q207 -92 207 -268q0 -145 -145 -246q-154 -108 -394 -108zM1028 526q0 152 -192 187q-43 7 -194 28q-87 12 -153 33
q-157 -61 -157 -196q0 -148 223 -195q144 -26 322 -61q51 19 96 70q55 64 55 134z" />
    <glyph glyph-name="dieresis" unicode="&#xa8;" horiz-adv-x="614" 
d="M223 1333q0 -35 -25 -60.5t-61 -25.5q-35 0 -59.5 25.5t-24.5 60.5q0 36 24.5 61t59.5 25q36 0 61 -25t25 -61zM553 1333q0 -35 -25 -60.5t-59 -25.5q-37 0 -62.5 25.5t-25.5 60.5q0 36 25.5 61t62.5 25q34 0 59 -25.5t25 -60.5z" />
    <glyph glyph-name="copyright" unicode="&#xa9;" horiz-adv-x="1024" 
d="M502 365q-207 0 -356 153t-146 361q3 201 148.5 344.5t347.5 144.5q207 2 358.5 -147.5t151.5 -356.5q0 -205 -149 -352t-355 -147zM961 864q0 188 -134 323.5t-321 135.5q-184 0 -318 -132t-137 -317q-3 -188 134.5 -327t326.5 -137q184 1 316.5 135.5t132.5 318.5z
M528 1182q48 -5 92 -25q36 -16 42 -14q22 8 30 41h29l6 -226h-31q0 38 -34 95q-56 90 -115 96q-92 9 -146 -90q-46 -85 -43 -199q4 -98 47 -173q49 -84 125 -85q132 -1 160 119q8 35 8 59h37q0 -38 -10 -71q-44 -144 -203 -144q-122 0 -203 89q-76 84 -79 206
q-4 127 85 229.5t203 92.5z" />
    <glyph glyph-name="ordfeminine" unicode="&#xaa;" horiz-adv-x="1360" 
d="M512 983q162 35 356 35q0 114 -41 164q-49 59 -178 59q-122 0 -192 -44q-51 -33 -60 -77l-16 -4q-9 33 -35 101q156 65 311 65q201 0 269 -94q48 -64 49 -225q0 -116 6 -254q11 -48 51 -56v-20q-20 2 -57 2q-49 0 -68 -2q-12 29 -35 119q-20 -44 -68 -82
q-76 -58 -181 -58q-116 0 -199 41q-107 52 -107 154q0 63 55 110.5t140 65.5zM627 653q133 0 198 95q45 65 45 143v86h-94q-348 0 -348 -170q0 -154 199 -154z" />
    <glyph glyph-name="guillemotleft" unicode="&#xab;" horiz-adv-x="944" 
d="M418 168q-162 185 -342 356q205 195 342 357h74q-69 -93 -244 -357q142 -224 244 -356h-74zM795 168q-173 196 -342 356q222 209 342 357h73q-129 -171 -245 -357q93 -152 245 -356h-73z" />
    <glyph glyph-name="logicalnot" unicode="&#xac;" horiz-adv-x="2040" 
d="M510 584v110h1016v-450h-111v340h-905z" />
    <glyph glyph-name="minus" unicode="&#xad;" horiz-adv-x="2040" 
d="M512 522h1022v-110h-1022v110z" />
    <glyph glyph-name="registered" unicode="&#xae;" horiz-adv-x="1024" 
d="M506 367q-209 0 -359 151.5t-147 360.5q3 201 148.5 344.5t347.5 144.5q209 2 359.5 -143.5t150.5 -360.5q0 -204 -148 -350.5t-352 -146.5zM952 862q0 185 -132 319t-316 134t-317.5 -131t-133.5 -314q0 -185 135.5 -319.5t321.5 -132.5q181 1 311.5 132t130.5 312z
M252 1137v39h283q206 0 213 -138q3 -64 -48 -107q-46 -40 -106 -40q-10 0 -21 2l56 -34q28 -20 45 -58q13 -41 26 -83q17 -45 50 -40q28 5 28 63v17h37v-27q0 -127 -117 -129q-58 -1 -91 54q-19 33 -37 113q-17 73 -31 89q-18 21 -70 21h-39v-148q0 -59 33 -75
q25 -13 67 -13v-41q-153 6 -139 6q-37 0 -143 -4v43q9 -3 39 2t38.5 14.5t8.5 69.5v316q0 53 -19 69q-28 26 -63 19zM459 1137q-31 -18 -31 -68v-164h94q52 0 84 31q25 23 25 86q0 82 -29 104q-21 18 -75 19q-49 2 -68 -8z" />
    <glyph glyph-name="macron" unicode="&#xaf;" horiz-adv-x="766" 
d="M57 1288v90h652v-90h-652z" />
    <glyph glyph-name="degree" unicode="&#xb0;" horiz-adv-x="1360" 
d="M686 571q-148 0 -253 102.5t-105 248.5q0 149 104.5 254.5t253.5 105.5q145 0 246.5 -106t101.5 -254q0 -143 -102.5 -247t-245.5 -104zM963 922q0 117 -81 201.5t-196 84.5q-120 0 -204.5 -84t-84.5 -202q0 -116 85.5 -197.5t203.5 -81.5q114 0 195.5 82.5t81.5 196.5z
" />
    <glyph glyph-name="plusminus" unicode="&#xb1;" horiz-adv-x="2040" 
d="M512 514v111h451v350h110v-350h455v-111h-455v-356h-110v356h-451zM512 -45v111h1016v-111h-1016z" />
    <glyph glyph-name="twosuperior" unicode="&#xb2;" horiz-adv-x="758" 
d="M76 565q25 64 43 97q47 87 162 153l96 55q133 77 133 201q0 71 -45.5 117.5t-116.5 46.5q-164 0 -198 -152l-27 2l-35 136q149 61 262 61q129 0 215 -64.5t86 -160.5q0 -116 -162 -191q-109 -50 -118 -57q-30 -12 -82 -49t-92 -94l307 4q74 1 135 86l27 -13l-54 -178
h-536z" />
    <glyph glyph-name="threesuperior" unicode="&#xb3;" horiz-adv-x="758" 
d="M39 627l49 141l27 -10q6 -164 221 -164q194 0 194 151q0 76 -55.5 123t-144.5 47q-15 0 -84 -4v60q46 -6 76 -6q77 0 128.5 39t51.5 98q0 57 -48.5 94t-121.5 37q-162 0 -174 -148l-29 -6l-39 142q151 59 277 59q122 0 197 -46.5t75 -121.5q0 -131 -217 -172l49 -10
q207 -43 207 -180q0 -91 -91.5 -147t-240.5 -56q-178 0 -307 80z" />
    <glyph glyph-name="acute" unicode="&#xb4;" horiz-adv-x="614" 
d="M315 1305q-75 -33 -243 -121l-21 35q40 29 213 167q28 22 189 158l92 -143q-73 -30 -230 -96z" />
    <glyph glyph-name="mu" unicode="&#xb5;" horiz-adv-x="1249" 
d="M162 57v1002h182v-598q0 -223 45 -277q59 -69 182 -61q66 4 135 55q63 47 85 98v783h180v-737q0 -120 28 -187q25 -56 93 -56q14 0 26 3q35 9 62 57q23 42 23 74q0 6 -1 10h39q-6 -103 -86 -176q-73 -66 -170 -67q-82 -1 -141 75q-51 65 -51 125q-15 -38 -108 -107
q-118 -88 -230 -91q-64 -2 -141 43q-62 37 -97 79v-98q0 -64 43 -160.5t43 -144.5q2 -150 -98 -150q-102 0 -102 126q0 10 1 20q7 69 36 164q22 74 22 196z" />
    <glyph glyph-name="paragraph" unicode="&#xb6;" horiz-adv-x="1364" 
d="M770 -522h-78v893q-193 24 -319 144q-131 127 -131 310q0 230 178 371q162 127 389 127h276v-84h-137v-1761h-78v1761h-100v-1761z" />
    <glyph glyph-name="cedilla" unicode="&#xb8;" horiz-adv-x="479" 
d="M244 -371q-128 0 -248 56l31 45q91 -41 184 -41q39 0 72.5 20t33.5 51q0 47 -61 47q-27 0 -76 -24l-18 12q17 35 51 113q7 18 29 84l49 -8q-17 -33 -29 -70q-6 -15 -18 -55q57 14 75 14q119 0 119 -98q0 -67 -62 -108q-57 -38 -132 -38z" />
    <glyph glyph-name="onesuperior" unicode="&#xb9;" horiz-adv-x="569" 
d="M156 594q20 4 24 4q39 6 49 22.5t11 71.5l4 441q0 55 -51 63q-2 0 -7 1t-10 1v31q94 22 184 51l9 -541q1 -59 4 -88q4 -39 47 -49q7 -2 24 -8v-29h-288v29z" />
    <glyph glyph-name="ordmasculine" unicode="&#xba;" horiz-adv-x="1360" 
d="M674 612q-166 0 -272.5 96t-106.5 253q0 126 103 220q111 101 282 101q187 0 292 -120q85 -96 85 -216q0 -140 -103 -234q-108 -100 -280 -100zM932 944q0 297 -258 297q-131 0 -197 -86q-57 -75 -57 -201q0 -303 252 -303q260 0 260 293z" />
    <glyph glyph-name="guillemotright" unicode="&#xbb;" horiz-adv-x="944" 
d="M870 524q-180 -171 -342 -356h-73q101 132 243 356q-101 164 -243 357h73q137 -162 342 -357zM494 524q-170 -160 -342 -356h-74q152 204 246 356q-117 186 -246 357h74q119 -148 342 -357z" />
    <glyph glyph-name="onequarter" unicode="&#xbc;" 
d="M283 539q15 6 24 6q40 9 52.5 24.5t13.5 57.5l10 506q1 42 -76 65v27q109 26 203 57v-522q0 -125 9.5 -160t47.5 -49q15 -5 29 -12v-27h-313v27zM506 -49l788 1331h88l-788 -1333zM1118 164l15 47l493 526l33 -4v-506h47q78 0 139 74l25 -8l-39 -133l-88 4l-84 2
q0 -105 16 -135q13 -26 68 -31v-29h-311v29q56 6 72 34t16 118v14h-148q-127 0 -254 -2zM1208 219l312 8v332z" />
    <glyph glyph-name="onehalf" unicode="&#xbd;" 
d="M248 539q15 3 24 6q42 9 53.5 24.5t12.5 61.5l8 452q3 50 -4 78q-9 22 -70 35v27q109 26 203 59l4 -629q2 -59 17 -80.5t63 -33.5v-29h-311v29zM471 -51l789 1331h86l-787 -1333zM1278 535l-31 -3l-37 138q173 69 297 69q132 0 222 -72t90 -178q0 -129 -154 -192
l-129 -53q-153 -63 -211 -166l336 8q54 1 81 16t58 60l31 -8l-57 -183h-574q62 181 215 267l117 65q133 75 133 207q0 76 -54 127t-134 51q-155 0 -199 -153z" />
    <glyph glyph-name="threequarters" unicode="&#xbe;" 
d="M158 580l47 143l28 -10q16 -172 228 -172q101 0 161 46.5t60 123.5q0 80 -60 130t-155 50q-23 0 -84 -4v59q31 -4 82 -4q84 0 139 43t55 109q0 61 -48 102t-122 41q-162 0 -208 -156h-29l-35 138q148 63 291 63q133 0 214 -50.5t81 -133.5q0 -72 -50.5 -112.5
t-177.5 -70.5q146 -32 205.5 -78t59.5 -126q0 -96 -99 -157.5t-254 -61.5q-71 0 -149 16q-93 19 -180 72zM627 -43l786 1329h90l-790 -1333h-86v4zM1694 741v-510q20 -4 45 -4q78 0 141 74l25 -6l-39 -133l-170 6q0 -108 12.5 -133t71.5 -33v-29l-312 -2v29q51 8 68.5 32.5
t17.5 84.5v51l-401 -4l14 45l496 534zM1251 225l303 2v332z" />
    <glyph glyph-name="questiondown" unicode="&#xbf;" horiz-adv-x="1020" 
d="M389 485q148 119 172 318h39q-5 -98 -26 -151q-23 -58 -109 -185q-189 -275 -189 -430q0 -127 83.5 -204t218.5 -77q237 0 325 226l25 8l47 -193q-209 -88 -367 -88q-243 0 -385 116q-125 101 -125 243q0 125 111 253q55 64 180 164zM588 907q-40 0 -69.5 29.5
t-29.5 69.5q0 37 30 63.5t69 26.5q36 0 61 -27t25 -63q0 -40 -24.5 -69.5t-61.5 -29.5z" />
    <glyph glyph-name="Agrave" unicode="&#xc0;" horiz-adv-x="1700" 
d="M35 -4v29q78 20 143 112q76 106 322 551q184 334 350 672h14q69 -153 264 -536q208 -408 318 -599q71 -123 122 -165q26 -21 85 -35v-29q-140 4 -207 4q-76 0 -223 -4v29q65 17 65 84q0 34 -33 110q-35 83 -198 424h-527l-129 -252q-102 -200 -102 -274q0 -68 100 -92
v-29q-123 4 -182 4t-182 -4zM1034 692l-235 477l-248 -477h483zM1067 1497l-24 -43q-111 56 -199 96q-78 36 -275 113l93 149l193 -159q7 -5 11 -9q87 -67 201 -147z" />
    <glyph glyph-name="Aacute" unicode="&#xc1;" horiz-adv-x="1700" 
d="M35 -4v29q78 20 143 112q76 106 322 551q184 334 350 672h14q69 -153 264 -536q208 -408 318 -599q71 -123 122 -165q26 -21 85 -35v-29q-140 4 -207 4q-76 0 -223 -4v29q65 17 65 84q0 34 -33 110q-35 83 -198 424h-527l-129 -252q-102 -200 -102 -274q0 -68 100 -92
v-29q-123 4 -182 4t-182 -4zM1034 692l-235 477l-248 -477h483zM907 1575q-75 -33 -243 -121l-21 35q40 29 213 167q28 22 189 158l92 -143q-73 -30 -230 -96z" />
    <glyph glyph-name="Acircumflex" unicode="&#xc2;" horiz-adv-x="1700" 
d="M35 -4v29q78 20 143 112q76 106 322 551q184 334 350 672h14q69 -153 264 -536q208 -408 318 -599q71 -123 122 -165q26 -21 85 -35v-29q-140 4 -207 4q-76 0 -223 -4v29q65 17 65 84q0 34 -33 110q-35 83 -198 424h-527l-129 -252q-102 -200 -102 -274q0 -68 100 -92
v-29q-123 4 -182 4t-182 -4zM1034 692l-235 477l-248 -477h483zM610 1454h-59q110 122 301 358h33q86 -121 297 -358h-58q-76 56 -258 170q-86 -55 -256 -170z" />
    <glyph glyph-name="Atilde" unicode="&#xc3;" horiz-adv-x="1700" 
d="M35 -4v29q78 20 143 112q76 106 322 551q184 334 350 672h14q69 -153 264 -536q208 -408 318 -599q71 -123 122 -165q26 -21 85 -35v-29q-140 4 -207 4q-76 0 -223 -4v29q65 17 65 84q0 34 -33 110q-35 83 -198 424h-527l-129 -252q-102 -200 -102 -274q0 -68 100 -92
v-29q-123 4 -182 4t-182 -4zM1034 692l-235 477l-248 -477h483zM550 1460l-30 25q97 151 233 151q58 0 153 -36.5t146 -36.5q72 0 137 65l31 -26q-22 -50 -92 -96q-76 -52 -150 -52q-62 0 -151 35t-121 35q-78 0 -156 -64z" />
    <glyph glyph-name="Adieresis" unicode="&#xc4;" horiz-adv-x="1700" 
d="M35 -4v29q78 20 143 112q76 106 322 551q184 334 350 672h14q69 -153 264 -536q208 -408 318 -599q71 -123 122 -165q26 -21 85 -35v-29q-140 4 -207 4q-76 0 -223 -4v29q65 17 65 84q0 34 -33 110q-35 83 -198 424h-527l-129 -252q-102 -200 -102 -274q0 -68 100 -92
v-29q-123 4 -182 4t-182 -4zM1034 692l-235 477l-248 -477h483zM786 1546q0 -35 -25 -60.5t-61 -25.5q-35 0 -59.5 25.5t-24.5 60.5q0 36 24.5 61t59.5 25q36 0 61 -25t25 -61zM1116 1546q0 -35 -25 -60.5t-59 -25.5q-37 0 -62.5 25.5t-25.5 60.5q0 36 25.5 61t62.5 25
q34 0 59 -25.5t25 -60.5z" />
    <glyph glyph-name="Aring" unicode="&#xc5;" horiz-adv-x="1700" 
d="M35 -4v29q78 20 143 112q76 106 322 551q184 334 350 672h14q69 -153 264 -536q208 -408 318 -599q71 -123 122 -165q26 -21 85 -35v-29q-140 4 -207 4q-76 0 -223 -4v29q65 17 65 84q0 34 -33 110q-35 83 -198 424h-527l-129 -252q-102 -200 -102 -274q0 -68 100 -92
v-29q-123 4 -182 4t-182 -4zM1034 692l-235 477l-248 -477h483zM865 1454q-77 0 -132 53.5t-55 130.5t55 131.5t132 54.5q75 0 128.5 -54.5t53.5 -131.5q0 -75 -53.5 -129.5t-128.5 -54.5zM983 1638q0 49 -34.5 85t-83.5 36q-51 0 -86 -35.5t-35 -85.5q0 -49 35 -85t86 -36
q49 0 83.5 36t34.5 85z" />
    <glyph glyph-name="AE" unicode="&#xc6;" horiz-adv-x="2040" 
d="M35 -4v29q65 13 158 126q111 135 405 574q44 66 360 559h-96v45l475 -6q-2 0 508 6l60 -219l-25 -2q-72 92 -155 128q-101 44 -283 44q-130 0 -256 -6q0 -33 -1 -98.5t-1 -98.5q0 -59 1 -178t1 -178h178q158 0 232 28q67 26 104 93h22v-301h-30q-48 73 -95 96
q-68 33 -223 33h-188v-230q0 -197 15.5 -277.5t57.5 -102.5q29 -15 119 -15q263 0 404 55q115 44 205 154l26 -12l-78 -246q-78 0 -237 2t-238 2q-94 0 -281 -2t-280 -2v29q69 34 90 94q25 70 25 282v242h-414l-176 -276q-119 -187 -119 -250q0 -44 26 -64q17 -14 68 -28
v-29q-30 0 -93 2t-95 2q-30 0 -89 -2t-87 -2zM1014 993q0 132 -19 264l-362 -563h381v299z" />
    <glyph glyph-name="Ccedilla" unicode="&#xc7;" horiz-adv-x="1511" 
d="M864 -43q-365 3 -587 245q-189 207 -189 464q0 278 221 486q229 216 557 216q326 0 602 -176q-32 -69 -61 -158l-25 10q-15 102 -133 181q-146 98 -381 98q-245 0 -390 -132q-179 -164 -179 -513q0 -289 130 -465q155 -209 464 -209q223 0 376 100q122 79 138 164l25 6
l43 -149q-130 -89 -285 -131q-131 -36 -279 -39q-5 -13 -14 -41q-6 -15 -18 -55q57 14 75 14q119 0 119 -98q0 -67 -63 -108q-56 -38 -131 -38q-128 0 -248 56l31 45q91 -41 184 -41q39 0 72.5 20t33.5 51q0 47 -61 47q-27 0 -76 -24l-18 12q19 35 51 113q6 16 16 49z" />
    <glyph glyph-name="Egrave" unicode="&#xc8;" horiz-adv-x="1473" 
d="M119 -4v29q64 25 87 93q25 76 25 275v723q0 90 -12 120q-19 46 -84 62v31q166 -6 162 -6h672q-2 0 305 6l63 -213l-20 -10q-79 101 -173 136q-102 38 -315 38h-430v-557h389q170 0 242 26.5t98 96.5h27q-4 -98 -4 -144q0 -53 4 -159h-27q-43 88 -127 113q-59 18 -223 18
h-379q0 -296 15 -473q6 -81 32 -115q31 -39 101 -39h348q140 0 242 27q65 17 114 41q101 52 170 143l25 -10l-76 -252q-389 4 -1059 4q-65 0 -192 -4zM985 1497l-24 -43q-111 56 -199 96q-78 36 -275 113l93 149l193 -159q7 -5 11 -9q87 -67 201 -147z" />
    <glyph glyph-name="Eacute" unicode="&#xc9;" horiz-adv-x="1473" 
d="M119 -4v29q64 25 87 93q25 76 25 275v723q0 90 -12 120q-19 46 -84 62v31q166 -6 162 -6h672q-2 0 305 6l63 -213l-20 -10q-79 101 -173 136q-102 38 -315 38h-430v-557h389q170 0 242 26.5t98 96.5h27q-4 -98 -4 -144q0 -53 4 -159h-27q-43 88 -127 113q-59 18 -223 18
h-379q0 -296 15 -473q6 -81 32 -115q31 -39 101 -39h348q140 0 242 27q65 17 114 41q101 52 170 143l25 -10l-76 -252q-389 4 -1059 4q-65 0 -192 -4zM847 1575q-75 -33 -243 -121l-21 35q40 29 213 167q28 22 189 158l92 -143q-73 -30 -230 -96z" />
    <glyph glyph-name="Ecircumflex" unicode="&#xca;" horiz-adv-x="1473" 
d="M119 -4v29q64 25 87 93q25 76 25 275v723q0 90 -12 120q-19 46 -84 62v31q166 -6 162 -6h672q-2 0 305 6l63 -213l-20 -10q-79 101 -173 136q-102 38 -315 38h-430v-557h389q170 0 242 26.5t98 96.5h27q-4 -98 -4 -144q0 -53 4 -159h-27q-43 88 -127 113q-59 18 -223 18
h-379q0 -296 15 -473q6 -81 32 -115q31 -39 101 -39h348q140 0 242 27q65 17 114 41q101 52 170 143l25 -10l-76 -252q-389 4 -1059 4q-65 0 -192 -4zM542 1454h-59q110 122 301 358h33q86 -121 297 -358h-58q-76 56 -258 170q-86 -55 -256 -170z" />
    <glyph glyph-name="Edieresis" unicode="&#xcb;" horiz-adv-x="1473" 
d="M119 -4v29q64 25 87 93q25 76 25 275v723q0 90 -12 120q-19 46 -84 62v31q166 -6 162 -6h672q-2 0 305 6l63 -213l-20 -10q-79 101 -173 136q-102 38 -315 38h-430v-557h389q170 0 242 26.5t98 96.5h27q-4 -98 -4 -144q0 -53 4 -159h-27q-43 88 -127 113q-59 18 -223 18
h-379q0 -296 15 -473q6 -81 32 -115q31 -39 101 -39h348q140 0 242 27q65 17 114 41q101 52 170 143l25 -10l-76 -252q-389 4 -1059 4q-65 0 -192 -4zM710 1546q0 -35 -25 -60.5t-61 -25.5q-35 0 -59.5 25.5t-24.5 60.5q0 36 24.5 61t59.5 25q36 0 61 -25t25 -61zM1040 1546
q0 -35 -25 -60.5t-59 -25.5q-37 0 -62.5 25.5t-25.5 60.5q0 36 25.5 61t62.5 25q34 0 59 -25.5t25 -60.5z" />
    <glyph glyph-name="Igrave" unicode="&#xcc;" horiz-adv-x="604" 
d="M104 -4v29q54 24 78 69q35 67 35 344v701q0 76 -29 114q-21 29 -84 45v31q99 -6 195 -6q100 0 199 6v-31q-59 -7 -84 -43q-29 -40 -29 -116v-701q0 -212 27 -323q14 -59 86 -90v-29q-131 4 -199 4q-63 0 -195 -4zM567 1497l-24 -43q-111 56 -199 96q-78 36 -275 113
l93 149l193 -159q7 -5 11 -9q87 -67 201 -147z" />
    <glyph glyph-name="Iacute" unicode="&#xcd;" horiz-adv-x="604" 
d="M104 -4v29q54 24 78 69q35 67 35 344v701q0 76 -29 114q-21 29 -84 45v31q99 -6 195 -6q100 0 199 6v-31q-59 -7 -84 -43q-29 -40 -29 -116v-701q0 -212 27 -323q14 -59 86 -90v-29q-131 4 -199 4q-63 0 -195 -4zM344 1575q-75 -33 -243 -121l-21 35q40 29 213 167
q28 22 189 158l92 -143q-73 -30 -230 -96z" />
    <glyph glyph-name="Icircumflex" unicode="&#xce;" horiz-adv-x="604" 
d="M104 -4v29q54 24 78 69q35 67 35 344v701q0 76 -29 114q-21 29 -84 45v31q99 -6 195 -6q100 0 199 6v-31q-59 -7 -84 -43q-29 -40 -29 -116v-701q0 -212 27 -323q14 -59 86 -90v-29q-131 4 -199 4q-63 0 -195 -4zM45 1454h-59q110 122 301 358h33q86 -121 297 -358h-58
q-76 56 -258 170q-86 -55 -256 -170z" />
    <glyph glyph-name="Idieresis" unicode="&#xcf;" horiz-adv-x="604" 
d="M104 -4v29q54 24 78 69q35 67 35 344v701q0 76 -29 114q-21 29 -84 45v31q99 -6 195 -6q100 0 199 6v-31q-59 -7 -84 -43q-29 -40 -29 -116v-701q0 -212 27 -323q14 -59 86 -90v-29q-131 4 -199 4q-63 0 -195 -4zM231 1546q0 -35 -25 -60.5t-61 -25.5q-35 0 -59.5 25.5
t-24.5 60.5q0 36 24.5 61t59.5 25q36 0 61 -25t25 -61zM561 1546q0 -35 -25 -60.5t-59 -25.5q-37 0 -62.5 25.5t-25.5 60.5q0 36 25.5 61t62.5 25q34 0 59 -25.5t25 -60.5z" />
    <glyph glyph-name="Eth" unicode="&#xd0;" horiz-adv-x="1630" 
d="M121 -2l2 29q44 20 61 47q47 71 47 375v221h-174v61h174v404q0 85 -28 122q-14 18 -74 46v26q133 -6 330 -6h291q211 0 366 -47q192 -58 310 -225t118 -379q0 -187 -94 -346q-106 -179 -264 -254.5t-430 -73.5h-635zM397 1280v-549h297v-61h-297q3 -280 15 -461
q5 -76 30 -112t78 -45t230 -9q324 0 454.5 149t130.5 521q0 199 -86 358q-110 205 -501 207z" />
    <glyph glyph-name="Ntilde" unicode="&#xd1;" horiz-adv-x="1624" 
d="M246 0q-39 0 -121 -4v29q50 20 68 51q32 57 32 373v579q0 166 -12.5 204.5t-77.5 65.5v31l141 -6q3 0 125 6q324 -402 959 -1046v491q0 407 -35 473q-14 28 -72 51v31l136 -6q-3 0 120 6v-31q-48 -11 -71 -55q-14 -26 -26 -179q-11 -141 -11 -257v-860q-296 355 -617 706
q-149 166 -510 539v-756q0 -293 29 -352q17 -35 82 -59v-29q-94 4 -139 4zM550 1460l-30 25q97 151 233 151q58 0 153 -36.5t146 -36.5q72 0 137 65l31 -26q-22 -50 -92 -96q-76 -52 -150 -52q-62 0 -151 35t-121 35q-78 0 -156 -64z" />
    <glyph glyph-name="Ograve" unicode="&#xd2;" horiz-adv-x="1700" 
d="M856 -45q-325 0 -542 208q-224 216 -224 556q0 228 213 430q231 219 545 219q323 0 550 -220q214 -208 214 -472q0 -286 -214 -500q-223 -221 -542 -221zM1401 682q0 397 -224 551q-131 90 -333 90q-332 0 -468 -265q-77 -148 -77 -329q0 -341 110 -515
q133 -212 441 -212q551 0 551 680zM1118 1497l-24 -43q-111 56 -199 96q-78 36 -275 113l93 149l193 -159q7 -5 11 -9q87 -67 201 -147z" />
    <glyph glyph-name="Oacute" unicode="&#xd3;" horiz-adv-x="1700" 
d="M856 -45q-325 0 -542 208q-224 216 -224 556q0 228 213 430q231 219 545 219q323 0 550 -220q214 -208 214 -472q0 -286 -214 -500q-223 -221 -542 -221zM1401 682q0 397 -224 551q-131 90 -333 90q-332 0 -468 -265q-77 -148 -77 -329q0 -341 110 -515
q133 -212 441 -212q551 0 551 680zM929 1575q-75 -33 -243 -121l-21 35q40 29 213 167q28 22 189 158l92 -143q-73 -30 -230 -96z" />
    <glyph glyph-name="Ocircumflex" unicode="&#xd4;" horiz-adv-x="1700" 
d="M856 -45q-325 0 -542 208q-224 216 -224 556q0 228 213 430q231 219 545 219q323 0 550 -220q214 -208 214 -472q0 -286 -214 -500q-223 -221 -542 -221zM1401 682q0 397 -224 551q-131 90 -333 90q-332 0 -468 -265q-77 -148 -77 -329q0 -341 110 -515
q133 -212 441 -212q551 0 551 680zM604 1454h-59q110 122 301 358h33q86 -121 297 -358h-58q-76 56 -258 170q-86 -55 -256 -170z" />
    <glyph glyph-name="Otilde" unicode="&#xd5;" horiz-adv-x="1700" 
d="M856 -45q-325 0 -542 208q-224 216 -224 556q0 228 213 430q231 219 545 219q323 0 550 -220q214 -208 214 -472q0 -286 -214 -500q-223 -221 -542 -221zM1401 682q0 397 -224 551q-131 90 -333 90q-332 0 -468 -265q-77 -148 -77 -329q0 -341 110 -515
q133 -212 441 -212q551 0 551 680zM557 1460l-30 25q97 151 233 151q58 0 153 -36.5t146 -36.5q72 0 137 65l31 -26q-22 -50 -92 -96q-76 -52 -150 -52q-62 0 -151 35t-121 35q-78 0 -156 -64z" />
    <glyph glyph-name="Odieresis" unicode="&#xd6;" horiz-adv-x="1700" 
d="M856 -45q-325 0 -542 208q-224 216 -224 556q0 228 213 430q231 219 545 219q323 0 550 -220q214 -208 214 -472q0 -286 -214 -500q-223 -221 -542 -221zM1401 682q0 397 -224 551q-131 90 -333 90q-332 0 -468 -265q-77 -148 -77 -329q0 -341 110 -515
q133 -212 441 -212q551 0 551 680zM813 1546q0 -35 -25 -60.5t-61 -25.5q-35 0 -59.5 25.5t-24.5 60.5q0 36 24.5 61t59.5 25q36 0 61 -25t25 -61zM1143 1546q0 -35 -25 -60.5t-59 -25.5q-37 0 -62.5 25.5t-25.5 60.5q0 36 25.5 61t62.5 25q34 0 59 -25.5t25 -60.5z" />
    <glyph glyph-name="multiply" unicode="&#xd7;" horiz-adv-x="2040" 
d="M510 33l436 434l-436 436l78 78l438 -436l436 436l80 -78l-436 -436l436 -434l-80 -80l-436 434l-438 -434z" />
    <glyph glyph-name="Oslash" unicode="&#xd8;" horiz-adv-x="1700" 
d="M1309 1231l129 141h94l-166 -184q254 -222 254 -520q0 -291 -227 -503t-537 -212q-259 0 -465 147l-143 -159h-105l189 209q-112 98 -178 240t-66 284q0 286 227.5 493t540.5 207q145 0 233.5 -28t219.5 -115zM1257 1174q-138 153 -403 153q-269 0 -412 -168.5
t-143 -486.5q0 -268 102 -445zM1300 1114l-854 -952q134 -162 410 -162q551 0 551 674q0 266 -107 440z" />
    <glyph glyph-name="Ugrave" unicode="&#xd9;" horiz-adv-x="1624" 
d="M145 1298v31l166 -6q-2 0 176 6v-31q-69 -24 -86 -98q-14 -64 -14 -223v-402q0 -259 68 -382q104 -187 387 -187q301 0 422 148q102 126 102 405v426q0 202 -37 258q-27 41 -82 55v31q142 -6 139 -6l166 6v-31q-67 -12 -96 -79q-37 -85 -37 -172v-422q0 -314 -73 -445
q-127 -225 -517 -225q-402 0 -535 209q-77 120 -77 395q0 51 6 153.5t6 153.5q0 330 -12 365q-17 49 -72 67zM1091 1497l-24 -43q-111 56 -199 96q-78 36 -275 113l93 149l193 -159q7 -5 11 -9q87 -67 201 -147z" />
    <glyph glyph-name="Uacute" unicode="&#xda;" horiz-adv-x="1624" 
d="M145 1298v31l166 -6q-2 0 176 6v-31q-69 -24 -86 -98q-14 -64 -14 -223v-402q0 -259 68 -382q104 -187 387 -187q301 0 422 148q102 126 102 405v426q0 202 -37 258q-27 41 -82 55v31q142 -6 139 -6l166 6v-31q-67 -12 -96 -79q-37 -85 -37 -172v-422q0 -314 -73 -445
q-127 -225 -517 -225q-402 0 -535 209q-77 120 -77 395q0 51 6 153.5t6 153.5q0 330 -12 365q-17 49 -72 67zM956 1575q-75 -33 -243 -121l-21 35q40 29 213 167q28 22 189 158l92 -143q-73 -30 -230 -96z" />
    <glyph glyph-name="Ucircumflex" unicode="&#xdb;" horiz-adv-x="1624" 
d="M145 1298v31l166 -6q-2 0 176 6v-31q-69 -24 -86 -98q-14 -64 -14 -223v-402q0 -259 68 -382q104 -187 387 -187q301 0 422 148q102 126 102 405v426q0 202 -37 258q-27 41 -82 55v31q142 -6 139 -6l166 6v-31q-67 -12 -96 -79q-37 -85 -37 -172v-422q0 -314 -73 -445
q-127 -225 -517 -225q-402 0 -535 209q-77 120 -77 395q0 51 6 153.5t6 153.5q0 330 -12 365q-17 49 -72 67zM639 1454h-59q110 122 301 358h33q86 -121 297 -358h-58q-76 56 -258 170q-86 -55 -256 -170z" />
    <glyph glyph-name="Udieresis" unicode="&#xdc;" horiz-adv-x="1624" 
d="M145 1298v31l166 -6q-2 0 176 6v-31q-69 -24 -86 -98q-14 -64 -14 -223v-402q0 -259 68 -382q104 -187 387 -187q301 0 422 148q102 126 102 405v426q0 202 -37 258q-27 41 -82 55v31q142 -6 139 -6l166 6v-31q-67 -12 -96 -79q-37 -85 -37 -172v-422q0 -314 -73 -445
q-127 -225 -517 -225q-402 0 -535 209q-77 120 -77 395q0 51 6 153.5t6 153.5q0 330 -12 365q-17 49 -72 67zM825 1546q0 -35 -25 -60.5t-61 -25.5q-35 0 -59.5 25.5t-24.5 60.5q0 36 24.5 61t59.5 25q36 0 61 -25t25 -61zM1155 1546q0 -35 -25 -60.5t-59 -25.5
q-37 0 -62.5 25.5t-25.5 60.5q0 36 25.5 61t62.5 25q34 0 59 -25.5t25 -60.5z" />
    <glyph glyph-name="Yacute" unicode="&#xdd;" horiz-adv-x="1585" 
d="M59 1298v31q191 -6 193 -6l209 6v-31q-53 -17 -53 -67q0 -49 99 -182q76 -102 324 -400q433 497 433 586q0 53 -80 63v31q184 -6 188 -6q-2 0 195 6v-31q-74 -8 -108 -30q-43 -27 -166.5 -155t-434.5 -519v-340q0 -147 25 -182q20 -29 94 -47v-29q-135 4 -205 4
q-65 0 -192 -4v29q63 16 84 53q26 47 26 168v311q-347 490 -432 591q-106 127 -199 150zM862 1575q-75 -33 -243 -121l-21 35q40 29 213 167q28 22 189 158l92 -143q-73 -30 -230 -96z" />
    <glyph glyph-name="Thorn" unicode="&#xde;" horiz-adv-x="1442" 
d="M121 25q56 24 75 61t23 131l10 221l2 111v567q0 103 -21.5 139t-92.5 52v30q117 -8 196 -8q80 0 197 8v-30q-69 -16 -91 -55.5t-22 -149.5q0 -43 2 -82l379 4q38 2 74 2q247 0 391 -96q139 -93 139 -244q0 -172 -208.5 -269.5t-577.5 -97.5q-64 0 -193 7q4 -56 5 -78
q4 -111 25.5 -155t82.5 -68v-31l-199 4q-20 0 -196 -4v31zM399 977q0 -48 -1 -112.5t-1 -82.5q0 -139 9 -409q86 -6 184 -6q230 0 364 34q110 29 173 104.5t63 178.5q0 155 -104 224t-338 69h-349z" />
    <glyph glyph-name="germandbls" unicode="&#xdf;" horiz-adv-x="1360" 
d="M227 946h-170l19 58h151q14 196 70 304q101 193 346 193q184 0 289 -90q90 -79 90 -190q0 -197 -295 -238q210 -28 348 -127q191 -136 191 -377q0 -252 -180 -393q-158 -125 -396 -125q-112 0 -213 33q49 107 72 188l24 -18q0 -91 71 -130q44 -24 97 -24q141 0 239 100
q114 116 114 320q0 184 -86 314q-133 202 -441 202q-15 0 -82 -10v68q400 4 400 231q0 88 -68 152q-72 67 -180 67q-279 0 -279 -338q0 -473 50 -1120q-95 4 -142 4q-55 0 -162 -4v27q67 11 95 57.5t28 214.5v651z" />
    <glyph glyph-name="agrave" unicode="&#xe0;" horiz-adv-x="1284" 
d="M383 590q242 57 569 57q2 197 -66 290q-81 112 -284 112q-196 0 -307 -76q-82 -56 -94 -129l-27 -8q-25 81 -55 149q246 111 495 111q315 0 414 -160q63 -101 66 -383q3 -378 14 -430t26 -70.5t54 -27.5v-29q-62 4 -90 4q-27 0 -88 -4q-19 48 -54 201q-31 -74 -110 -138
q-121 -98 -289 -98q-182 0 -313 68q-168 87 -168 260q0 106 88 189q84 80 219 112zM565 10q227 0 325 170q62 107 62 252v166q-24 0 -73.5 1t-75.5 1q-209 0 -345 -50q-208 -77 -208 -259q0 -127 80 -202q84 -79 235 -79zM895 1227l-24 -43q-111 56 -199 96q-78 36 -275 113
l93 149l193 -159q7 -5 11 -9q87 -67 201 -147z" />
    <glyph glyph-name="aacute" unicode="&#xe1;" horiz-adv-x="1284" 
d="M383 590q242 57 569 57q2 197 -66 290q-81 112 -284 112q-196 0 -307 -76q-82 -56 -94 -129l-27 -8q-25 81 -55 149q246 111 495 111q315 0 414 -160q63 -101 66 -383q3 -378 14 -430t26 -70.5t54 -27.5v-29q-62 4 -90 4q-27 0 -88 -4q-19 48 -54 201q-31 -74 -110 -138
q-121 -98 -289 -98q-182 0 -313 68q-168 87 -168 260q0 106 88 189q84 80 219 112zM565 10q227 0 325 170q62 107 62 252v166q-24 0 -73.5 1t-75.5 1q-209 0 -345 -50q-208 -77 -208 -259q0 -127 80 -202q84 -79 235 -79zM702 1305q-75 -33 -243 -121l-21 35q40 29 213 167
q28 22 189 158l92 -143q-73 -30 -230 -96z" />
    <glyph glyph-name="acircumflex" unicode="&#xe2;" horiz-adv-x="1284" 
d="M383 590q242 57 569 57q2 197 -66 290q-81 112 -284 112q-196 0 -307 -76q-82 -56 -94 -129l-27 -8q-25 81 -55 149q246 111 495 111q315 0 414 -160q63 -101 66 -383q3 -378 14 -430t26 -70.5t54 -27.5v-29q-62 4 -90 4q-27 0 -88 -4q-19 48 -54 201q-31 -74 -110 -138
q-121 -98 -289 -98q-182 0 -313 68q-168 87 -168 260q0 106 88 189q84 80 219 112zM565 10q227 0 325 170q62 107 62 252v166q-24 0 -73.5 1t-75.5 1q-209 0 -345 -50q-208 -77 -208 -259q0 -127 80 -202q84 -79 235 -79zM413 1184h-59q110 122 301 358h33q86 -121 297 -358
h-58q-76 56 -258 170q-86 -55 -256 -170z" />
    <glyph glyph-name="atilde" unicode="&#xe3;" horiz-adv-x="1284" 
d="M383 590q242 57 569 57q2 197 -66 290q-81 112 -284 112q-196 0 -307 -76q-82 -56 -94 -129l-27 -8q-25 81 -55 149q246 111 495 111q315 0 414 -160q63 -101 66 -383q3 -378 14 -430t26 -70.5t54 -27.5v-29q-62 4 -90 4q-27 0 -88 -4q-19 48 -54 201q-31 -74 -110 -138
q-121 -98 -289 -98q-182 0 -313 68q-168 87 -168 260q0 106 88 189q84 80 219 112zM565 10q227 0 325 170q62 107 62 252v166q-24 0 -73.5 1t-75.5 1q-209 0 -345 -50q-208 -77 -208 -259q0 -127 80 -202q84 -79 235 -79zM348 1247l-30 25q97 151 233 151q58 0 153 -36.5
t146 -36.5q72 0 137 65l31 -26q-22 -50 -92 -96q-76 -52 -150 -52q-62 0 -151 35t-121 35q-78 0 -156 -64z" />
    <glyph glyph-name="adieresis" unicode="&#xe4;" horiz-adv-x="1284" 
d="M383 590q242 57 569 57q2 197 -66 290q-81 112 -284 112q-196 0 -307 -76q-82 -56 -94 -129l-27 -8q-25 81 -55 149q246 111 495 111q315 0 414 -160q63 -101 66 -383q3 -378 14 -430t26 -70.5t54 -27.5v-29q-62 4 -90 4q-27 0 -88 -4q-19 48 -54 201q-31 -74 -110 -138
q-121 -98 -289 -98q-182 0 -313 68q-168 87 -168 260q0 106 88 189q84 80 219 112zM565 10q227 0 325 170q62 107 62 252v166q-24 0 -73.5 1t-75.5 1q-209 0 -345 -50q-208 -77 -208 -259q0 -127 80 -202q84 -79 235 -79zM592 1333q0 -35 -25 -60.5t-61 -25.5
q-35 0 -59.5 25.5t-24.5 60.5q0 36 24.5 61t59.5 25q36 0 61 -25t25 -61zM922 1333q0 -35 -25 -60.5t-59 -25.5q-37 0 -62.5 25.5t-25.5 60.5q0 36 25.5 61t62.5 25q34 0 59 -25.5t25 -60.5z" />
    <glyph glyph-name="aring" unicode="&#xe5;" horiz-adv-x="1284" 
d="M383 590q242 57 569 57q2 197 -66 290q-81 112 -284 112q-196 0 -307 -76q-82 -56 -94 -129l-27 -8q-25 81 -55 149q246 111 495 111q315 0 414 -160q63 -101 66 -383q3 -378 14 -430t26 -70.5t54 -27.5v-29q-62 4 -90 4q-27 0 -88 -4q-19 48 -54 201q-31 -74 -110 -138
q-121 -98 -289 -98q-182 0 -313 68q-168 87 -168 260q0 106 88 189q84 80 219 112zM565 10q227 0 325 170q62 107 62 252v166q-24 0 -73.5 1t-75.5 1q-209 0 -345 -50q-208 -77 -208 -259q0 -127 80 -202q84 -79 235 -79zM672 1184q-77 0 -132 53.5t-55 130.5t55 131.5
t132 54.5q75 0 128.5 -54.5t53.5 -131.5q0 -75 -53.5 -129.5t-128.5 -54.5zM790 1368q0 49 -34.5 85t-83.5 36q-51 0 -86 -35.5t-35 -85.5q0 -49 35 -85t86 -36q49 0 83.5 36t34.5 85z" />
    <glyph glyph-name="ae" unicode="&#xe6;" horiz-adv-x="2118" 
d="M948 651q-6 224 -82.5 310t-267.5 86q-333 0 -401 -207l-27 -9q-22 71 -53 152q38 19 67 31q208 82 449 82q313 0 432 -213q28 33 59 61q166 152 406 152q196 0 337.5 -115.5t172.5 -300.5h-897q-13 -108 -13 -176q0 -237 106 -368.5t296 -131.5q357 0 493 416l41 -39
q-135 -424 -550 -424q-369 0 -512 328q-105 -328 -476 -328q-196 0 -325 92t-129 234q0 157 141 241q119 71 330 103q107 16 403 24zM954 598q-63 2 -155 2q-547 0 -547 -313q0 -129 84.5 -201t236.5 -72q383 0 383 478q0 57 -2 106zM1845 727q-16 320 -307 320
q-166 0 -276 -111q-69 -69 -109 -209h692z" />
    <glyph glyph-name="ccedilla" unicode="&#xe7;" horiz-adv-x="1208" 
d="M641 -43q-267 0 -428 193q-139 167 -139 382q0 232 163 391q177 173 472 173q165 0 307 -52q93 -34 139 -71q-34 -99 -49 -162l-23 4q-23 84 -96 146q-107 90 -289 90q-442 0 -442 -523q0 -528 428 -528q296 0 459 268l26 -39q-74 -117 -165 -178q-130 -86 -316 -96
q-5 -13 -14 -41q-6 -15 -19 -55q58 14 76 14q119 0 119 -98q0 -67 -63 -108q-56 -38 -132 -38q-128 0 -247 56l30 45q92 -41 185 -41q39 0 72.5 20t33.5 51q0 47 -61 47q-27 0 -76 -24l-19 12q19 35 52 113q6 16 16 49z" />
    <glyph glyph-name="egrave" unicode="&#xe8;" horiz-adv-x="1247" 
d="M1171 678h-915q-10 -85 -10 -158q0 -512 420 -512q205 0 345 152q94 102 144 254l39 -31q-33 -138 -145 -256q-158 -166 -392 -166q-256 0 -422.5 164t-166.5 407q0 213 143 374q169 190 459 190q223 0 370 -159q115 -123 131 -259zM977 727q0 99 -43 177
q-79 143 -272 143q-309 0 -394 -320h709zM923 1227l-24 -43q-111 56 -199 96q-78 36 -275 113l93 149l193 -159q7 -5 11 -9q87 -67 201 -147z" />
    <glyph glyph-name="eacute" unicode="&#xe9;" horiz-adv-x="1247" 
d="M1171 678h-915q-10 -85 -10 -158q0 -512 420 -512q205 0 345 152q94 102 144 254l39 -31q-33 -138 -145 -256q-158 -166 -392 -166q-256 0 -422.5 164t-166.5 407q0 213 143 374q169 190 459 190q223 0 370 -159q115 -123 131 -259zM977 727q0 99 -43 177
q-79 143 -272 143q-309 0 -394 -320h709zM716 1305q-75 -33 -243 -121l-21 35q40 29 213 167q28 22 189 158l92 -143q-73 -30 -230 -96z" />
    <glyph glyph-name="ecircumflex" unicode="&#xea;" horiz-adv-x="1247" 
d="M1171 678h-915q-10 -85 -10 -158q0 -512 420 -512q205 0 345 152q94 102 144 254l39 -31q-33 -138 -145 -256q-158 -166 -392 -166q-256 0 -422.5 164t-166.5 407q0 213 143 374q169 190 459 190q223 0 370 -159q115 -123 131 -259zM977 727q0 99 -43 177
q-79 143 -272 143q-309 0 -394 -320h709zM413 1184h-59q110 122 301 358h33q86 -121 297 -358h-58q-76 56 -258 170q-86 -55 -256 -170z" />
    <glyph glyph-name="edieresis" unicode="&#xeb;" horiz-adv-x="1247" 
d="M1171 678h-915q-10 -85 -10 -158q0 -512 420 -512q205 0 345 152q94 102 144 254l39 -31q-33 -138 -145 -256q-158 -166 -392 -166q-256 0 -422.5 164t-166.5 407q0 213 143 374q169 190 459 190q223 0 370 -159q115 -123 131 -259zM977 727q0 99 -43 177
q-79 143 -272 143q-309 0 -394 -320h709zM581 1333q0 -35 -25 -60.5t-61 -25.5q-35 0 -59.5 25.5t-24.5 60.5q0 36 24.5 61t59.5 25q36 0 61 -25t25 -61zM911 1333q0 -35 -25 -60.5t-59 -25.5q-37 0 -62.5 25.5t-25.5 60.5q0 36 25.5 61t62.5 25q34 0 59 -25.5t25 -60.5z
" />
    <glyph glyph-name="igrave" unicode="&#xec;" horiz-adv-x="528" 
d="M80 -4v29q46 3 67 30q29 35 39 125q15 125 15 283q0 269 -4 342q-5 105 -27 136q-16 24 -72 34v26q70 15 238 62v-684q0 -180 18 -246q27 -95 99 -108v-29q-123 4 -187 4q-59 0 -186 -4zM502 1227l-24 -43q-111 56 -199 96q-78 36 -275 113l93 149l193 -159q7 -5 11 -9
q87 -67 201 -147z" />
    <glyph glyph-name="iacute" unicode="&#xed;" horiz-adv-x="528" 
d="M80 -4v29q46 3 67 30q29 35 39 125q15 125 15 283q0 269 -4 342q-5 105 -27 136q-16 24 -72 34v26q70 15 238 62v-684q0 -180 18 -246q27 -95 99 -108v-29q-123 4 -187 4q-59 0 -186 -4zM290 1305q-75 -33 -243 -121l-21 35q40 29 213 167q28 22 189 158l92 -143
q-73 -30 -230 -96z" />
    <glyph glyph-name="icircumflex" unicode="&#xee;" horiz-adv-x="528" 
d="M80 -4v29q46 3 67 30q29 35 39 125q15 125 15 283q0 269 -4 342q-5 105 -27 136q-16 24 -72 34v26q70 15 238 62v-684q0 -180 18 -246q27 -95 99 -108v-29q-123 4 -187 4q-59 0 -186 -4zM6 1184h-59q110 122 301 358h33q86 -121 297 -358h-58q-76 56 -258 170
q-86 -55 -256 -170z" />
    <glyph glyph-name="idieresis" unicode="&#xef;" horiz-adv-x="528" 
d="M80 -4v29q46 3 67 30q29 35 39 125q15 125 15 283q0 269 -4 342q-5 105 -27 136q-16 24 -72 34v26q70 15 238 62v-684q0 -180 18 -246q27 -95 99 -108v-29q-123 4 -187 4q-59 0 -186 -4zM178 1333q0 -35 -25 -60.5t-61 -25.5q-35 0 -59.5 25.5t-24.5 60.5q0 36 24.5 61
t59.5 25q36 0 61 -25t25 -61zM508 1333q0 -35 -25 -60.5t-59 -25.5q-37 0 -62.5 25.5t-25.5 60.5q0 36 25.5 61t62.5 25q34 0 59 -25.5t25 -60.5z" />
    <glyph glyph-name="eth" unicode="&#xf0;" horiz-adv-x="1366" 
d="M743 1323l-231 -123l-43 33l231 121l-10 6q-84 51 -117 67q-57 29 -135 56l72 22q130 -27 274 -108l189 98l41 -31l-180 -96q210 -135 332 -348.5t122 -446.5q0 -282 -164.5 -449t-443.5 -167q-261 0 -432.5 162.5t-171.5 410.5t174.5 409t441.5 161q165 0 316 -90
q-83 131 -123 180q-60 74 -142 133zM258 549q0 -545 422 -545q430 0 430 547q0 238 -112 369t-316 131t-314 -130.5t-110 -371.5z" />
    <glyph glyph-name="ntilde" unicode="&#xf1;" horiz-adv-x="1397" 
d="M86 -4v27q84 32 96 112q19 120 19 252v322q0 153 -21 206q-18 48 -80 58v28q129 28 242 62v-324q17 120 108 223q119 134 302 134q288 0 387 -188q61 -114 61 -361q0 -200 10 -418q4 -87 99 -106v-27q-123 4 -183 4q-65 0 -192 -4v27q78 19 100 100q21 75 21 371
q0 235 -42 348q-74 200 -290 200q-235 0 -328 -273q-47 -137 -47 -284v-239q0 -135 29 -179q16 -24 74 -44v-27q-132 4 -199 4q-55 0 -166 -4zM423 1247l-30 25q97 151 233 151q58 0 153 -36.5t146 -36.5q72 0 137 65l31 -26q-22 -50 -92 -96q-76 -52 -150 -52
q-62 0 -151 35t-121 35q-78 0 -156 -64z" />
    <glyph glyph-name="ograve" unicode="&#xf2;" horiz-adv-x="1360" 
d="M676 -39q-266 0 -434 162t-168 428q0 213 164 373q176 172 446 172q297 0 463 -203q135 -164 135 -369q0 -236 -163 -396q-171 -167 -443 -167zM1104 520q0 527 -428 527q-225 0 -333 -158q-91 -131 -91 -350q0 -533 420 -533q225 0 335 150q97 131 97 364zM913 1227
l-24 -43q-111 56 -199 96q-78 36 -275 113l93 149l193 -159q7 -5 11 -9q87 -67 201 -147z" />
    <glyph glyph-name="oacute" unicode="&#xf3;" horiz-adv-x="1360" 
d="M676 -39q-266 0 -434 162t-168 428q0 213 164 373q176 172 446 172q297 0 463 -203q135 -164 135 -369q0 -236 -163 -396q-171 -167 -443 -167zM1104 520q0 527 -428 527q-225 0 -333 -158q-91 -131 -91 -350q0 -533 420 -533q225 0 335 150q97 131 97 364zM757 1305
q-75 -33 -243 -121l-21 35q40 29 213 167q28 22 189 158l92 -143q-73 -30 -230 -96z" />
    <glyph glyph-name="ocircumflex" unicode="&#xf4;" horiz-adv-x="1360" 
d="M676 -39q-266 0 -434 162t-168 428q0 213 164 373q176 172 446 172q297 0 463 -203q135 -164 135 -369q0 -236 -163 -396q-171 -167 -443 -167zM1104 520q0 527 -428 527q-225 0 -333 -158q-91 -131 -91 -350q0 -533 420 -533q225 0 335 150q97 131 97 364zM454 1184h-59
q110 122 301 358h33q86 -121 297 -358h-58q-76 56 -258 170q-86 -55 -256 -170z" />
    <glyph glyph-name="otilde" unicode="&#xf5;" horiz-adv-x="1360" 
d="M676 -39q-266 0 -434 162t-168 428q0 213 164 373q176 172 446 172q297 0 463 -203q135 -164 135 -369q0 -236 -163 -396q-171 -167 -443 -167zM1104 520q0 527 -428 527q-225 0 -333 -158q-91 -131 -91 -350q0 -533 420 -533q225 0 335 150q97 131 97 364zM380 1247
l-30 25q97 151 233 151q58 0 153 -36.5t146 -36.5q72 0 137 65l31 -26q-22 -50 -92 -96q-76 -52 -150 -52q-62 0 -151 35t-121 35q-78 0 -156 -64z" />
    <glyph glyph-name="odieresis" unicode="&#xf6;" horiz-adv-x="1360" 
d="M676 -39q-266 0 -434 162t-168 428q0 213 164 373q176 172 446 172q297 0 463 -203q135 -164 135 -369q0 -236 -163 -396q-171 -167 -443 -167zM1104 520q0 527 -428 527q-225 0 -333 -158q-91 -131 -91 -350q0 -533 420 -533q225 0 335 150q97 131 97 364zM614 1333
q0 -35 -25 -60.5t-61 -25.5q-35 0 -59.5 25.5t-24.5 60.5q0 36 24.5 61t59.5 25q36 0 61 -25t25 -61zM944 1333q0 -35 -25 -60.5t-59 -25.5q-37 0 -62.5 25.5t-25.5 60.5q0 36 25.5 61t62.5 25q34 0 59 -25.5t25 -60.5z" />
    <glyph glyph-name="divide" unicode="&#xf7;" horiz-adv-x="2040" 
d="M514 414v106h1014v-106h-1014zM1022 651q-37 0 -63.5 25.5t-26.5 60.5q0 37 26.5 62.5t63.5 25.5q35 0 59.5 -26t24.5 -62q0 -35 -24.5 -60.5t-59.5 -25.5zM1022 104q-38 0 -64 27.5t-26 65.5q0 34 27 58t63 24q34 0 59 -24t25 -58q0 -38 -24 -65.5t-60 -27.5z" />
    <glyph glyph-name="oslash" unicode="&#xf8;" horiz-adv-x="1360" 
d="M1057 989l108 125h86l-145 -166q182 -182 182 -424q0 -244 -173 -404.5t-437 -160.5q-202 0 -348 96l-125 -143h-88l159 182q-202 175 -202 434q0 246 173.5 410t434.5 164q221 0 375 -113zM997 924q-113 129 -319 129q-424 0 -424 -523q0 -229 86 -362zM1036 866
l-655 -749q109 -113 291 -113q210 0 323 132t113 378q0 127 -13.5 192.5t-58.5 159.5z" />
    <glyph glyph-name="ugrave" unicode="&#xf9;" horiz-adv-x="1397" 
d="M74 973v28q127 24 239 62v-586q0 -461 326 -461q239 0 329 230q62 158 62 479q0 161 -33 214q-22 36 -77 34v28q141 25 251 62v-299q0 -293 15 -567q4 -88 20 -121q22 -46 82 -51v-29q-17 0 -53 2t-53 2q-15 0 -43.5 -2t-42.5 -2q-52 95 -78 246q-63 -132 -144 -197
q-104 -84 -266 -84q-279 0 -375 177q-61 111 -61 364v219q0 164 -22 212q-17 36 -76 40zM893 1227l-24 -43q-111 56 -199 96q-78 36 -275 113l93 149l193 -159q7 -5 11 -9q87 -67 201 -147z" />
    <glyph glyph-name="uacute" unicode="&#xfa;" horiz-adv-x="1397" 
d="M74 973v28q127 24 239 62v-586q0 -461 326 -461q239 0 329 230q62 158 62 479q0 161 -33 214q-22 36 -77 34v28q141 25 251 62v-299q0 -293 15 -567q4 -88 20 -121q22 -46 82 -51v-29q-17 0 -53 2t-53 2q-15 0 -43.5 -2t-42.5 -2q-52 95 -78 246q-63 -132 -144 -197
q-104 -84 -266 -84q-279 0 -375 177q-61 111 -61 364v219q0 164 -22 212q-17 36 -76 40zM751 1305q-75 -33 -243 -121l-21 35q40 29 213 167q28 22 189 158l92 -143q-73 -30 -230 -96z" />
    <glyph glyph-name="ucircumflex" unicode="&#xfb;" horiz-adv-x="1397" 
d="M74 973v28q127 24 239 62v-586q0 -461 326 -461q239 0 329 230q62 158 62 479q0 161 -33 214q-22 36 -77 34v28q141 25 251 62v-299q0 -293 15 -567q4 -88 20 -121q22 -46 82 -51v-29q-17 0 -53 2t-53 2q-15 0 -43.5 -2t-42.5 -2q-52 95 -78 246q-63 -132 -144 -197
q-104 -84 -266 -84q-279 0 -375 177q-61 111 -61 364v219q0 164 -22 212q-17 36 -76 40zM434 1184h-59q110 122 301 358h33q86 -121 297 -358h-58q-76 56 -258 170q-86 -55 -256 -170z" />
    <glyph glyph-name="udieresis" unicode="&#xfc;" horiz-adv-x="1397" 
d="M74 973v28q127 24 239 62v-586q0 -461 326 -461q239 0 329 230q62 158 62 479q0 161 -33 214q-22 36 -77 34v28q141 25 251 62v-299q0 -293 15 -567q4 -88 20 -121q22 -46 82 -51v-29q-17 0 -53 2t-53 2q-15 0 -43.5 -2t-42.5 -2q-52 95 -78 246q-63 -132 -144 -197
q-104 -84 -266 -84q-279 0 -375 177q-61 111 -61 364v219q0 164 -22 212q-17 36 -76 40zM604 1333q0 -35 -25 -60.5t-61 -25.5q-35 0 -59.5 25.5t-24.5 60.5q0 36 24.5 61t59.5 25q36 0 61 -25t25 -61zM934 1333q0 -35 -25 -60.5t-59 -25.5q-37 0 -62.5 25.5t-25.5 60.5
q0 36 25.5 61t62.5 25q34 0 59 -25.5t25 -60.5z" />
    <glyph glyph-name="yacute" unicode="&#xfd;" horiz-adv-x="1360" 
d="M68 1038v29q122 -4 184 -4q59 0 174 4v-29q-72 -14 -72 -45q0 -60 65 -196q75 -160 320 -607q353 651 353 766q0 70 -84 82v29q106 -4 163 -4q52 0 150 4v-29q-81 -8 -139 -106q-87 -147 -258 -490q-191 -384 -265 -518q-90 -164 -219 -254q-114 -80 -221 -80h-57
q44 95 71 203l27 -6q0 -68 90 -68q105 0 193 107q78 93 78 166q0 159 -441 948q-44 80 -112 98zM794 1305q-75 -33 -243 -121l-21 35q40 29 213 167q28 22 189 158l92 -143q-73 -30 -230 -96z" />
    <glyph glyph-name="thorn" unicode="&#xfe;" horiz-adv-x="1442" 
d="M84 -397q65 12 81.5 58.5t20.5 229.5l4 185l7 827q0 274 -4 348q-4 81 -20.5 122t-76.5 46v29q131 28 238 55q-2 -131 -2 -293q0 -59 4 -358q141 244 436 244q252 0 422 -164t170 -406q0 -239 -170 -403t-418 -164q-111 0 -205 35q-111 41 -229 160q5 -154 6 -269
q1 -164 19 -212.5t86 -69.5v-31q-82 4 -185 4q-102 0 -184 -4v31zM324 535q0 -253 98 -375q123 -154 346 -154q200 0 307 140t107 401q0 241 -109.5 371.5t-310.5 130.5q-212 0 -325 -133.5t-113 -380.5z" />
    <glyph glyph-name="ydieresis" unicode="&#xff;" horiz-adv-x="1360" 
d="M68 1038v29q122 -4 184 -4q59 0 174 4v-29q-72 -14 -72 -45q0 -60 65 -196q75 -160 320 -607q353 651 353 766q0 70 -84 82v29q106 -4 163 -4q52 0 150 4v-29q-81 -8 -139 -106q-87 -147 -258 -490q-191 -384 -265 -518q-90 -164 -219 -254q-114 -80 -221 -80h-57
q44 95 71 203l27 -6q0 -68 90 -68q105 0 193 107q78 93 78 166q0 159 -441 948q-44 80 -112 98zM688 1333q0 -35 -25 -60.5t-61 -25.5q-35 0 -59.5 25.5t-24.5 60.5q0 36 24.5 61t59.5 25q36 0 61 -25t25 -61zM1018 1333q0 -35 -25 -60.5t-59 -25.5q-37 0 -62.5 25.5
t-25.5 60.5q0 36 25.5 61t62.5 25q34 0 59 -25.5t25 -60.5z" />
    <glyph glyph-name="dotlessi" unicode="&#x131;" horiz-adv-x="528" 
d="M80 -4v29q46 3 67 30q29 35 39 125q15 125 15 283q0 269 -4 342q-5 105 -27 136q-16 24 -72 34v26q70 15 238 62v-684q0 -180 18 -246q27 -95 99 -108v-29q-123 4 -187 4q-59 0 -186 -4z" />
    <glyph glyph-name="Lslash" unicode="&#x141;" horiz-adv-x="1366" 
d="M399 760v-273q0 -21 9 -172q10 -193 41 -231.5t225 -38.5q324 0 489 76q79 36 162 143l27 -10l-76 -258l-578 4q-65 0 -581 -4v27q54 27 71 51q41 57 41 315v268l-166 -114v69l166 113v356q0 120 -16 156.5t-84 69.5v28q123 -6 184 -6t181 6v-28q-69 -33 -83 -62
t-14 -141v-8l2 -267l281 193v-70z" />
    <glyph glyph-name="lslash" unicode="&#x142;" horiz-adv-x="569" 
d="M133 1423v29q105 18 246 57l2 -585l182 125v-64l-182 -127l2 -369q1 -247 16 -354q13 -87 95 -108v-33q-120 6 -181 6q-64 0 -190 -6v26q53 19 70 43q38 58 38 443v260l-180 -127v66l180 124v357q0 182 -28 213q-16 13 -70 24z" />
    <glyph glyph-name="OE" unicode="&#x152;" horiz-adv-x="2275" 
d="M1389 725h200q170 0 238 24.5t102 98.5h27q-2 -66 -2 -150q0 -86 2 -153h-27q-41 73 -86 96q-66 35 -266 35h-188q5 -322 14 -475q5 -85 35.5 -119.5t99.5 -34.5h156q209 0 350 62q92 40 180 149l25 -8l-76 -254l-723 6q-252 0 -332 -16l-80 -17q-80 -16 -182 -16
q-315 0 -541.5 212t-226.5 507q0 285 226 492.5t538 207.5q74 0 160 -14l123 -21q25 -4 90 -6q69 -2 61 -2h483l308 6l63 -215l-22 -10q-51 66 -89 94.5t-106 48.5q-99 31 -293 31h-241v-559zM1219 1120q0 111 -52 142q-111 65 -321 65q-263 0 -405 -170t-142 -483
q0 -324 140.5 -499t400.5 -175q146 0 258 41q97 36 108 125q3 22 8 125q5 76 5 104v725z" />
    <glyph glyph-name="oe" unicode="&#x153;" horiz-adv-x="2265" 
d="M686 1096q313 0 498 -244q210 244 493 244q241 0 387 -168q98 -113 123 -250h-913l-12 -154q0 -516 415 -516q219 0 362 161q92 104 132 241l41 -25q-27 -136 -145 -259q-158 -165 -390 -165q-317 0 -493 238q-84 -96 -146 -138q-150 -100 -352 -100q-314 0 -481 203
q-131 159 -131 362q0 228 156 390q173 180 456 180zM1106 530q0 258 -118 391q-112 126 -316 126q-222 0 -330 -160q-88 -128 -88 -328q0 -551 422 -551q430 0 430 522zM1995 727q0 123 -65 207q-85 113 -261 113q-284 0 -383 -320h709z" />
    <glyph glyph-name="Scaron" unicode="&#x160;" horiz-adv-x="1397" 
d="M41 94q53 135 78 230l26 -7q26 -136 146 -219q140 -96 383 -96q197 0 327 67q158 82 158 242q0 156 -171 225q-78 31 -396 87q-434 75 -434 335q0 183 143 292q155 118 444 118q237 0 533 -115q-31 -77 -68 -213l-28 9q-12 119 -126 192q-126 80 -349 80
q-212 0 -321 -108q-79 -78 -79 -171q0 -110 91 -174q72 -52 227 -85q146 -27 293 -54q213 -40 309 -118q100 -80 100 -222q0 -192 -184 -313t-467 -121q-324 0 -635 139zM780 1454h-32q-106 142 -301 358h59q128 -94 260 -170q79 47 258 170h53q-88 -99 -297 -358z" />
    <glyph glyph-name="scaron" unicode="&#x161;" horiz-adv-x="1171" 
d="M537 -39q-251 0 -492 105q32 72 66 174l28 -7q10 -81 99 -143q116 -80 323 -80q198 0 302 79q87 65 87 163q0 163 -270 199l-141 18q-398 52 -398 291q0 149 144 244q140 92 350 92q212 0 395 -88q-11 -32 -45 -150l-24 6q-70 183 -338 183q-187 0 -280 -86
q-69 -64 -69 -146q0 -162 267 -197l207 -26q344 -44 344 -277q0 -149 -159 -251.5t-396 -102.5zM634 1184h-32q-106 142 -301 358h59q128 -94 260 -170q79 47 258 170h53q-88 -99 -297 -358z" />
    <glyph glyph-name="Ydieresis" unicode="&#x178;" horiz-adv-x="1585" 
d="M59 1298v31q191 -6 193 -6l209 6v-31q-53 -17 -53 -67q0 -49 99 -182q76 -102 324 -400q433 497 433 586q0 53 -80 63v31q184 -6 188 -6q-2 0 195 6v-31q-74 -8 -108 -30q-43 -27 -166.5 -155t-434.5 -519v-340q0 -147 25 -182q20 -29 94 -47v-29q-135 4 -205 4
q-65 0 -192 -4v29q63 16 84 53q26 47 26 168v311q-347 490 -432 591q-106 127 -199 150zM723 1546q0 -35 -25 -60.5t-61 -25.5q-35 0 -59.5 25.5t-24.5 60.5q0 36 24.5 61t59.5 25q36 0 61 -25t25 -61zM1053 1546q0 -35 -25 -60.5t-59 -25.5q-37 0 -62.5 25.5t-25.5 60.5
q0 36 25.5 61t62.5 25q34 0 59 -25.5t25 -60.5z" />
    <glyph glyph-name="Zcaron" unicode="&#x17d;" horiz-adv-x="1284" 
d="M614 0q-200 0 -594 -4q185 221 572 747q323 442 323 492q0 23 -47 31q-61 10 -256 10q-405 0 -522 -203l-29 10q57 131 86 246q262 -6 527 -6q263 0 524 6q-204 -253 -496 -676q-348 -504 -348 -553q0 -39 71 -50q46 -7 191 -7q461 0 605 248l26 -12q-40 -98 -94 -283
q-360 4 -539 4zM708 1454h-32q-106 142 -301 358h59q128 -94 260 -170q79 47 258 170h53q-88 -99 -297 -358z" />
    <glyph glyph-name="zcaron" unicode="&#x17e;" horiz-adv-x="1171" 
d="M551 0q-170 0 -506 -4q140 160 376 455q247 306 353 454q49 69 49 88q0 23 -92 23h-174q-328 0 -401 -139l-31 6l63 184q138 -4 412 -4q309 0 465 4q-153 -190 -449 -571q-280 -375 -280 -406q0 -32 41 -39q30 -6 162 -6q228 0 354 45q110 40 182 133l29 -6l-74 -221
q-319 4 -479 4zM643 1184h-32q-106 142 -301 358h59q128 -94 260 -170q79 47 258 170h53q-88 -99 -297 -358z" />
    <glyph glyph-name="florin" unicode="&#x192;" horiz-adv-x="1360" 
d="M80 -397q29 59 82 186l28 -8q-5 -96 89 -96q122 0 172 182q63 233 102 530l78 592h-180l16 49h168q41 175 125 281q144 182 426 182l-76 -162l-16 2q-36 76 -101 76q-107 0 -154 -122q-27 -70 -48 -257h208l-14 -49h-203l-104 -753q-35 -254 -150 -426
q-59 -90 -163 -149.5t-207 -59.5q-14 0 -39.5 1t-38.5 1z" />
    <glyph glyph-name="circumflex" unicode="&#x2c6;" horiz-adv-x="662" 
d="M61 1184h-59q110 122 301 358h33q86 -121 297 -358h-58q-76 56 -258 170q-86 -55 -256 -170z" />
    <glyph glyph-name="caron" unicode="&#x2c7;" horiz-adv-x="686" 
d="M362 1184h-32q-106 142 -301 358h59q128 -94 260 -170q79 47 258 170h53q-88 -99 -297 -358z" />
    <glyph glyph-name="breve" unicode="&#x2d8;" horiz-adv-x="717" 
d="M375 1184q-169 0 -253 95q-71 80 -71 208h43q13 -71 52 -105q61 -55 206 -55q152 0 222 52q47 36 65 108h39v-35q0 -108 -79 -185q-86 -83 -224 -83z" />
    <glyph glyph-name="dotaccent" unicode="&#x2d9;" horiz-adv-x="399" 
d="M186 1247q-33 0 -57.5 25t-24.5 59q0 36 24.5 61t57.5 25q36 0 61 -25t25 -61q0 -35 -25 -59.5t-61 -24.5z" />
    <glyph glyph-name="ring" unicode="&#x2da;" horiz-adv-x="487" 
d="M238 1184q-77 0 -132 53.5t-55 130.5t55 131.5t132 54.5q75 0 128.5 -54.5t53.5 -131.5q0 -75 -53.5 -129.5t-128.5 -54.5zM356 1368q0 49 -34.5 85t-83.5 36q-51 0 -86 -35.5t-35 -85.5q0 -49 35 -85t86 -36q49 0 83.5 36t34.5 85z" />
    <glyph glyph-name="ogonek" unicode="&#x2db;" horiz-adv-x="463" 
d="M434 -295q-79 -76 -211 -76q-79 0 -134 38q-60 41 -60 108q0 76 229 217l47 -8q-60 -49 -106 -114q-49 -68 -49 -110q0 -71 106 -71q54 0 125 37z" />
    <glyph glyph-name="tilde" unicode="&#x2dc;" horiz-adv-x="750" 
d="M61 1247l-30 25q97 151 233 151q58 0 153 -36.5t146 -36.5q72 0 137 65l31 -26q-22 -50 -92 -96q-76 -52 -150 -52q-62 0 -151 35t-121 35q-78 0 -156 -64z" />
    <glyph glyph-name="hungarumlaut" unicode="&#x2dd;" horiz-adv-x="877" 
d="M295 1305q-76 -33 -244 -121l-20 35q40 29 213 167q27 22 188 158l92 -143q-72 -30 -229 -96zM629 1305q-76 -33 -244 -121l-20 35q39 29 213 167q27 22 188 158l92 -143q-73 -30 -229 -96z" />
    <glyph glyph-name="summation" unicode="&#x3a3;" horiz-adv-x="1364" 
d="M618 569l-741 942q24 -1 76 -6q46 -4 141 -4h1067v-332h-35q-11 99 -81 171.5t-334 72.5h-492l592 -760l-627 -696h688q136 0 162 2q84 8 123 41q107 92 125 199l37 -11q-17 -67 -49 -217q-27 -150 -35 -243q-24 8 -78 20q-63 8 -190 8h-1082z" />
    <glyph glyph-name="Omega" unicode="&#x3a9;" horiz-adv-x="1591" 
d="M285 406q-88 62 -140.5 172t-52.5 239q0 273 197 436q204 171 514 164q308 -6 479 -145q213 -173 213 -457q0 -219 -137 -360q-150 -155 -330 -181l-4 -67h319q103 0 130 31q41 48 32 108h37v-346h-629l39 322q169 60 237 191t68 323q0 208 -96 356q-102 157 -356 162
q-146 2 -238 -41q-96 -46 -161 -154q-83 -138 -78 -356q4 -190 79 -311t226 -173l33 -321h-625l-2 348h35q-7 -58 32 -100q30 -33 113 -33l334 -2l2 59q-107 20 -270 136z" />
    <glyph glyph-name="pi" unicode="&#x3c0;" horiz-adv-x="1249" 
d="M180 821q-66 -37 -96 -114h-39q7 52 45 120q36 64 72 97q104 94 282 94h686v-170h-276l-18 -256q-9 -116 -9 -158q0 -131 33 -209q27 -62 111 -67q85 -5 116 69q20 47 17 84h41q1 -9 1 -21q0 -108 -63 -212q-26 -44 -78.5 -74t-101.5 -29q-58 2 -108 43q-46 37 -64 88
q-37 106 -31 291q1 20 19 209l22 240h-254l-14 -154q-16 -174 -39 -330q-25 -171 -61 -299q-9 -29 -45 -62q-43 -38 -84 -34q-97 10 -101 107q-2 44 62 110q73 76 84 107q44 125 63 346l19 209q-24 5 -91 -2q-73 -8 -100 -23z" />
    <glyph glyph-name="endash" unicode="&#x2013;" horiz-adv-x="1360" 
d="M1262 483h-1199l33 80h1194z" />
    <glyph glyph-name="emdash" unicode="&#x2014;" horiz-adv-x="2040" 
d="M1942 487h-1876l28 78h1876z" />
    <glyph glyph-name="quoteleft" unicode="&#x2018;" horiz-adv-x="680" 
d="M246 1081q0 129 133 287l35 -27q-78 -100 -78 -159q0 -20 6 -26t37 -13q21 -5 39 -30t18 -54q0 -96 -92 -96q-44 0 -71 34.5t-27 83.5z" />
    <glyph glyph-name="quoteright" unicode="&#x2019;" horiz-adv-x="680" 
d="M305 963l-37 26q76 92 76 152q0 25 -6 32.5t-33 12.5q-23 4 -41 32t-18 60q0 90 90 90q98 0 98 -137q0 -109 -129 -268z" />
    <glyph glyph-name="quotesinglbase" unicode="&#x201a;" horiz-adv-x="680" 
d="M276 -248l-32 27q75 103 75 166q0 20 -45 35q-59 18 -59 96q0 35 26.5 60.5t61.5 25.5q103 0 103 -129q0 -126 -130 -281z" />
    <glyph glyph-name="quotedblleft" unicode="&#x201c;" horiz-adv-x="756" 
d="M154 1092q0 123 139 276l33 -27q-80 -109 -80 -172q0 -11 53 -34q45 -21 45 -78q0 -94 -96 -94q-45 0 -71 41q-23 37 -23 88zM426 1094q0 125 145 274l31 -27q-82 -125 -82 -167q0 -19 45 -35q19 -7 36 -31.5t17 -46.5q0 -98 -94 -98q-45 0 -71.5 38t-26.5 93z" />
    <glyph glyph-name="quotedblright" unicode="&#x201d;" horiz-adv-x="756" 
d="M205 963l-31 22q76 100 76 164q0 28 -47 43q-56 18 -56 86q0 33 23.5 61.5t54.5 28.5q113 0 113 -129q0 -82 -50 -169q-37 -65 -83 -107zM487 963l-32 22q77 113 77 172q0 19 -43 31q-59 16 -59 90q0 37 25.5 63.5t62.5 26.5q48 0 75.5 -33.5t27.5 -83.5
q0 -160 -134 -288z" />
    <glyph glyph-name="quotedblbase" unicode="&#x201e;" horiz-adv-x="756" 
d="M188 -248l-32 27q75 103 75 166q0 20 -45 35q-59 18 -59 96q0 35 26.5 60.5t61.5 25.5q102 0 102 -129q0 -126 -129 -281zM473 -248l-35 27q76 96 76 170q0 22 -43 33q-59 14 -59 96q0 35 27 59.5t63 24.5q100 0 100 -131q0 -124 -129 -279z" />
    <glyph glyph-name="dagger" unicode="&#x2020;" horiz-adv-x="1360" 
d="M258 862q0 43 -8 137q94 -57 170 -80q92 -29 235 -36q0 181 -108 446q135 -6 137 -6l129 6q-108 -268 -108 -446q142 7 220 30q71 21 187 86q0 -23 -3 -69t-3 -68t3 -67t3 -68q-137 70 -189 84q-56 15 -218 23q0 -186 83 -345q-75 -390 -83 -837h-50q0 409 -80 837
q80 157 80 345q-156 -9 -215 -25q-52 -14 -190 -82q1 15 5 68q3 41 3 67z" />
    <glyph glyph-name="daggerdbl" unicode="&#x2021;" horiz-adv-x="1360" 
d="M256 862q0 43 -8 137q130 -67 183 -84q79 -26 224 -34q0 126 -34 241q-16 54 -78 207l153 -6q-2 0 121 6q-58 -148 -75 -206q-35 -122 -35 -242q151 11 231 37q55 17 174 81q-6 -70 -6 -137q0 -69 6 -137q-136 64 -180 78q-82 24 -225 26q13 -143 31 -206q6 -22 55 -142
q-86 -176 -86 -334q220 8 405 105q-8 -90 -8 -139q0 -45 8 -131q-139 68 -193 84q-58 17 -212 30v-41q0 -137 110 -401q-22 0 -63.5 1t-61.5 1q-24 0 -74.5 -1t-74.5 -1q112 236 112 442q-150 -11 -222 -33q-46 -14 -185 -81q6 64 6 131q0 71 -6 139q145 -67 192 -80
q68 -19 215 -25q0 98 -22 174q-13 45 -62 160q84 176 84 348q-164 -10 -215 -23q-45 -12 -192 -81q8 90 8 137z" />
    <glyph glyph-name="bullet" unicode="&#x2022;" horiz-adv-x="1364" 
d="M328 692q3 152 113.5 258.5t263.5 106.5q155 0 260.5 -110.5t105.5 -268.5q0 -155 -110 -264.5t-261 -104.5q-156 6 -265.5 117.5t-106.5 265.5z" />
    <glyph glyph-name="ellipsis" unicode="&#x2026;" horiz-adv-x="2040" 
d="M340 0q-37 0 -62.5 25.5t-25.5 62.5t25.5 62.5t62.5 25.5t63.5 -25.5t26.5 -62.5q0 -36 -27 -62t-63 -26zM1018 0q-37 0 -62.5 25.5t-25.5 62.5t25.5 62.5t62.5 25.5t63.5 -25.5t26.5 -62.5t-26.5 -62.5t-63.5 -25.5zM1694 0q-37 0 -62.5 25.5t-25.5 62.5t25.5 62.5
t62.5 25.5t62.5 -25.5t25.5 -62.5t-25.5 -62.5t-62.5 -25.5z" />
    <glyph glyph-name="perthousand" unicode="&#x2030;" horiz-adv-x="2390" 
d="M61 909v19q0 155 96.5 256.5t243.5 101.5q152 0 248 -103t96 -268q1 -158 -95 -259t-247 -101t-245 96q-97 97 -97 258zM362 -43l793 1329h82l-784 -1329h-91zM864 350q9 154 102.5 247t237.5 93q152 0 248 -103t96 -263t-96 -263.5t-244 -103.5q-150 0 -248 104.5
t-98 264.5q0 -11 2 24zM1642 356q8 141 105 234.5t235 93.5q151 0 246.5 -103.5t95.5 -265.5q0 -161 -94.5 -262.5t-244.5 -101.5q-154 0 -249.5 104t-95.5 273q0 18 2 28zM199 918q0 -168 48.5 -243t158.5 -75q200 0 200 320q0 321 -209 321q-198 0 -198 -323zM1001 344
v-22q0 -316 209 -316q199 0 199 320q0 167 -47 242t-152 75q-209 0 -209 -299zM1780 324q0 -171 47 -247.5t153 -76.5q207 0 207 309q0 326 -211 326q-196 0 -196 -311z" />
    <glyph glyph-name="guilsinglleft" unicode="&#x2039;" horiz-adv-x="567" 
d="M418 168q-162 185 -342 356q205 195 342 357h74q-69 -93 -244 -357q142 -224 244 -356h-74z" />
    <glyph glyph-name="guilsinglright" unicode="&#x203a;" horiz-adv-x="567" 
d="M494 524q-181 -171 -342 -356h-74q101 132 244 356q-102 164 -244 357h74q136 -162 342 -357z" />
    <glyph glyph-name="trademark" unicode="&#x2122;" horiz-adv-x="1253" 
d="M2 1143l-12 -47h-37l16 227h496l12 -227h-39l-10 43q-16 69 -37 96q-46 61 -125 61v-458q0 -54 15 -68q22 -22 73 -22h23v-35h-332v35h27q49 0 71 22q17 16 17 80v444q-67 -3 -107 -47q-34 -37 -51 -104zM530 1284v39h213l121 -446l140 446h235v-39h-22q-37 0 -54 -12
q-20 -15 -20 -55v-386q0 -53 14 -67q21 -21 47 -19l25 3v-35h-293v35h35q24 0 49 24q14 14 14 66v460l-188 -583h-25l-170 579v-458q0 -50 23 -70q28 -25 65 -18v-35h-229v35q35 -11 80 24q14 11 14 64v397q0 36 -11 43.5t-44 7.5h-19z" />
    <glyph glyph-name="partialdiff" unicode="&#x2202;" horiz-adv-x="1137" 
d="M463 1450q-111 -3 -211 -70l-70 99q117 61 262 63q215 4 375 -164q144 -150 178 -397q12 -82 12 -166q0 -154 -40 -332q-49 -217 -170 -377q-110 -144 -332 -139q-108 3 -198 58q-93 57 -140 153q-40 82 -40 170q0 63 22 150q44 181 200 278q89 55 187 55q48 0 110 -12
q41 -8 115 -51q78 -47 111 -86q22 84 22 193q0 87 -14 194q-30 223 -158 324q-77 60 -221 57zM748 297q66 211 59 319q-73 143 -236 138q-120 -4 -200 -115q-97 -133 -109 -266q-14 -155 33 -246q54 -104 176 -104q81 0 160.5 79t116.5 195z" />
    <glyph glyph-name="Delta" unicode="&#x2206;" horiz-adv-x="1552" 
d="M1425 -2h-1275l679 1409zM1174 94l-422 979l-469 -979h891z" />
    <glyph glyph-name="product" unicode="&#x220f;" horiz-adv-x="1704" 
d="M172 1405q-61 55 -156 47v49h1657v-47q-79 0 -131 -47q-80 -73 -80 -272v-1123q0 -163 47 -202q25 -21 93 -36q59 -14 77 -12v-34h-649v39q21 -5 79.5 9.5t82.5 30.5q40 29 46 92q-1 -7 -1 119v1366h-782v-1341q0 -180 41 -221q33 -33 91 -47q48 -10 83 -4v-43h-654v43
q6 -2 15 -2q97 0 159 45q32 22 38 88q1 11 1 125v1110q0 127 -1 135q-9 90 -56 133z" />
    <glyph glyph-name="fraction" unicode="&#x2215;" horiz-adv-x="221" 
d="M-330 -51l789 1331h86l-787 -1333z" />
    <glyph glyph-name="periodcentered" unicode="&#x2219;" horiz-adv-x="1360" 
d="M797 633q0 -46 -33.5 -78.5t-79.5 -32.5t-78.5 32.5t-32.5 78.5t32.5 79t78.5 33t79.5 -33t33.5 -79z" />
    <glyph glyph-name="radical" unicode="&#x221a;" horiz-adv-x="1024" 
d="M244 993l-203 -94l-27 68l301 139l424 -842l279 1667l63 -10l-319 -1948z" />
    <glyph glyph-name="infinity" unicode="&#x221e;" horiz-adv-x="2040" 
d="M406 260q-87 79 -93 191q-6 126 103 223q75 67 202 69q132 3 281 -118l123 -101l72 62q188 162 327 162q147 0 234 -99q74 -83 74 -186t-76 -189q-86 -97 -213 -96q-181 2 -338 144l-84 75l-78 -75q-136 -133 -315 -142q-126 -6 -219 80zM1096 463l63 -62
q131 -126 260 -129q77 -1 139.5 49.5t63.5 124.5q2 77 -55 133t-135 56q-70 0 -137 -34q-39 -20 -121 -81zM883 403l63 62l-78 57q-82 61 -121 81q-67 34 -137 34q-78 0 -135 -56t-55 -132q1 -75 65 -127q61 -49 138 -48q129 3 260 129z" />
    <glyph glyph-name="integral" unicode="&#x222b;" horiz-adv-x="606" 
d="M340 1843q51 95 133 101q68 5 107 -28q35 -30 35 -81q0 -46 -35 -71t-80 -21q-21 2 -51.5 21.5t-44.5 19.5q-10 0 -19 -6q-25 -17 -23 -92q14 -123 29 -357q1 -29 3 -89q1 -52 1 -89v-535q0 -144 -18 -280q-15 -115 -31 -230q-20 -119 -59 -190q-21 -37 -74 -61
q-48 -22 -90 -19q-45 3 -80 38.5t-35 74.5t25 66t61 28q33 1 68 -28t49 -29q23 0 40 46q13 37 15 74v254q0 48 -4 123.5t-4 122.5v596q0 226 18.5 392t63.5 249z" />
    <glyph glyph-name="approxequal" unicode="&#x2248;" horiz-adv-x="2040" 
d="M561 197l-84 53q79 81 125 111q71 47 154 49q113 2 262 -43q169 -52 239 -58q14 -1 26 -1q73 0 133 42q44 36 87 72l70 -64q-52 -48 -103 -97q-69 -51 -167 -54q-95 -4 -285 56q-186 58 -262 52q-58 -4 -107 -39q-15 -11 -88 -79zM559 510l-84 53q79 81 125 111
q71 47 154 49q113 3 262 -43q169 -51 239 -57q14 -2 27 -2q72 0 131 42l88 72l70 -63q-52 -49 -103 -98q-69 -50 -168 -54q-95 -3 -285 56q-186 58 -261 53q-58 -5 -107 -40q-15 -11 -88 -79z" />
    <glyph glyph-name="notequal" unicode="&#x2260;" horiz-adv-x="2040" 
d="M467 721v108h631l196 338l105 -57l-162 -281h342v-108h-410l-168 -291h578v-108h-639l-197 -326l-100 51l160 275h-336v108h399l168 291h-567z" />
    <glyph glyph-name="lessequal" unicode="&#x2264;" horiz-adv-x="2040" 
d="M1534 1325v-125l-920 -412l920 -421v-125l-1053 485v119zM1518 66v-111h-1053v111h1053z" />
    <glyph glyph-name="greaterequal" unicode="&#x2265;" horiz-adv-x="2040" 
d="M475 1200v125l1053 -479v-119l-1053 -485v125l920 421zM453 -45v111h1052v-111h-1052z" />
    <glyph glyph-name="lozenge" unicode="&#x25ca;" horiz-adv-x="2040" 
d="M518 782l412 766h119l413 -764l-418 -784h-116zM1352 784l-365 666l-362 -668l362 -678z" />
    <glyph glyph-name="apple" unicode="&#xf000;" 
d="M287 0v1475h1474v-1475h-1474zM362 1399v-1323h1324v1323h-1324z" />
    <glyph glyph-name="fi" unicode="&#xf001;" horiz-adv-x="1139" 
d="M82 987l20 57h150q7 92 14 132q23 122 119 213q119 111 326 114q-29 -75 -45 -141h-23q-35 61 -94 61q-80 0 -125 -71.5t-45 -198.5q0 -63 2 -109h207q77 0 108 3q95 6 201 22l53 8v-622q0 -101 13 -269q6 -90 23 -118t75 -41v-33q-123 6 -187 6q-60 0 -186 -6v33
q81 20 96 88q27 114 27 309v307q0 125 -10 187q-7 41 -32.5 55t-92.5 14h-293l14 -506q1 -31 6 -131q3 -50 7 -139q4 -103 24.5 -138.5t83.5 -45.5v-33q-132 6 -196 6q-68 0 -197 -6v33q85 10 105 80.5t20 361.5v18l-2 500h-166zM780 1339q0 42 27 70.5t65 28.5
q39 0 66 -28.5t27 -68.5q0 -39 -27.5 -67.5t-65.5 -28.5t-65 28t-27 66z" />
    <glyph glyph-name="fl" unicode="&#xf002;" horiz-adv-x="1139" 
d="M102 1044h146q9 132 38.5 206t98.5 139q122 114 301 114q39 0 104.5 -4t61.5 -4q15 0 90 10l4 -1022q0 -78 4 -176q6 -157 17 -203q15 -66 92 -77v-33q-132 6 -195 6q-64 0 -190 -6v33q52 6 71 21.5t31 62.5q8 46 10 73q11 116 11 297l-2 748q0 85 -6.5 112t-32.5 52
q-44 41 -146 41q-231 0 -231 -283q0 -68 2 -107h199l-19 -57h-180l16 -506q2 -55 13 -270q5 -104 25.5 -139t82.5 -45v-33q-132 6 -199 6q-65 0 -194 -6v33q85 10 105 80t20 358v16l-2 506h-166z" />
    <glyph glyph-name="glyph247" 
 />
    <glyph glyph-name="glyph248" 
 />
    <glyph glyph-name="glyph249" 
 />
    <glyph glyph-name="glyph250" 
 />
    <glyph glyph-name="glyph251" 
 />
    <glyph glyph-name="glyph252" 
 />
    <glyph glyph-name="glyph253" 
 />
    <glyph glyph-name="glyph254" 
 />
    <glyph glyph-name="glyph255" 
 />
    <glyph glyph-name="glyph256" 
 />
    <glyph glyph-name="glyph257" 
 />
    <glyph glyph-name="glyph258" 
 />
    <glyph glyph-name="glyph259" 
 />
    <glyph glyph-name="glyph260" 
 />
    <glyph glyph-name="glyph261" 
 />
    <glyph glyph-name="glyph262" 
 />
    <glyph glyph-name="glyph263" 
 />
    <glyph glyph-name="glyph264" 
 />
    <glyph glyph-name="glyph265" 
 />
    <glyph glyph-name="glyph266" 
 />
    <glyph glyph-name="glyph267" 
 />
    <glyph glyph-name="glyph268" 
 />
    <glyph glyph-name="glyph269" 
 />
    <glyph glyph-name="glyph270" 
 />
    <glyph glyph-name="glyph271" 
 />
    <glyph glyph-name="glyph272" 
 />
    <glyph glyph-name="glyph273" 
 />
    <glyph glyph-name="glyph274" 
 />
    <glyph glyph-name="glyph275" 
 />
    <glyph glyph-name="glyph276" 
 />
    <glyph glyph-name="LF" horiz-adv-x="1442" 
d="M1018 1421v29q128 27 239 59q-1 -67 -6 -245h146v-70h-146l-6 -821l8 -152q6 -102 24.5 -139.5t76.5 -56.5v-27l-193 4q-40 92 -67 193q-25 -31 -70 -84q-135 -146 -356 -146q-257 0 -421.5 163.5t-164.5 418.5q0 232 169 395.5t408 163.5q262 0 443 -191q3 74 8 279
h-139v70h139q-5 100 -18 125q-16 26 -74 32zM262 586q-2 -47 -2 -58q0 -248 106.5 -383t303.5 -135q216 0 330 141.5t114 407.5q0 500 -442 500q-389 0 -410 -473z" />
    </font>
</defs>
</svg>
